<?xml version="1.0" encoding="utf-8"?>
<!-- Generator: Adobe Illustrator 17.0.0, SVG Export Plug-In . SVG Version: 6.00 Build 0)  -->
<!DOCTYPE svg PUBLIC "-//W3C//DTD SVG 1.1//EN" "http://www.w3.org/Graphics/SVG/1.1/DTD/svg11.dtd">
<svg version="1.1" id="Layer_1" xmlns="http://www.w3.org/2000/svg" xmlns:xlink="http://www.w3.org/1999/xlink" x="0px" y="0px"
	 width="283.46px" height="226.77px" viewBox="0 0 283.46 226.77" enable-background="new 0 0 283.46 226.77" xml:space="preserve">
<g id="eH3SiS_1_">
	<g>
		<path d="M-0.27,191.104c0-12.21,0-24.419,0-36.629c9.412-0.008,18.823-0.017,28.235-0.025c3.897-0.003,7.794-0.019,11.691,0.003
			c1.193,0.007,1.988-0.226,1.911-1.703c-0.175-3.354-0.308-6.712-0.364-10.07c-0.047-2.811,0.78-3.618,3.646-3.684
			c2.205-0.05,4.412-0.024,6.617-0.006c1.546,0.013,3.297-0.479,3.944,1.746c0.084,0.288,1.01,0.459,1.549,0.467
			c2.941,0.044,5.883-0.026,8.823,0.04c1.324,0.03,1.793-0.418,1.81-1.776c0.039-3.072,1.843-4.698,4.92-4.928
			c0.762-0.057,1.49-0.743,2.208-1.183c0.959-0.587,1.885-1.695,2.839-1.711c1.413-0.024,3.463,0.292,4.104,1.236
			c0.833,1.227,1.527,1.59,2.858,1.772c1.386,0.19,3.007,0.509,2.343,2.763c-0.101,0.341,0.971,1.47,1.488,1.462
			c1.196-0.02,2.998,1.058,3.458-1.112c0.781-3.684,0.732-3.662,4.732-3.303c0.523,0.047,1.337-0.291,1.599-0.711
			c1.019-1.63-0.333-3.901-2.239-3.962c-4.492-0.143-8.993-0.174-13.47-0.515c-2.336-0.178-4.865,0.094-6.895-1.653
			c-0.392-0.337-1.109-0.278-1.659-0.454c-2.876-0.92-5.747-1.856-8.618-2.79c-0.062-0.02-0.105-0.092-0.164-0.131
			c-1.788-1.202-3.569-2.415-5.367-3.602c-2.699-1.782-5.713-3.219-8.046-5.391c-3.657-3.404-6.878-7.279-10.236-10.998
			c-0.92-1.019-1.805-2.118-2.467-3.313c-1.052-1.899-1.855-3.934-2.863-5.86c-0.374-0.715-1.398-1.234-1.493-1.928
			c-0.451-3.294-3.108-5.901-2.85-9.404c0.024-0.323-0.558-0.656-0.759-1.038c-0.331-0.63-0.782-1.287-0.832-1.959
			c-0.352-4.667-0.834-9.34-0.84-14.012c-0.006-4.45,0.499-8.902,0.826-13.349c0.041-0.554,0.37-1.086,0.558-1.631
			c0.532-1.542,1.039-3.094,1.595-4.628c0.864-2.383,1.757-4.755,2.651-7.127c0.044-0.118,0.245-0.168,0.321-0.284
			c0.459-0.699,0.945-1.384,1.343-2.117c1.078-1.984,1.936-4.114,3.215-5.953c1.581-2.274,3.556-4.268,5.257-6.465
			c2.957-3.819,6.875-6.534,10.65-9.407c1.445-1.1,3.11-1.908,4.645-2.895c1.814-1.167,3.469-2.687,5.423-3.507
			c2.786-1.169,5.798-1.787,8.677-2.748c1.41-0.471,2.693-1.539,4.112-1.72c3.838-0.492,7.753-1.126,11.573-0.841
			c6.513,0.487,13.25-0.604,19.482,2.461c1.962,0.965,4.217,0.635,6.369,2.017c2.68,1.721,5.943,2.638,8.641,4.606
			c2.599,1.895,5.584,3.297,8.039,5.347c5.395,4.504,10.182,9.593,13.281,16.038c0.092,0.192,0.281,0.334,0.401,0.515
			c1.141,1.732,2.561,3.349,3.346,5.23c1.185,2.842,1.923,5.871,2.857,8.818c0.066,0.207,0.139,0.508,0.292,0.576
			c1.07,0.474,2.131,1.058,3.259,1.269c0.548,0.102,1.596-0.375,1.79-0.847c0.797-1.946,1.351-3.991,1.999-5.999
			c0.156-0.483,0.195-1.259,0.508-1.396c2.702-1.178,1.86-4.304,3.503-6.303c1.641-1.997,2.989-4.647,4.518-6.95
			c1.395-2.101,3.232-3.931,5.001-5.758c1.947-2.01,3.975-3.954,6.092-5.782c1.3-1.122,2.857-1.941,4.259-2.951
			c1.549-1.115,2.935-2.522,4.606-3.384c2.168-1.118,4.549-1.823,6.838-2.708c0.272-0.105,0.649-0.143,0.792-0.344
			c1.143-1.603,2.834-1.512,4.522-1.66c0.985-0.086,1.957-0.535,2.891-0.927c0.647-0.271,1.198-1.008,1.825-1.051
			c5.403-0.369,10.813-0.809,16.224-0.857c3.789-0.034,7.583,0.506,11.374,0.81c0.418,0.033,0.835,0.17,1.237,0.305
			c1.82,0.611,3.638,1.229,5.45,1.864c0.666,0.233,1.326,0.493,1.967,0.788c0.948,0.437,1.876,0.916,2.811,1.381
			c0.865,0.43,1.735,0.848,2.587,1.303c0.441,0.236,0.826,0.577,1.269,0.806c1.835,0.946,3.709,1.818,5.515,2.815
			c1.162,0.641,2.348,1.325,3.318,2.214c2.058,1.888,3.999,3.906,5.957,5.902c2.015,2.053,4.081,4.066,5.959,6.24
			c1.458,1.688,2.709,3.563,3.962,5.416c0.959,1.419,1.974,2.854,2.614,4.424c1.065,2.618,1.85,5.35,2.754,8.034
			c0.023,0.069,0.047,0.159,0.1,0.192c1.867,1.171,1.724,3.059,1.665,4.863c-0.041,1.263,0.451,1.755,1.672,1.584
			c0,9.415,0,18.829,0,28.244c-0.55,0.04-1.1,0.081-1.763,0.129c0.121,2.503,0.269,4.833-1.75,6.613
			c-0.389,0.342-0.422,1.214-0.428,1.843c-0.031,3.168-2.736,5.122-3.543,7.928c-0.016,0.057-0.126,0.081-0.167,0.138
			c-0.969,1.356-1.978,2.686-2.888,4.08c-1.003,1.538-1.717,3.308-2.91,4.666c-1.736,1.975-3.761,3.701-5.712,5.48
			c-2.316,2.112-4.631,4.231-7.053,6.216c-1.086,0.89-2.62,1.269-3.614,2.229c-1.292,1.248-2.566,2.251-4.417,2.305
			c-0.06,0.002-0.126,0.071-0.176,0.121c-2.326,2.327-5.65,2.571-8.415,3.99c-0.855,0.439-2.118,0.133-2.919,0.62
			c-2.547,1.55-5.33,1.518-8.143,1.804c-4.593,0.468-9.617-0.196-13.098,4.012c-0.127,0.154-0.372,0.314-0.551,0.303
			c-1.312-0.081-2.138,0.39-3.111,1.432c-1.121,1.202-2.927,1.779-4.461,2.578c-1.831,0.953-3.755,1.743-5.517,2.805
			c-1.891,1.14-3.562,2.654-5.477,3.744c-1.746,0.994-3.733,1.558-5.521,2.49c-0.51,0.266-0.836,1.122-0.989,1.768
			c-0.167,0.707-0.214,1.547,0.019,2.212c0.208,0.595,0.813,1.389,1.339,1.47c1.366,0.209,2.809-0.092,4.177,0.108
			c3.34,0.489,3.724,0.909,3.712,3.125c-0.033,6.046,0.029,6.116,6.061,6.069c2.063-0.016,2.735,0.918,2.734,2.746
			c-0.001,6.62-0.009,13.239,0.01,19.859c0.004,1.514-0.51,2.228-2.19,2.19c-3.228-0.073-6.58-0.606-9.339,1.904
			c-0.389,0.354-1.251,0.247-1.895,0.25c-3.825,0.02-7.649,0.03-11.474,0.001c-1.622-0.012-2.343,0.542-1.796,2.258
			c0.194,0.609,0.192,1.295,0.195,1.946c0.018,3.236-0.09,6.477,0.072,9.705c0.046,0.912,0.896,1.768,1.3,2.683
			c0.423,0.958,0.947,1.932,1.073,2.943c0.141,1.134-0.17,2.316-0.185,3.479c-0.035,2.738-0.011,5.478-0.011,8.464
			c-2.141,0.11-4.021,0.29-5.901,0.291c-26.257,0.018-52.515-0.047-78.772,0.075c-4.095,0.019-8.146-0.661-12.336,1.478
			c-3.594,1.834-8.131,0.965-12.176-0.156c-0.658-0.182-1.424-1.104-1.566-1.801c-0.345-1.694-0.284-3.466-0.532-5.185
			c-0.086-0.597-0.59-1.613-0.921-1.62c-2.783-0.06-3.382-1.963-3.592-4.249c-1.339,0-2.522-0.101-3.674,0.046
			c-0.517,0.066-1.201,0.528-1.404,0.989c-0.465,1.057-0.348,2.704-1.088,3.217c-0.823,0.571-2.334,0.152-3.545,0.159
			c-0.809,0.005-1.625-0.069-2.426,0.015c-2.164,0.226-2.806-0.784-2.775-2.842c0.09-5.956,0.031-11.915,0.03-17.872
			c0-1.296,0-2.592,0-4.575c-1.164,0.75-1.814,1.197-2.491,1.597c-0.937,0.554-1.859,1.432-2.851,1.533
			c-2.28,0.23-4.599,0.075-6.902,0.075c-6.598,0-13.196,0-19.794,0C13.372,191.104,6.551,191.104-0.27,191.104z M219.945,125.756
			c3.266-0.571,7.39,0.592,11.589-1.5c2.747-1.369,6.419-1.175,9.473-2.559c2.231-1.011,4.502-1.936,6.753-2.903
			c0.064-0.027,0.105-0.103,0.164-0.146c1.569-1.162,3.146-2.314,4.708-3.486c2.408-1.808,5.143-3.324,7.132-5.514
			c3.178-3.5,6.852-6.619,8.897-11.118c1.193-2.625,3.711-4.609,3.875-7.788c0.017-0.329,0.336-0.635,0.478-0.967
			c0.54-1.259,1.096-2.511,1.581-3.791c0.224-0.592,0.089-1.465,0.475-1.825c1.572-1.468,1.539-3.353,1.728-5.243
			c0.397-3.969,0.905-7.926,1.329-11.892c0.069-0.643-0.005-1.315-0.101-1.96c-0.383-2.564-0.96-5.11-1.164-7.686
			c-0.212-2.679,0.18-5.426-1.834-7.684c-0.335-0.375-0.216-1.12-0.427-1.646c-1.139-2.838-2.215-5.709-3.517-8.472
			c-0.804-1.706-1.981-3.236-2.975-4.855c-0.921-1.5-1.544-3.309-2.781-4.465c-4.233-3.955-7.57-8.914-12.921-11.644
			c-1.375-0.701-2.577-1.731-3.91-2.524c-2.077-1.236-4.185-2.421-6.312-3.568c-0.352-0.19-0.878-0.027-1.306-0.112
			c-0.563-0.111-1.301-0.133-1.629-0.495c-1.577-1.743-3.602-1.684-5.676-1.721c-1.072-0.019-2.341-0.038-3.168-0.588
			c-2.438-1.619-5.168-1.205-7.801-1.616c-7.196-1.122-13.907,1.689-20.855,2.488c-2.019,0.232-3.956,2.18-6.38,2.22
			c-0.312,0.005-0.585,0.62-0.93,0.882c-0.495,0.377-1.014,0.738-1.567,1.019c-2.029,1.03-4.107,1.968-6.105,3.054
			c-1.175,0.639-2.317,1.395-3.328,2.267c-2.145,1.851-4.238,3.768-6.272,5.741c-1.743,1.691-3.651,3.31-4.991,5.294
			c-1.936,2.866-3.459,6.015-5.09,9.08c-0.816,1.535-1.481,3.15-2.213,4.729c-0.565,1.22-1.184,2.418-1.678,3.666
			c-0.597,1.508-1.099,3.055-1.617,4.594c-0.137,0.407-0.25,0.843-0.261,1.269c-0.154,6.454-0.372,12.909-0.386,19.364
			c-0.005,2.441,0.326,4.91,0.778,7.314c0.337,1.793,1.088,3.513,1.704,5.248c0.808,2.274,1.662,4.532,2.512,6.79
			c0.073,0.195,0.292,0.33,0.409,0.515c1.152,1.826,2.234,3.7,3.458,5.476c1.702,2.468,3.377,4.977,5.315,7.254
			c1.488,1.747,3.329,3.204,5.078,4.716c2.266,1.958,4.469,4.031,6.94,5.696c1.88,1.266,4.488,1.579,6.126,3.04
			c1.626,1.45,3.391,1.58,5.191,2.078c0.303,0.084,0.529,0.418,0.829,0.552c0.959,0.427,1.906,0.937,2.914,1.185
			c1.119,0.275,2.321,0.2,3.449,0.449c2.443,0.538,4.834,1.375,7.298,1.73C214.954,125.987,217.047,125.756,219.945,125.756z
			 M151.209,66.938c-0.3-16.61-6.108-31.209-18.066-42.538C121.25,13.133,106.506,7.093,89.903,8.155
			c-21.529,1.377-38.369,11.35-49.032,30.39c-5.006,8.937-7.486,18.718-7.712,29.18c-0.123,5.7,1.663,10.902,2.692,16.22
			c0.983,5.08,3.633,10.106,6.575,14.463c2.916,4.32,5.975,8.654,10.274,12.071c4.184,3.325,8.381,6.458,13.049,9.065
			c4.764,2.661,10.102,3.37,15.127,5.109c5.464,1.89,11.119,1.53,16.534,0.972c18.676-1.927,33.85-10.619,44.217-26.311
			C147.973,89.708,151.478,78.784,151.209,66.938z M155.51,74.403c-0.285,0.133-0.571,0.267-0.856,0.4
			c-0.127,1.891-0.212,3.786-0.404,5.67c-0.07,0.687-0.383,1.353-0.608,2.02c-0.384,1.141-0.834,2.261-1.166,3.416
			c-0.352,1.223-0.489,2.516-0.922,3.704s-1.117,2.285-1.691,3.422c-0.917,1.817-1.721,3.703-2.784,5.43
			c-1.091,1.772-2.451,3.377-3.664,5.076c-1.208,1.691-2.224,3.547-3.605,5.078c-1.825,2.022-3.891,3.833-5.918,5.664
			c-1.043,0.943-2.228,1.727-3.342,2.592c-1.464,1.135-2.84,2.409-4.403,3.383c-1.721,1.072-3.949,1.522-5.347,2.873
			c-2.075,2.005-4.852,2.231-7.198,3.422c-3.151,1.599-6.961,1.886-10.469,2.811c-0.509,0.134-1.218,0.624-1.304,1.055
			c-0.323,1.619,2.549,4.198,4.195,3.933c0.787-0.126,1.592-0.194,2.389-0.195c17.575-0.014,35.151-0.017,52.726-0.017
			c12.942,0,25.893-0.246,38.822,0.179c3.632,0.119,6.178-1.552,9.115-2.715c0.656-0.26,1.015-1.271,1.51-1.937
			c-0.797-0.168-1.587-0.392-2.392-0.491c-1.5-0.184-3.094-0.034-4.499-0.488c-3.539-1.144-7.016-2.493-10.468-3.883
			c-0.965-0.388-1.694-1.583-2.645-1.746c-2.175-0.374-3.697-1.76-5.421-2.853c-1.489-0.944-3.073-1.785-4.4-2.923
			c-2.033-1.743-3.936-3.649-5.794-5.582c-2.646-2.753-5.281-5.526-7.761-8.428c-1.121-1.312-1.947-2.908-2.744-4.459
			c-1.06-2.06-1.996-4.187-2.923-6.312c-1.194-2.737-2.54-5.435-3.419-8.273c-0.746-2.409-0.855-5.009-1.39-7.493
			C156.553,75.91,155.93,75.178,155.51,74.403z M164.384,157.579c0.661,1.061,0.998,1.665,1.394,2.227
			c2.232,3.167,2.362,3.461-0.158,6.308c-1.28,1.447-2.985,3.518-5.146,2.378c-1.956-1.032-4.403-2.088-4.682-5.019
			c-0.049-0.511-1.106-1.313-1.702-1.318c-3.129-0.027-6.26,0.268-9.39,0.254c-17.932-0.079-35.864-0.214-53.797-0.33
			c-0.515-0.003-1.052-0.092-1.536,0.03c-0.333,0.084-0.592,0.463-0.885,0.711c0.265,0.274,0.485,0.678,0.806,0.789
			c0.393,0.136,0.871,0.034,1.311,0.022c4.028-0.109,8.057-0.308,12.085-0.304c3.29,0.003,4.342,1.142,4.286,4.337
			c-0.09,5.082-0.236,10.163-0.366,15.577c16.709,0,33.794,0,51.219,0c-0.4-0.596-0.843-1.081-1.085-1.652
			c-0.463-1.087-1.226-2.264-1.121-3.331c0.22-2.23,4.167-4.552,6.47-4.302c1.956,0.213,2.982,1.224,4.131,2.802
			c1.351,1.855,1.728,2.745,0.219,4.373c-0.483,0.522-0.58,1.401-0.818,2.021c2.963,0,5.503-0.046,8.04,0.015
			c1.819,0.044,3.634,0.313,5.453,0.336c3.927,0.049,7.856-0.004,11.784,0.004c1.199,0.003,2.523,0.157,2.528-1.589
			c0.025-7.575,0.038-15.15-0.065-22.724c-0.007-0.546-0.974-1.542-1.503-1.547C182.893,157.552,173.928,157.579,164.384,157.579z
			 M20.184,186.993c0.094-1.976,0.235-3.677,0.245-5.379c0.032-5.295,0.026-10.59,0.007-15.885c-0.004-1.132-0.29-2.286-0.151-3.392
			c0.253-2.01-0.85-3.434-2.936-3.442c-3.604-0.014-7.207-0.012-10.811-0.001c-2.323,0.008-3.252,0.93-3.254,3.241
			c-0.005,7.575,0.084,15.151-0.045,22.724c-0.037,2.154,0.89,2.657,2.711,2.642c3.824-0.03,7.649,0.024,11.472-0.037
			C18.406,187.448,19.386,187.136,20.184,186.993z M45.613,173.351c0-4.185-0.001-8.371,0.001-12.556
			c0.001-1.477-0.541-2.369-2.208-2.283c-3.199,0.165-6.404,0.403-9.603,0.358c-2.708-0.038-3.146,0.185-3.151,2.952
			c-0.014,7.857,0.025,15.714-0.028,23.571c-0.01,1.501,0.477,2.145,2.011,2.126c3.671-0.046,7.343-0.06,11.013,0.019
			c1.554,0.033,2.026-0.553,1.994-2.07C45.556,181.429,45.613,177.39,45.613,173.351z M95.536,188.076
			c-0.001,0.139-0.001,0.279-0.002,0.418c-2.206,0-4.412-0.026-6.618,0.007c-2.123,0.032-2.547,0.629-2.136,2.732
			c0.166,0.847,0.398,1.744,0.277,2.571c-0.382,2.616,0.654,3.899,3.337,3.898c2.831-0.001,5.67-0.136,8.491,0.03
			c3.665,0.215,3.918,0.078,3.937-3.709c0.002-0.439,0.035-0.897-0.073-1.313c-0.536-2.067,0.887-2.724,2.369-2.851
			c2.446-0.209,4.922-0.115,7.385-0.07c3.514,0.064,7.026,0.283,10.539,0.283c4.581,0,9.163-0.244,13.742-0.195
			c2.395,0.026,3.081,1.082,2.89,3.596c-0.039,0.512-0.056,1.035,0.002,1.543c0.185,1.615,1.781,2.767,3.271,2.71
			c2.894-0.111,5.803-0.188,8.689-0.008c2.443,0.152,4.07-0.793,4.04-2.736c-0.024-1.527-0.008-3.059,0.077-4.584
			c0.078-1.39-0.401-1.932-1.883-1.945c-8.584-0.073-17.167-0.307-25.751-0.361C117.259,188.024,106.398,188.076,95.536,188.076z
			 M134.276,206.972c-10.853,0-22.116,0-33.734,0c0.398,0.938,0.724,1.496,0.871,2.098c0.37,1.515,1.092,3.113,0.876,4.559
			c-0.291,1.951,0.195,2.56,2.044,2.556c9.179-0.017,18.359-0.015,27.538,0.028c1.441,0.007,1.898-0.555,1.922-1.965
			C133.833,211.935,134.088,209.626,134.276,206.972z M59.175,162.104c0-0.003,0-0.005,0-0.008c-2.202,0-4.408,0.069-6.607-0.021
			c-1.908-0.078-2.059,0.897-2.029,2.487c0.105,5.46,0.139,10.925,0.003,16.383c-0.05,1.995,0.231,2.609,2.362,2.612
			c4.152,0.005,8.306-0.08,12.456,0.013c1.526,0.034,2.131-0.554,2.245-1.97c0.127-1.58-0.636-2.107-2.108-1.967
			c-0.655,0.062-1.323-0.032-1.981,0.015c-1.814,0.129-2.901-0.694-3.255-2.457c-0.213-1.06-0.479-2.131-0.505-3.202
			c-0.165-6.708,1.3-6.889,5.904-6.334c1.263,0.152,1.966-0.362,1.885-1.736c-0.039-0.657-0.011-1.321,0.029-1.979
			c0.079-1.287-0.44-1.89-1.793-1.853C63.581,162.148,61.377,162.104,59.175,162.104z M175.156,204.736
			c0.115-0.846,0.269-1.421,0.255-1.992c-0.026-1.033-0.152-2.064-0.237-3.096c-0.911,0.439-1.924,0.746-2.712,1.347
			c-1.431,1.093-2.859,1.175-4.15,0.053c-2.67-2.318-3.379-2.121-4.991,1.149c-1.194,2.422-2.991,4.295-5.992,4.377
			c-0.514,0.014-1.04-0.034-1.541,0.057c-1.153,0.209-1.572,0.879-0.727,1.808c1.551,1.704,1.635,3.65,1.099,5.697
			c-0.351,1.34,0.106,2.031,1.435,2.036c6.542,0.023,13.085,0.036,19.627-0.056c0.561-0.008,1.544-0.77,1.59-1.252
			c0.183-1.947,0.076-3.922,0.076-6.048c-1.406-0.131-2.555-0.304-3.707-0.331c-2.278-0.052-4.565,0.077-6.831-0.091
			c-0.641-0.048-1.759-0.921-1.718-1.319c0.073-0.712,0.742-1.523,1.386-1.965c0.536-0.368,1.393-0.338,2.111-0.359
			C171.734,204.704,173.343,204.736,175.156,204.736z M116.815,158.421c-0.261-0.818-0.267-1.69-0.669-1.95
			c-2.321-1.501-2.338-3.863-2.67-6.187c-0.059-0.414-0.998-0.998-1.535-1.003c-7.414-0.061-14.828-0.027-22.242-0.034
			c-1.645-0.002-2.625,0.804-2.842,2.386c-0.141,1.029,0.079,2.109-0.076,3.134c-0.332,2.19,0.836,3.653,3.105,3.668
			c1.982,0.013,3.964-0.012,5.946-0.013C102.725,158.42,109.618,158.421,116.815,158.421z M125.998,158.421
			c1.048,0,1.851-0.008,2.654,0.001c7.628,0.093,15.259,0.333,22.88,0.146c1.337-0.033,3.347-1.622,3.769-2.91
			c0.595-1.814,0.214-4.075-0.281-6.009c-0.094-0.368-2.653-0.1-4.074-0.143c-0.208-0.006-0.412-0.155-0.618-0.156
			c-6.235-0.04-12.469-0.084-18.704-0.072c-0.519,0.001-1.288,0.24-1.516,0.622c-1.403,2.353-2.697,4.771-3.988,7.189
			C125.967,157.379,126.048,157.794,125.998,158.421z M159.051,148.417c0.441-0.232,0.886-0.361,0.884-0.481
			c-0.032-1.641-0.037-3.297-0.332-4.898c-0.033-0.177-1.813-0.034-2.783-0.034c-0.514,0-1.029,0.02-1.543,0.02
			c-20.8-0.001-41.6-0.001-62.401-0.016c-0.792-0.001-1.638-0.368-2.364-0.186c-1.155,0.289-3.092,0.773-3.181,1.392
			c-0.289,2.03,1.617,1.374,2.677,1.375c21.388,0.032,42.776,0.018,64.163-0.011C156.347,145.575,158.465,145.524,159.051,148.417z
			 M71.24,195.974c0,4.347,0.037,8.015-0.02,11.681c-0.02,1.303,0.54,1.679,1.743,2.005c0.86,0.233,1.824,1.11,2.174,1.94
			c0.464,1.097,0.438,2.425,0.509,3.66c0.18,3.125,0.154,3.126,3.155,3.143c4.132,0.022,4.147,0.022,4.162-4.133
			c0.017-4.683,0.004-9.366,0.004-14.486c-0.84,0.351-1.56,0.45-1.969,0.86c-1.413,1.417-2.769,1.584-4.225,0.248
			c-1.25-1.147-2.401-2.4-3.633-3.567C72.71,196.918,72.17,196.627,71.24,195.974z M164.925,152.233c4.7,0,9.296,0.03,13.89-0.057
			c0.373-0.007,1.03-0.814,1.043-1.264c0.055-1.971-0.146-3.948-0.123-5.922c0.018-1.522-0.579-2.007-2.099-2.008
			c-3.497-0.003-6.994-0.262-10.491-0.258c-0.614,0.001-1.709,0.723-1.761,1.202C165.095,146.576,165.061,149.254,164.925,152.233z
			 M71.247,152.769c1.081-0.69,1.981-0.958,2.354-1.554c1.806-2.89,4.128-4.186,7.543-3.031c0.917,0.31,1.834,0.15,1.848-1.129
			c0.026-2.392,0.095-4.792-0.087-7.171c-0.045-0.586-0.974-1.559-1.517-1.573c-2.392-0.061-4.795,0.112-7.186,0.302
			c-1.439,0.115-2.874,0.594-2.922,2.325C71.175,144.663,71.247,148.393,71.247,152.769z M97.037,168.609
			c-1.396,0-2.797,0.079-4.186-0.019c-1.862-0.132-2.225,0.73-2.057,2.404c0.186,1.865,0.255,3.777,0.056,5.634
			c-0.16,1.495,0.266,2.057,1.702,2.046c1.983-0.015,3.967,0.04,5.95,0.008c4.527-0.071,4.358,0.932,4.307-4.362
			C102.754,168.583,102.765,168.583,97.037,168.609z M88.065,201.818c-0.014,0.331-0.027,0.662-0.041,0.993
			c0.803,0.066,1.605,0.188,2.408,0.188c14.255,0.011,28.511,0.01,42.766,0.007c7.422-0.001,14.843-0.003,22.265-0.021
			c1.649-0.004,1.649-0.036,1.531-1.312C134.011,201.893,111.034,201.607,88.065,201.818z M61.989,196.679
			c0,2.273,0.035,4.546-0.014,6.818c-0.026,1.221,0.452,1.764,1.685,1.676c0.73-0.052,1.587,0.216,2.166-0.086
			c0.663-0.345,1.513-1.145,1.535-1.774c0.153-4.302,0.087-8.611,0.143-12.918c0.017-1.262-0.363-1.974-1.75-1.869
			c-0.656,0.05-1.323,0.059-1.978,0.001c-1.328-0.117-1.849,0.43-1.803,1.773C62.045,192.425,61.992,194.553,61.989,196.679z
			 M71.242,193.212c1.013-0.551,1.695-0.785,2.2-1.224c1.159-1.008,2.191-2.164,3.351-3.172c1.444-1.254,2.869-1.57,4.219,0.252
			c0.264,0.357,0.972,0.494,1.479,0.503c0.184,0.003,0.534-0.661,0.543-1.028c0.038-1.515,0.123-3.057-0.123-4.537
			c-0.103-0.623-0.977-1.585-1.511-1.592c-2.687-0.035-5.376,0.225-8.067,0.318c-1.485,0.051-2.095,0.803-2.092,2.211
			C71.247,187.508,71.242,190.071,71.242,193.212z M59.82,157.096c1.798,0,3.185,0.002,4.572,0c3.16-0.006,3.149-0.006,2.856-3.251
			c-0.059-0.654-0.004-1.318,0.001-1.977c0.042-5.808-0.156-5.98-6.127-5.311c-0.073,0.008-0.175-0.024-0.215,0.014
			c-0.369,0.35-1.03,0.703-1.04,1.071C59.783,150.697,59.82,153.755,59.82,157.096z M107.288,195.014
			c-0.67,1.579-0.125,2.251,1.089,2.477c0.711,0.132,1.445,0.198,2.168,0.2c7.256,0.019,14.513-0.048,21.767,0.051
			c3.596,0.049,3.688,0.096,3.054-2.728C125.943,195.014,116.548,195.014,107.288,195.014z M51.36,155.736
			c0.12-2.375,0.305-4.506,0.309-6.638c0.003-1.544,0.155-3.284-0.492-4.568c-0.472-0.939-2.075-1.545-3.282-1.814
			c-1.312-0.292-1.351,0.934-1.392,1.927c-0.116,2.857-0.285,5.711-0.374,8.568c-0.011,0.361,0.244,0.965,0.516,1.062
			C48.229,154.837,49.855,155.283,51.36,155.736z M202.263,173.791c0.005,0,0.009,0,0.014,0c0-1.909-0.031-3.818,0.009-5.726
			c0.036-1.719-1.225-1.788-2.25-1.507c-0.781,0.214-1.954,1.088-1.965,1.686c-0.064,3.79,0.18,7.584,0.248,11.378
			c0.024,1.36,0.639,1.766,1.91,1.76c1.324-0.006,2.1-0.356,2.049-1.863C202.214,177.611,202.263,175.7,202.263,173.791z
			 M73.57,168.61c-2.772-0.017-2.735,0.071-2.436,2.883c0.183,1.718-0.122,3.482-0.106,5.225c0.005,0.59,0.263,1.654,0.508,1.685
			c1.193,0.15,2.444,0.144,3.622-0.081c0.333-0.064,0.657-1.041,0.696-1.619c0.115-1.717-0.045-3.457,0.143-5.162
			C76.26,169.148,75.915,168.624,73.57,168.61z M71.499,156.25c-0.248,2.224-0.57,3.882-0.536,5.533
			c0.01,0.507,0.972,1.393,1.534,1.424c2.786,0.15,5.585,0.119,8.376,0.038c0.704-0.02,1.741-0.274,2.004-0.758
			c0.306-0.562,0.188-1.916-0.216-2.167c-0.571-0.354-1.635-0.189-2.381,0.067c-2.204,0.755-4.955-0.198-6.211-2.054
			C73.53,157.537,72.527,157.058,71.499,156.25z M144.93,216.179c0,0.004,0,0.008,0,0.012c1.686,0,3.388,0.135,5.047-0.075
			c0.565-0.072,1.433-1.026,1.415-1.552c-0.02-0.592-0.863-1.631-1.384-1.654c-3.365-0.15-6.743-0.164-10.107,0.001
			c-0.678,0.033-1.308,1.024-1.961,1.574c0.644,0.565,1.232,1.513,1.944,1.617C141.534,216.345,143.244,216.179,144.93,216.179z
			 M182.622,137.866c0.04,2.745,0.905,3.727,2.941,3.767c1.241,0.024,2.539,0.239,3.711-0.046c1.841-0.447,3.615-1.199,5.369-1.938
			c0.284-0.12,0.479-0.868,0.403-1.266c-0.044-0.233-0.705-0.491-1.09-0.495C190.179,137.851,186.403,137.866,182.622,137.866z
			 M25.614,158.966c-0.262-0.036-0.523-0.073-0.785-0.109c-0.206,0.863-0.593,1.726-0.589,2.588
			c0.031,7.183,0.142,14.365,0.203,21.548c0.007,0.871-0.267,1.759-0.17,2.611c0.07,0.614,0.539,1.182,0.829,1.771
			c0.278-0.581,0.734-1.144,0.794-1.747c0.094-0.93-0.134-1.887-0.136-2.832c-0.014-7.044,0-14.089-0.01-21.133
			C25.75,160.764,25.662,159.865,25.614,158.966z M79.659,173.415c0,1.317-0.146,2.66,0.071,3.94
			c0.088,0.517,1.001,1.286,1.484,1.248c0.635-0.051,1.706-0.754,1.736-1.23c0.161-2.532,0.159-5.089-0.037-7.618
			c-0.043-0.56-1.101-1.448-1.682-1.44c-0.533,0.007-1.361,0.95-1.509,1.604C79.472,171.033,79.653,172.244,79.659,173.415z
			 M121.984,149.266c-4.299,0.051-4.412,0.334-3.218,3.659c0.862,2.399,2.621,1.602,3.962,1.337c1.716-0.34,2.274-1.963,2.158-3.611
			C124.731,148.463,122.985,149.463,121.984,149.266z M175.678,191.003c0.146-1.908-0.362-2.595-1.843-2.547
			c-2.346,0.076-4.701-0.057-7.043,0.075c-0.636,0.036-1.586,0.593-1.76,1.12c-0.202,0.61,0.075,1.77,0.551,2.096
			c0.426,0.292,1.541-0.026,2.118-0.419c2.478-1.688,3.139-1.67,5.553,0.256c0.496,0.396,1.329,0.72,1.877,0.578
			C175.5,192.067,175.64,191.093,175.678,191.003z M91.021,206.802c-3.059-0.367-4.171,0.482-4.283,3.228
			c-0.062,1.537-0.137,3.094,0.053,4.609c0.07,0.552,0.893,1.009,1.372,1.51c0.468-0.515,1.377-1.076,1.329-1.538
			c-0.255-2.47-0.567-4.866,1.506-6.817C91.17,207.631,91.021,207.127,91.021,206.802z M95.398,216.452
			c0.035-0.086,0.069-0.173,0.104-0.259c0.294,0,0.59-0.021,0.881,0.004c1.265,0.107,2.166-0.143,2.142-1.72
			c-0.024-1.607-1.016-1.721-2.228-1.658c-0.66,0.034-1.325-0.031-1.983,0.017c-1.385,0.102-2.229,1.586-1.338,2.615
			C93.487,216.042,94.572,216.136,95.398,216.452z M79.691,156.957c0.398-0.705,1.018-1.371,1.146-2.122
			c0.243-1.427-0.583-2.086-2.018-2.123c-1.551-0.04-1.74,0.987-1.776,2.133C76.999,156.264,77.781,156.793,79.691,156.957z
			 M154.797,60.141c2.22-0.667,1.798-2.677,2.31-4.029c0.146-0.386-0.727-1.159-1.132-1.754c-0.554,0.491-1.529,0.943-1.579,1.481
			C154.278,57.103,154.602,58.408,154.797,60.141z M78.356,196.726c0.349,0.016,0.699,0.033,1.048,0.049
			c0.502-0.64,1.275-1.216,1.447-1.935c0.327-1.368-0.48-1.928-1.874-1.904c-1.235,0.021-2.111,0.444-1.9,1.727
			C77.199,195.401,77.91,196.042,78.356,196.726z M65.76,175.15c0.874-1.056,1.794-1.822,1.668-2.083
			c-0.344-0.712-1.052-1.486-1.769-1.685c-0.396-0.11-1.524,0.865-1.55,1.391C64.079,173.367,64.913,174.005,65.76,175.15z
			 M55.735,191.294c2.124,0.445,2.781-0.135,2.58-1.434c-0.055-0.354-0.724-0.614-1.111-0.916 M161.245,180.606
			c0.209-0.007,0.419-0.015,0.628-0.022c0.211-0.512,0.609-1.036,0.574-1.531c-0.028-0.405-0.572-0.774-0.887-1.159
			c-0.373,0.402-1.008,0.78-1.047,1.211C160.47,179.58,160.977,180.103,161.245,180.606z"/>
		<path d="M219.097,78.95c-3.829,0.285-5.894-2.29-8.631-4.18c-2.682-1.852-1.241-5.191-3.69-6.67
			c-0.179-0.108-0.222-0.787-0.068-1.047c1.383-2.34,0.966-5.507,3.532-7.333c1.442-1.026,2.483-2.821,4.035-3.437
			c2.014-0.799,4.348-0.951,6.559-1.051c2.822-0.128,4.392,2.177,6.425,3.655c2.194,1.596,2.306,4.26,3.793,6.171
			c0.245,0.315,0.354,0.803,0.369,1.217c0.121,3.203-1.511,5.692-3.484,7.953c-1.142,1.309-2.399,2.674-3.894,3.471
			C222.587,78.477,220.761,78.561,219.097,78.95z M211.621,66.702c-0.792,4.616,3.881,7.939,8.32,8.197
			c2.922,0.17,6.537-4.341,6.525-8.051c-0.013-3.863-3.584-7.631-7.255-7.654C215.103,59.17,211.65,62.584,211.621,66.702z"/>
		<path d="M202.776,22.796c-0.043,2.453-1.025,2.922-2.944,1.985c-1.725-0.843-2.719-1.879-2.531-3.971
			c0.061-0.683-0.85-1.403-1.116-2.175c-0.403-1.17-0.738-2.391-0.843-3.613c-0.021-0.244,1.308-0.99,1.691-0.812
			c1.249,0.582,2.988,1.26,3.36,2.316c0.608,1.725,0.429,3.679,2.229,4.923C202.927,21.659,202.756,22.556,202.776,22.796z"/>
		<path d="M242.792,117.674c-0.369,0.597-0.687,1.741-1.309,1.942c-0.635,0.205-1.862-0.291-2.312-0.878
			c-0.88-1.147-1.396-2.572-2.069-3.879c-0.286-0.555-0.479-1.213-0.903-1.632c-1.131-1.117-1.196-2.378-0.381-3.545
			c0.395-0.566,1.363-1.078,2.032-1.033c1.448,0.098,2.126,1.13,2.499,2.58c0.342,1.331,1.192,2.524,1.73,3.815
			C242.378,115.757,242.495,116.546,242.792,117.674z"/>
		<path d="M167.795,90.725c-0.302-0.55-0.888-1.325-1.147-2.197c-0.158-0.53,0.011-1.613,0.337-1.757
			c2.47-1.086,4.969-2.157,7.552-2.917c1.768-0.52,2.28,0.774,2.171,2.324c-0.019,0.276-0.085,0.68-0.27,0.792
			c-1.499,0.905-2.985,1.857-4.571,2.585C170.74,90.072,169.462,90.262,167.795,90.725z"/>
		<path d="M269.912,43.102c0.564,0.604,0.975,1.002,1.337,1.441c1.157,1.401,0.632,2.645-1.13,3.188
			c-1.082,0.334-1.997,1.204-3.079,1.539c-1.486,0.46-3.052,0.75-4.601,0.856c-0.322,0.022-1.027-1.09-1.004-1.657
			c0.026-0.635,0.53-1.524,1.084-1.818C264.888,45.391,267.352,44.309,269.912,43.102z"/>
		<path d="M92.099,78.611c-6.235,1.123-11.619-6.645-11.692-11.214c-0.112-7.058,5.925-12.194,11.931-12.31
			c5.308-0.103,12.223,5.93,11.733,11.721C103.47,73.922,99.257,78.616,92.099,78.611z M92.598,59.171
			c-3.685-0.011-8.052,4.069-8.123,7.59c-0.068,3.352,4.506,8.296,7.598,8.215c3.561-0.094,8.132-4.657,8.209-8.193
			C100.346,63.86,95.622,59.18,92.598,59.171z"/>
		<path d="M41.212,64.399c0.879,0,1.774,0.104,2.635-0.021c2.08-0.3,2.541,1.057,2.634,2.599c0.098,1.631-0.87,2.695-2.468,2.722
			c-2.203,0.037-4.411-0.31-6.616-0.297c-1.783,0.01-2.034-0.907-1.971-2.364c0.066-1.534,0.664-2.515,2.27-2.602
			c1.169-0.064,2.344-0.012,3.516-0.012C41.212,64.415,41.212,64.407,41.212,64.399z"/>
		<path d="M144.739,69.704c-1.417,0-2.846,0.114-4.248-0.032c-1.377-0.144-2.423-0.68-2.285-2.491
			c0.117-1.546,0.261-2.785,2.201-2.776c1.973,0.009,3.946,0.013,5.919-0.017c1.373-0.02,2.517,0.254,2.604,1.912
			c0.08,1.526,0.371,3.21-2.052,3.194c-0.705-0.005-1.412,0.238-2.118,0.368C144.752,69.809,144.746,69.756,144.739,69.704z"/>
		<path d="M89.723,15.878c0-1.096,0.082-2.2-0.02-3.286c-0.137-1.473,0.615-2.228,1.907-2.406c1.346-0.185,2.901-0.04,3.011,1.662
			c0.176,2.711,0.112,5.457-0.154,8.159c-0.046,0.471-1.648,1.193-2.424,1.077c-0.84-0.126-1.934-0.954-2.227-1.734
			C89.433,18.325,89.723,17.047,89.723,15.878z"/>
		<path d="M94.672,118.557c0,0.95-0.109,1.914,0.022,2.845c0.285,2.023-1.246,2.425-2.516,2.445
			c-1.266,0.02-2.537-0.597-2.469-2.393c0.079-2.115,0.02-4.236,0.011-6.354c-0.009-1.935,1.232-2.143,2.783-2.192
			c1.591-0.05,2.31,0.51,2.203,2.144c-0.076,1.164-0.015,2.336-0.015,3.505C94.684,118.557,94.678,118.557,94.672,118.557z"/>
		<path d="M219.056,61.751c2.533,0.008,5.794,3.169,5.745,5.568c-0.04,2.003-3.819,5.163-6.07,5.076
			c-2.483-0.095-5.009-2.821-5.039-5.437C213.662,64.25,216.245,61.741,219.056,61.751z M220.657,67.24
			c-0.679-0.778-1.117-1.28-1.555-1.782c-0.397,0.425-1.132,0.869-1.11,1.272c0.03,0.56,0.627,1.089,0.981,1.632
			C219.445,68.046,219.919,67.731,220.657,67.24z"/>
		<path d="M92.018,72.051c-2.91-0.004-4.889-1.976-4.933-4.914c-0.049-3.233,2.087-5.39,5.315-5.368
			c3.051,0.021,5.262,2.352,5.227,5.51C97.593,70.257,95.478,72.056,92.018,72.051z M92.241,65.144
			c-0.571,0.927-1.161,1.478-1.055,1.806c0.172,0.536,0.797,0.926,1.232,1.378c0.406-0.411,1.144-0.832,1.133-1.232
			C93.537,66.586,92.918,66.092,92.241,65.144z"/>
	</g>
</g>
</svg>
