<?xml version="1.0" encoding="utf-8"?>
<!-- Generator: Adobe Illustrator 17.0.0, SVG Export Plug-In . SVG Version: 6.00 Build 0)  -->
<!DOCTYPE svg PUBLIC "-//W3C//DTD SVG 1.1//EN" "http://www.w3.org/Graphics/SVG/1.1/DTD/svg11.dtd">
<svg version="1.1" id="Layer_1" zoomAndPan="disable"
	 xmlns="http://www.w3.org/2000/svg" xmlns:xlink="http://www.w3.org/1999/xlink" x="0px" y="0px" width="16px" height="16px"
	 viewBox="0 0 16 16" enable-background="new 0 0 16 16" xml:space="preserve">
<g id="if0OF3_1_">
	<g>
		<path stroke="#000000" stroke-width="0.3" stroke-miterlimit="10" d="M15.776,6.842c0,2.292,0,4.584,0,6.877
			c-0.365,1.002-1.058,1.676-2.051,2.051c-3.338,0-6.676,0-10.013,0c-0.044-0.036-0.081-0.087-0.132-0.107
			c-1.364-0.546-1.917-1.349-1.919-2.801c-0.002-1.889,0.028-3.778-0.017-5.666C1.63,6.593,1.419,5.995,1.299,5.395
			c0-0.322,0-0.643,0-0.965c0.372-1.044,1.145-1.566,2.204-1.792c0.957-0.204,1.896-0.489,2.84-0.749
			c2.019-0.557,4.037-1.121,6.055-1.682c0.322,0,0.643,0,0.965,0c1.578,0.54,1.694,1.971,2.036,3.331
			C11.432,4.613,7.483,5.683,3.534,6.752c0.005,0.03,0.011,0.06,0.016,0.09C7.625,6.842,11.701,6.842,15.776,6.842z M2.156,7.354
			c0,1.885-0.004,3.709,0.001,5.532c0.004,1.507,0.887,2.387,2.404,2.39c2.771,0.005,5.542,0.005,8.314,0
			c1.517-0.003,2.4-0.883,2.405-2.389c0.005-1.647,0.001-3.293,0.001-4.94c0-0.191,0-0.383,0-0.593
			C10.875,7.354,6.562,7.354,2.156,7.354z M5.35,2.659C4.381,2.945,3.524,3.142,2.713,3.456C2.077,3.702,1.768,4.293,1.814,4.96
			c0.038,0.54,0.233,1.069,0.363,1.621c0.42-0.11,0.758-0.172,1.074-0.291C3.478,6.205,3.779,6.094,3.87,5.908
			C4.372,4.888,4.818,3.842,5.35,2.659z M7.74,5.085c0.853-0.231,1.566-0.417,2.274-0.622c0.121-0.035,0.271-0.126,0.32-0.232
			c0.492-1.06,0.967-2.129,1.491-3.295c-0.837,0.224-1.554,0.402-2.26,0.614C9.415,1.595,9.25,1.741,9.184,1.883
			C8.709,2.899,8.259,3.926,7.74,5.085z M4.525,5.95c0.858-0.234,1.606-0.434,2.35-0.648c0.081-0.023,0.162-0.123,0.2-0.207
			c0.478-1.05,0.948-2.104,1.471-3.27c-0.837,0.221-1.552,0.401-2.26,0.606C6.171,2.464,6.048,2.589,5.996,2.702
			C5.516,3.738,5.052,4.781,4.525,5.95z M14.798,3.182c-0.132-0.49-0.223-0.901-0.353-1.299c-0.22-0.674-0.709-1.062-1.401-1.149
			c-0.174-0.022-0.476,0.08-0.541,0.212c-0.505,1.036-0.967,2.093-1.492,3.257C12.334,3.846,13.54,3.521,14.798,3.182z"/>
	</g>
</g>
</svg>
