<?xml version="1.0" encoding="utf-8"?>
<!-- Generator: Adobe Illustrator 18.1.1, SVG Export Plug-In . SVG Version: 6.00 Build 0)  -->
<svg version="1.1" id="Layer_1" xmlns="http://www.w3.org/2000/svg" xmlns:xlink="http://www.w3.org/1999/xlink" x="0px" y="0px"
	 viewBox="3096 -1304.6 6803.1 3401.6" enable-background="new 3096 -1304.6 6803.1 3401.6" xml:space="preserve">
<g id="FgCdop_1_">
	<g>
		<path fill="#FFFFFF" d="M9656.4-195.7c7.8,2.8,13.7,5,19.7,7c41.8,13.6,73.2,40.1,95.9,77.3c15.3,25.1,22.1,51.6,6.1,78.6
			c-16.6,27.8-44.3,32.6-74,32.8c-41.9,0.3-83.8,1.7-125.7,2.7c-16,0.4-25.8,7.6-34.3,22.4c-97.9,171.5-196.6,342.5-279,522.3
			c-25.7,56.2-45.2,114.3-44.2,176.9c0.3,19,4.3,38.6,10.6,56.6c9.3,26.7,28.8,37,55.1,27.6c22-7.9,43.9-19.4,62.3-33.8
			c63.9-50.3,109.2-116.6,150.5-185.5c18.2-30.4,33.5-62.6,51.3-93.3c15.3-26.4,38-43.4,69.9-39.1c32.2,4.3,48.6,27.1,56.4,56.6
			c3.1,11.7,4.4,24.1,4.9,36.3c1.6,37-8.3,72.1-23.9,104.8c-63.6,133.4-159.9,235.1-299.7,287.4c-100.2,37.5-196.3,25.8-276.8-51.7
			c-18.8-18.1-33.3-40.6-50.2-61.6c-47,45.8-99.6,84.9-161.5,110.2c-70.5,28.9-142.6,35-216,13.2c-66.4-19.7-111.5-62.8-134.3-128.5
			c-1.3-3.6-2.4-7.4-3.8-10.9c-0.4-1.1-1.8-1.7-1.8-1.8c-29.7,24.8-58.3,50.9-89.2,74.1c-49.7,37.3-104.9,63.9-167.5,70.6
			c-77.1,8.1-167.9-13.1-213.6-121.2c-5.9,4.2-11.3,8.1-16.8,11.9c-109.5,76.4-229.1,119.7-364.5,114
			c-165.2-6.9-293.2-123.8-314.6-287.8c-13.4-102.6,3-201,42.4-295.5c60.2-144.3,146.8-269.6,272.6-365.1
			c53-40.2,111-70.8,177.8-81.2c50-7.8,98.7-3.1,141,26.8c30.9,21.9,61.9,44.9,88.3,71.9c64.4,66,82.4,144.5,51.1,232
			c-13.7,38.2-30.6,75.2-46.4,112.6c-15.6,36.8-32.3,73.2-47.6,110.1c-19,45.8-53.3,59.9-98.2,39.3
			c-73.3-33.6-111.3-112.1-98.6-200.4c7.7-53.2,28.3-101.7,50.2-149.9c6-13.3,12.1-26.7,15.3-42.6c-9.3,7.2-19.1,13.7-27.7,21.7
			c-135.2,126.6-228.2,277.4-262.2,461.4c-8,43.5-8.1,87.5,5.8,130.3c15.3,47.4,42.7,66.8,92.6,64.7c51.4-2.1,98.6-19,142.9-44.3
			c84.6-48.3,150.3-117.2,209.2-193.4c2.7-3.5,4.3-7.9,5.8-12.1c72.8-201.9,179.7-385.6,300.7-561.7c8-11.7,16-23.5,24.6-34.8
			c37.3-48.6,102.1-45.6,134.5,6.6c40.2,64.8,44.7,135.1,21.1,205.1c-16.7,49.7-39.2,98.5-66.2,143.4
			c-64.6,107.4-127.7,215.5-176.1,331.3c-14.3,34.2-22.8,71-32.1,107c-3.2,12.3-0.5,26.2-0.5,39.4c2.6,1.6,5.2,3.2,7.8,4.8
			c18.7-10.3,40.6-17.3,55.5-31.6c39-37.4,78.4-75.4,111.5-117.9C8546.9,515.9,8629.1,367.2,8712,219
			c47.5-85,97.4-168.7,146.7-252.7c6.1-10.4,14.6-19.8,23.4-28.3c33.3-32.3,74.9-30,104.8,5.8c28.5,34.1,39.9,74.7,43.2,118
			c5.5,71.6-10.5,139.1-44.9,201.3c-51.8,93.8-106.5,185.9-159.2,279.2c-32.4,57.3-64.9,114.8-80.1,179.7
			c-4.6,19.8-5.6,40.8-6.1,61.3c-0.5,16.5,9.4,25.7,26.3,21.8c13.6-3.2,28.8-6.3,39.3-14.5c29.8-23.4,61.8-46,85.1-75.2
			c43-53.8,81.2-111.5,119.6-168.8c9.7-14.5,11.5-34.1,18.9-50.4c47-103.3,93.8-206.7,142.4-309.2c26.4-55.9,56.2-110.2,84.8-165.8
			c-18.6-7.8-36.7-14.3-53.7-22.7c-28.9-14.2-53.4-33.8-69.3-62.7c-27.5-50,0.1-98.7,57.3-100.8c53.5-2.1,107.1-4.3,160.6-5.7
			c12.1-0.3,17.7-6.3,23.5-15.9c50.4-83.4,101-166.6,152.5-249.3c18.2-29.3,43.1-51.7,81-45.4c37.9,6.3,52.3,36,62.4,69
			c19.6,64.3,13.2,127.6-5.6,190.6C9662.5-213.9,9659.8-206,9656.4-195.7z"/>
		<path fill="#FFFFFF" d="M9895,782.7c-0.4,79.5-52.2,154.4-122.5,178c-67.8,22.7-130.3-10.5-149.3-79.2
			c-24.1-87.2,33-193.7,118.6-221.2c76.8-24.7,148.4,24.3,153.1,105C9895.3,771.1,9895,776.9,9895,782.7z"/>
	</g>
</g>
<g>
	<path fill="#FFFFFF" d="M7672.2-1131.7c9.8,33.2,19.5,66.2,29.2,99.1c0.2,0,0.4,0,0.7,0c1.6-4.5,2.7-9.2,4-13.8
		c1.4-4.8,2.7-9.5,4-14.3c1.3-4.7,2.6-9.4,3.9-14.1c1.3-4.8,2.7-9.5,4-14.3c1.3-4.7,2.6-9.4,3.9-14.1c1.3-4.8,2.6-9.5,4-14.3
		c1.3-4.7,2.6-9.4,3.9-14.1c4.9,0,9.5,0,14.6,0c-11.7,39.9-23.4,79.6-35,119.3c-5.1,0-10,0-15.2,0c-9.9-33.7-19.6-67.5-29.5-101.2
		c-0.2,0-0.4,0-0.6,0.1c-0.3,1-0.7,1.9-1,2.9c-9.3,31.8-18.7,63.6-28,95.4c-0.1,0.5-0.3,0.9-0.4,1.4c-0.2,1.1-0.8,1.6-2,1.6
		c-4.5,0-8.9,0-13.7,0c-3.1-9.9-5.9-19.9-8.8-29.8c-2.9-10-5.8-19.9-8.7-29.9c-2.9-9.9-5.8-19.8-8.7-29.7
		c-2.9-9.9-5.9-19.8-8.7-30.1c5.2,0,10.1,0,15.3,0c9.1,32.9,18,65.9,27.1,99c1.3-0.3,1.2-1.4,1.4-2.1c2-6.6,3.9-13.2,5.8-19.8
		c7.3-24.7,14.6-49.5,22-74.2c0.2-0.5,0.4-1.1,0.5-1.6c0.2-1,0.7-1.5,1.8-1.5C7662.5-1131.6,7667.2-1131.7,7672.2-1131.7z"/>
	<path fill="#FFFFFF" d="M8231.3-1012.1c-4.8,0-9.1,0-13.3,0c-0.2-0.2-0.2-0.2-0.3-0.3c-0.1-0.1-0.1-0.1-0.1-0.2
		c-0.1-0.6-0.2-1.3-0.2-1.9c0-38.7,0-77.4,0-116.1c0-0.2,0.1-0.4,0.3-0.9c0.6-0.1,1.3-0.2,2-0.2c4.3,0,8.6,0.1,13,0
		c1.7,0,2.7,0.6,3.7,2c12.2,17.6,24.5,35.2,36.8,52.7c9.9,14.2,19.9,28.5,29.8,42.7c0.5,0.7,1,1.4,1.5,2c0.3-0.1,0.4-0.1,0.5-0.2
		c0.1,0,0.1-0.1,0.1-0.2c0-0.2,0.1-0.3,0.1-0.5c0-0.2,0-0.5,0-0.7c0-32.2,0-64.5,0-96.7c0-0.2,0-0.3,0.1-0.5c0-0.1,0.1-0.1,0.2-0.5
		c4.3-0.2,8.7-0.2,13.3,0c0,39.8,0,79.5,0,119.4c-0.9,0.1-1.7,0.1-2.5,0.1c-4.2,0-8.3-0.1-12.5,0.1c-1.8,0.1-2.9-0.6-3.9-2
		c-10-14.5-20.1-28.9-30.2-43.3c-12.1-17.3-24.2-34.6-36.2-51.9c-0.5-0.7-1-1.3-1.8-1.9c-0.6,5.6-0.3,11-0.4,16.5
		c0,5.4,0,10.9,0,16.3c0,5.5,0,11,0,16.6c0,5.5,0,11,0,16.6c0,5.4,0,10.9,0,16.3C8231.3-1023.4,8231.3-1017.9,8231.3-1012.1z"/>
	<path fill="#FFFFFF" d="M7936-1118.9c-3.4,3.6-6.8,7.1-10.2,10.7c-0.5-0.4-0.9-0.6-1.3-1c-7.7-7.4-16.9-11.4-27.4-12.3
		c-14.3-1.2-26.9,2.8-37.5,12.6c-7.4,6.8-11.9,15.4-13.9,25.2c-2.2,10.7-1.7,21.4,2.4,31.6c6.6,16.4,18.9,26,36.1,29.2
		c13.2,2.5,25.9,0,38.1-5.2c1.3-0.5,1.9-1.2,1.9-2.7c0-11.1,0-22.2,0-33.4c0-0.5-0.1-0.9-0.2-1.7c-0.9-0.1-1.9-0.2-2.8-0.2
		c-7.1,0-14.2,0-21.4,0c-0.9,0-1.9,0-2.8,0c-0.6-1.9-0.7-9.8-0.2-12.7c13.6,0,27.2,0,41,0c0.1,0.8,0.2,1.5,0.2,2.2
		c0,18.1,0,36.2,0,54.2c0,1.6-0.5,2.4-1.9,3.2c-9,4.6-18.6,7.6-28.7,9c-6.1,0.9-12.3,1.2-18.4,0.9c-10-0.6-19.6-2.8-28.5-7.6
		c-12.9-7-22-17.4-27-31.2c-5.2-14.5-5.7-29.3-1.1-44c6.5-20.3,20.5-33.3,40.7-39.6c9.3-2.9,19-3.6,28.7-2.6
		c9.4,1,18.2,3.5,26.1,8.7C7931-1123.7,7933.6-1121.7,7936-1118.9z"/>
	<path fill="#FFFFFF" d="M8548.5-1131.5c24.8,0,49.5,0,74.1,0c0.6,1.8,0.7,10,0.1,12.7c-4.9,0.2-9.9,0.1-14.9,0.1
		c-5,0-10.1,0-15.1,0s-10.1,0-15.1,0c-5,0-10.1,0-15,0c-0.7,2.1-0.8,35.3-0.1,38c18.7,0,37.4,0,56.3,0c0,4.3,0,8.4,0,12.7
		c-1.2,0.1-2.3,0.2-3.3,0.2c-16.6,0-33.1,0-49.7,0c-1.1,0-2.2,0-3.2,0c-0.7,2-0.8,39.8-0.2,42.8c1,0.1,2.1,0.2,3.2,0.2
		c19,0,37.9,0,56.9,0c1.1,0,2.2,0,3.5,0c0,4.4,0,8.4,0,12.5c0,0-0.1,0.1-0.1,0.1c-0.1,0.1-0.1,0.1-0.2,0.1c-0.3,0.1-0.6,0.1-0.9,0.1
		c-25,0-50.1,0-75.1,0c-0.3,0-0.6-0.1-0.9-0.1c-0.1-0.1-0.2-0.2-0.2-0.2c-0.1-0.1-0.1-0.1-0.1-0.2c-0.1-0.6-0.2-1.1-0.2-1.7
		c0-38.8,0-77.6,0-116.4C8548.2-1130.8,8548.3-1131.1,8548.5-1131.5z"/>
	<path fill="#FFFFFF" d="M9414.5-1071.9c0,10.8-1,21.4-4.1,31.7c-1.7,5.7-4.1,11.1-7.6,15.9c-6.3,8.7-14.8,13.4-25.5,14.1
		c-6.5,0.5-12.9-0.3-18.9-3.2c-8.2-3.9-13.5-10.5-17.3-18.5c-3.5-7.5-5.3-15.4-6.3-23.5c-1-8-1.2-16.1-0.8-24.2
		c0.5-10.3,2.1-20.3,6.1-29.9c2.3-5.5,5.3-10.6,9.6-14.8c5.6-5.5,12.4-8.4,20.1-9.2c8-0.8,15.6,0.3,22.7,4.3
		c5.8,3.4,10.1,8.3,13.3,14.2c3.7,6.7,5.8,14,7.1,21.5C9414-1086.3,9414.5-1079.1,9414.5-1071.9z M9400.6-1071.8
		c0.1-9.2-0.6-18.4-3-27.3c-1.6-5.9-3.9-11.5-8.1-16.1c-7.8-8.5-21.7-8.8-30-0.8c-2.9,2.8-5,6.2-6.6,9.9c-3,7.1-4.3,14.5-4.9,22.1
		c-0.7,7.8-0.7,15.6,0,23.5c0.5,6.4,1.5,12.7,3.4,18.8c1.5,4.6,3.5,8.9,6.7,12.6c8.5,9.7,23.8,9.6,32.1-0.2
		c3.8-4.4,5.9-9.7,7.4-15.2C9400-1053.4,9400.7-1062.6,9400.6-1071.8z"/>
	<path fill="#FFFFFF" d="M8716.1-1025.5c3.9-3.2,7.8-6.4,11.7-9.6c0.4,0.4,0.7,0.6,0.9,0.9c4.5,6.6,10.9,10.2,18.6,11.6
		c7.8,1.5,15.3,0.4,22.2-3.6c5.6-3.2,9.5-7.9,10.2-14.6c0.9-8.2-1.8-14-8.5-17.9c-4.7-2.7-9.8-4.4-14.8-6.2
		c-6.2-2.2-12.4-4.3-18.4-6.7c-3.9-1.5-7.3-3.9-10.4-6.7c-4.7-4.3-7.5-9.8-8.3-16.1c-0.9-6.9-0.5-13.7,2.5-20.2
		c4-8.3,10.6-13.6,19.1-16.9c7.9-3,16.1-3.8,24.5-3c6.4,0.6,12.4,2.2,17.9,5.5c3.3,1.9,6.1,4.4,8.6,7.2c0.2,0.2,0.3,0.5,0.6,1
		c-3.7,3.2-7.3,6.4-11.4,10c-0.3-0.5-0.5-0.9-0.7-1.3c-4-5.4-9.5-8.2-15.9-9.3c-6-1-12-0.3-17.7,1.8c-6,2.3-10.5,6.1-12.3,12.5
		c-1.1,3.6-1.1,7.3-0.2,10.9c1,3.8,3.3,6.9,6.6,8.8c3.4,2,7,3.9,10.7,5.3c4.7,1.9,9.5,3.3,14.3,4.9c5.5,1.9,10.9,4.1,15.9,7.3
		c8.5,5.6,12.6,13.5,13,23.6c0.2,5.7-0.4,11.3-2.9,16.6c-3.5,7.5-9.4,12.7-16.8,16c-9,4.1-18.6,5.1-28.4,4.2
		c-5.9-0.6-11.5-2-16.8-4.5c-4.6-2.2-8.6-5.2-11.9-9.1C8717.3-1023.7,8716.8-1024.5,8716.1-1025.5z"/>
	<path fill="#FFFFFF" d="M9181.9-1025c6.7,0,13.4,0,20.1,0c6.6,0,13.3,0,19.9,0c6.7,0,13.4,0,20.5,0c0.1,4.4,0,8.5,0,12.9
		c-25.6,0-51,0-76.4,0c-0.1-0.9-0.2-1.4-0.2-2c0-4.2,0-8.3,0-12.5c0-1.2,0.4-2.1,1.2-3c11.9-11.6,23.9-23.2,35.8-34.8
		c5.3-5.1,10.5-10.3,15.6-15.6c1.9-2,3.6-4.3,5.1-6.6c3.5-5.4,5-11.4,4-17.8c-1.2-8.3-6.1-13.8-14.1-16.2
		c-8.4-2.6-16.3-1.4-23.1,4.5c-3.4,3-5.5,6.8-6.7,11.1c-0.2,0.5-0.3,1.1-0.5,1.6c0,0.1-0.2,0.3-0.4,0.7c-4.7-0.4-9.5-0.8-14.6-1.3
		c0.1-1,0.2-1.9,0.4-2.7c3.5-14.2,12.6-22.9,26.8-25.9c9.9-2.1,19.6-1.5,28.8,3c12.1,5.8,17.5,15.8,17.5,29
		c0,11.2-4.3,20.8-11.8,28.8c-5.4,5.9-11.2,11.4-17,16.9c-9.8,9.3-19.7,18.5-29.5,27.8c-0.5,0.5-1,1-1.4,1.5
		C9181.8-1025.4,9181.9-1025.2,9181.9-1025z"/>
	<path fill="#FFFFFF" d="M9675.9-1031.7c4.3-1.6,8.7-3.3,13.3-5.1c0.7,1.1,1.3,2.1,1.9,3.1c5.3,8.2,12.8,12.4,22.6,11.8
		c11.7-0.8,20.8-9,23.2-20.5c1.3-6.1,1.1-12.1-1.2-17.9c-3.3-8.3-9.7-13.1-18.1-15.4c-9.7-2.6-19-0.9-28,3.1
		c-1.9,0.8-3.7,1.8-5.9,2.9c0.4-20.7,0.8-41.1,1.2-61.4c2-0.6,59.1-0.7,62.4-0.2c0,2,0,4,0,6.1c0,2,0,4,0,6.3
		c-1.2,0.1-2.3,0.3-3.3,0.3c-14,0-28,0-42,0c-1.1,0-2.2,0.1-3.5,0.2c-0.2,10.8-0.4,21.4-0.6,32.4c1-0.3,1.7-0.5,2.4-0.7
		c10-3,19.9-2.8,29.5,1.4c8.2,3.5,14.2,9.5,17.8,17.6c4.7,10.4,5.3,21.2,1.6,32c-4.7,13.7-14.6,21.6-28.5,24.8
		c-8.3,1.9-16.7,1.6-24.8-1.2c-9.4-3.2-15.7-9.8-20.1-18.5c-0.1-0.1-0.1-0.3-0.2-0.5C9675.8-1031.3,9675.8-1031.4,9675.9-1031.7z"/>
	<path fill="#FFFFFF" d="M8070.9-1118.5c-1.3-0.1-2.4-0.2-3.5-0.2c-10.4,0-20.8,0-31.2,0c-0.6,0-1.3,0-1.9,0c-2.9,0-2.9,0-2.9-3
		c0-2.4,0-4.8,0-7.2c0-0.8,0.1-1.6,0.1-2.3c1.9-0.5,88.6-0.7,92.4-0.3c0.6,1.6,0.8,9.4,0.2,12.5c-0.9,0.1-1.9,0.2-2.9,0.2
		c-11,0-21.9,0-32.9,0c-1.1,0-2.2,0.1-3.5,0.2c0,35.5,0,70.8,0,106.3c-4.7,0-9.1,0-13.8,0C8070.9-1047.7,8070.9-1083,8070.9-1118.5z
		"/>
	<path fill="#FFFFFF" d="M8935.1-1118.6c0,35.6,0,70.8,0,106.3c-4.6,0.4-9,0.2-13.7,0.2c-0.4-4.6-0.1-9-0.2-13.3c0-4.5,0-9,0-13.4
		c0-4.4,0-8.8,0-13.2c0-4.4,0-8.8,0-13.2c0-4.4,0-8.8,0-13.2c0-4.5,0-9,0-13.4c0-4.4,0-8.8,0-13.2c0-4.4,0-8.8,0-13.4
		c-1.2-0.1-2.2-0.2-3.2-0.2c-11,0-22.1,0-33.1,0c-1,0-2-0.1-3.2-0.2c0-4.3,0-8.3,0-12.3c1.9-0.5,90.3-0.6,92.7,0c0,4,0,8,0,12.3
		c-1.1,0.1-2.1,0.2-3.1,0.2c-10.9,0-21.8,0-32.6,0C8937.7-1118.7,8936.6-1118.6,8935.1-1118.6z"/>
	<path fill="#FFFFFF" d="M9543.5-1113.5c-3.6,2.9-7,5.9-10.6,8.8c-3.5,3-7.1,5.9-10.8,9.1c-2.8-3.4-5.5-6.7-8.2-10
		c0.6-0.5,1-1,1.5-1.4c9.6-7.8,19.1-15.5,28.7-23.3c1.3-1,2.5-1.5,4.1-1.5c3.1,0.1,6.2,0,9.2,0c0.7,2.1,0.8,116.9,0.1,119.5
		c-4.3,0-8.7,0-13.3,0c-0.1-1-0.2-1.9-0.2-2.8c0-11.3,0-22.5,0-33.8c0-20.5,0-41.1,0-61.6c0-0.9-0.1-1.8-0.1-2.7
		C9543.9-1113.3,9543.7-1113.4,9543.5-1113.5z"/>
	<path fill="#FFFFFF" d="M9057.4-1031c5.6,0,9.9,4.2,10,9.8c0.1,5.5-4.5,10.2-10,10.2c-5.3,0-9.9-4.7-9.9-10
		C9047.5-1026.6,9051.9-1031,9057.4-1031z"/>
</g>
<g>
	<path fill="#FFFFFF" d="M9528,1665.2c-0.5-5.3-0.5-183.8,0-187.9c0.8-0.2,1.7-0.7,2.5-0.7c9.3,0,18.6,0,27.8,0
		c0.6,0,1.2,0.2,2.1,0.4c0.8,1.7,1.6,3.4,2.4,5.1c19.8,45.8,39.6,91.5,59.4,137.3c0.8,1.7,1.2,3.6,2.6,5c1.7,0,1.9-1.3,2.3-2.2
		c3.1-7,6.1-14.1,9.2-21.1c17.2-39.6,34.5-79.1,51.7-118.7c0.8-1.7,1.6-3.5,2.5-5.3c3.6-0.9,7.1-0.4,10.5-0.5c3.5-0.1,7-0.1,10.6,0
		c3.5,0,7-0.3,10.5,0.3c0.3,1.1,0.6,1.8,0.6,2.6c0.1,1.3,0.1,2.6,0.1,3.8c0,58.5,0,117.1,0,175.6c0,2,0.4,4.1-0.6,6
		c-4.3,0.9-17.1,0.8-20.6-0.1c-0.9-1.4-0.6-3.1-0.6-4.6c0-4.8,0-9.6,0-14.4c0-43.8,0-87.7,0-131.5c0-1.8,0-3.5-0.1-5.3
		c0-0.5-0.4-1.1-0.7-1.7c-1.8,1.2-2.1,3.1-2.8,4.6c-7.7,17.9-15.4,35.8-23,53.8c-13.4,31.4-26.9,62.9-40.3,94.3
		c-0.7,1.7-1.6,3.5-2.4,5.2c-4.4,0.4-8.5,0.4-12.5,0.1c-1.6-1.3-2-3.1-2.7-4.7c-11.7-27.3-23.4-54.7-35.1-82
		c-9.6-22.3-19.1-44.7-28.7-67c-0.6-1.4-1.3-2.8-1.9-4.1c-1.2,0-1.4,0.5-1.5,1.2c0,1.6-0.1,3.2-0.1,4.8c0,48.3,0,96.6,0,144.9
		c0,2.1,0,4.1,0,6.3c-3.7,1.5-7.2,0.7-10.6,0.8C9535.2,1665.6,9531.7,1665.8,9528,1665.2z"/>
	<path fill="#FFFFFF" d="M9432.5,1954.5c-8.6,0-16.6,0-24.9,0c-0.7-1.6-1.5-3.1-2.1-4.7c-5.1-12.2-10.1-24.5-15.2-36.8
		c-0.7-1.6-1.4-3.2-2.2-4.9c-1.8-0.1-3.4-0.2-4.9-0.2c-28.3,0-56.6,0-84.9,0c-0.3,0-0.6,0-1,0c-3.2-0.4-4.9,1-6.1,4
		c-5,12.4-10.3,24.8-15.5,37.2c-0.7,1.8-1.5,3.5-2.2,5.1c-3.8,0.7-18.8,0.8-23.6,0.2c-0.9-1.4,0.1-2.5,0.6-3.5
		c4.1-9.5,8.3-19,12.5-28.5c22.3-50.6,44.6-101.2,66.9-151.7c0.6-1.5,1.3-2.9,1.9-4.2c3.9-0.6,14.4-0.7,20.4-0.3
		c1.5,0.9,1.8,2.6,2.4,4c9.3,21.7,18.5,43.5,27.8,65.3c15.9,37.5,31.9,75,47.8,112.5C9430.9,1949.9,9432,1951.8,9432.5,1954.5z
		 M9302.5,1887.6c1.1,0.1,2.2,0.3,3.2,0.3c3,0,6.1,0,9.1,0c19.7,0,39.3,0,59,0c1.7,0,3.5,0.5,5.1-0.6c0.2-2.1-0.8-3.8-1.5-5.5
		c-6.2-15.6-12.5-31.1-18.8-46.7c-4.8-12-9.6-24-14.5-36c-0.6-1.6-0.9-3.4-2.6-4.6c-1.6,1.1-2,2.9-2.6,4.5
		c-7.8,18.5-15.7,37.1-23.5,55.6c-3.9,9.3-7.9,18.5-11.7,27.8C9303,1884,9301.9,1885.5,9302.5,1887.6z"/>
	<path fill="#FFFFFF" d="M7915.5,1933.9c2.5,1,4.6,0.7,6.6,0.7c29.1,0,58.2,0,87.4,0c2.1,0,4.1,0.1,6.3,0.2c0.3,1.2,0.7,2,0.7,2.9
		c0,5.4,0.4,10.8-0.3,16.1c-2,1-3.8,0.6-5.5,0.6c-17.1,0-34.2,0-51.4,0c-20,0-40,0-60,0c-1.7,0-3.5-0.1-5.4-0.2
		c-0.2-1.2-0.4-2.1-0.5-3c-0.1-1.4,0-2.9,0-4.3c0-57.9,0-115.8,0-173.7c0-2.2,0.1-4.4,0.2-6.8c1.2-0.2,2-0.5,3-0.6
		c1.1-0.1,2.2,0,3.4,0c35,0,70.1,0,105.1,0c1.9,0,3.8,0.1,5.8,0.1c1.7,3.2,0.8,6.5,0.9,9.6c0.1,3.2,0.3,6.4-0.2,9.3
		c-1.7,1.3-3.4,0.9-4.9,0.9c-9.9,0-19.8,0-29.8,0c-18.4,0-36.8,0-55.2,0c-1.9,0-3.8-0.2-5.7,0.5c-1,1.7-0.7,3.5-0.7,5.2
		c0,11.5,0,23,0,34.6c0,5,0,9.9,0,14.9c0,1.4,0.1,2.8,0.2,4.5c1.2,0.3,2.2,0.6,3.3,0.7c1.6,0.1,3.2,0.1,4.8,0.1
		c25.1,0,50.2,0,75.4,0c2,0,4.1-0.4,6,0.7c0.8,3.8,0.9,14.5,0.1,19c-0.8,0.1-1.7,0.4-2.6,0.4c-4.8,0-9.6,0-14.4,0
		c-22.1,0-44.2,0-66.2,0c-1.9,0-3.8,0.1-5.6,0.2c-1.2,1.9-0.8,3.7-0.8,5.4c0,15.5,0,31,0,46.6c0,3.8,0,7.7,0,11.5
		C7915.3,1931.2,7915.4,1932.4,7915.5,1933.9z"/>
	<path fill="#FFFFFF" d="M8298.6,1782.8c-5.8,5.3-11.5,10.1-17.4,15.2c-0.8-0.8-1.4-1.3-1.8-1.9c-5.8-7.6-13.6-12-22.8-14
		c-10.1-2.2-20-1.2-29.7,2.3c-2.4,0.9-4.7,2-6.9,3.3c-13.8,8.1-16.8,23.2-13.1,35.3c1.5,4.8,4.3,8.6,8.2,11.5c2.7,2,5.6,3.8,8.5,5.3
		c7.1,3.7,14.7,6.2,22.3,8.7c6.5,2.2,13,4.4,19.5,6.8c5.8,2.2,11.4,5,16.6,8.5c9.8,6.7,16.4,15.6,18.9,27.3c2.1,9.9,2,19.7-0.9,29.4
		c-3.6,12-11,21.1-21.6,27.8c-8.8,5.5-18.5,8.5-28.7,10.1c-6,0.9-12.1,1.1-18.2,0.9c-10.5-0.5-20.6-2.5-30.2-6.8
		c-7.7-3.4-14.5-8.1-20-14.6c-1-1.2-1.9-2.5-2.9-3.9c2.5-3.5,6-5.5,9-8.1c2.9-2.5,5.9-4.8,9-7.4c0.7,0.8,1.3,1.4,1.8,2
		c6.1,8.6,14.5,13.9,24.5,16.7c12,3.3,23.7,2.6,35.2-2.2c5.1-2.2,9.6-5.1,13.3-9.2c8.6-9.7,9.8-20.8,5.4-32.7
		c-1.6-4.5-4.9-7.9-8.9-10.4c-3.4-2.1-6.9-4.2-10.5-5.6c-8-3.1-16.2-5.9-24.3-8.8c-6.8-2.3-13.6-4.6-20.2-7.6
		c-4.6-2.2-9.1-4.7-13.2-7.8c-10.1-7.7-15.5-18-16.8-30.6c-0.8-7.4-0.4-14.7,1.5-21.9c3.2-11.8,10.1-20.9,20.2-27.7
		c7.7-5.2,16.1-8.5,25.2-10.2c13.7-2.5,27.4-2.4,40.8,1.5c10.5,3,19.5,8.7,26.9,16.8C8297.6,1781.3,8297.9,1781.9,8298.6,1782.8z"/>
	<path fill="#FFFFFF" d="M9098.7,1766.2c6-0.7,18.9-0.6,22.4,0.3c-0.2,0.7-0.3,1.5-0.5,2.2c-6,17.2-70.8,181.7-73.2,185.7
		c-6.7,0-13.6,0-20.3,0c-2.5-4.5-53.9-138-71-184.4c-0.4-1.2-0.8-2.4-1.1-3.6c3.6-0.8,16.4-1,23.7-0.4c1.4,1.3,1.7,3.2,2.4,5
		c6.4,17.1,12.8,34.1,19.2,51.2c11.6,31,23.2,62,34.8,92.9c0.7,1.9,1.6,3.8,2.3,5.4c1.8,0.2,1.9-1,2.2-1.8
		c2.1-5.2,4.1-10.4,6.1-15.6c17-44.1,34.1-88.2,51.1-132.4C9097.3,1769.3,9098.1,1767.7,9098.7,1766.2z"/>
	<path fill="#FFFFFF" d="M8781,1580.4c-1,2.5-0.7,4.4-0.7,6.3c0,24.3,0,48.6,0,73c0,1.7,0.2,3.5-0.3,5.1c-3.3,1-15.3,1.1-20.8,0.3
		c-0.2-0.8-0.4-1.7-0.5-2.6c-0.1-1.3,0-2.6,0-3.8c0-58.2,0-116.5,0-174.7c0-2.1,0-4.1,0-6.4c1.1-0.4,1.9-0.8,2.8-0.9
		c1.4-0.2,2.9-0.1,4.3-0.1c34.2,0,68.5,0,102.7,0c2.1,0,4.2-0.3,6.1,0.5c1,3.2,1.1,14.3,0.2,19.1c-1.7,0.7-3.7,0.4-5.5,0.4
		c-26.2,0-52.5,0-78.7,0c-2.2,0-4.5,0-6.7,0c-0.9,0-1.8,0.2-3,0.3c-0.2,1.1-0.4,2-0.4,2.9c0,19,0,38.1,0,57.1c0,0.8,0.2,1.6,0.4,2.5
		c1,0.2,1.9,0.6,2.8,0.7c1.6,0.1,3.2,0.1,4.8,0.1c24.5,0,49,0,73.4,0c2.1,0,4.1,0.1,6.3,0.1c1.3,3.3,0.6,6.5,0.7,9.7
		c0.1,3.2,0,6.3-0.1,9.6c-2.1,0.9-4,0.6-5.9,0.6c-25.3,0-50.6,0-75.8,0C8785,1580.3,8783.1,1580.4,8781,1580.4z"/>
	<path fill="#FFFFFF" d="M7606.1,1766.2c1-0.1,2-0.3,2.9-0.3c15.3-0.5,108.5-0.2,112.7,0.4c1,3.1,1.1,13.9,0.2,19.1
		c-1.7,0.6-3.7,0.4-5.5,0.4c-19.8,0-39.7,0-59.5,0c-7.8,0-15.7,0-23.5,0c-1.7,0-3.5,0.1-4.8,0.2c-1.5,1.4-1.2,2.7-1.2,3.9
		c0,5.6,0,11.2,0,16.8c0,12.3,0,24.6,0,36.9c0,1.7-0.2,3.5,0.6,5.2c1.9,0.8,3.8,0.5,5.7,0.5c20.6,0,41.3,0,61.9,0
		c5.1,0,10.2,0,15.4,0c1.4,0,2.8,0.1,4.1,0.2c0.9,3.5,1.1,12.1,0.4,19c-0.8,0.2-1.7,0.6-2.6,0.6c-1.6,0.1-3.2,0.1-4.8,0.1
		c-24.6,0-49.3,0-73.9,0c-2,0-4.1-0.3-6.4,0.6c-0.2,0.9-0.4,1.8-0.5,2.7c-0.1,1.4,0,2.9,0,4.3c0,24,0,48,0,72c0,1.7,0.2,3.5-0.4,5.1
		c-4,0.8-16.3,0.8-20.9,0.1c-0.1-0.8-0.3-1.7-0.3-2.6c-0.1-1,0-1.9,0-2.9c0-58.8,0-117.7,0-176.5
		C7605.7,1770.2,7605.5,1768.3,7606.1,1766.2z"/>
	<path fill="#FFFFFF" d="M8458.9,1765.8c47.9,0,95.5,0,143.2,0c0.9,0,1.9,0.2,2.7,0.3c0.9,3.4,1,12.5,0.4,18.7
		c-1,1.2-2.3,0.9-3.5,0.9c-6.2,0-12.5,0-18.7,0c-11.4,0-22.7,0-34.1,0c-1.7,0-3.5,0.1-5.4,0.2c-0.3,1.3-0.7,2.3-0.7,3.4
		c-0.1,1.8-0.1,3.5-0.1,5.3c0,50.9,0,101.8,0,152.6c0,2.2-0.1,4.4-0.2,6.7c-3.5,1.3-6.9,0.6-10.2,0.7c-3.3,0.1-6.7,0-10.2,0
		c-0.3-1.1-0.7-2-0.8-2.9c-0.1-1.8-0.1-3.5-0.1-5.3c0-51,0-102.1,0-153.1c0-2.4,0.4-4.8-0.8-7.1c-1.9-0.9-3.8-0.6-5.7-0.6
		c-16.8,0-33.6,0-50.4,0c-1.7,0-3.5-0.1-5.1-0.1C8458.1,1782.3,8457.9,1771.5,8458.9,1765.8z"/>
	<path fill="#FFFFFF" d="M9255.1,1476.8c6.5-0.5,12.4-0.2,18.3-0.2c0.9,0,1.8,0.4,3,0.6c0.1,1.9,0.2,3.6,0.2,5.4
		c0,15.8,0,31.7,0,47.5c0,36.1,0,72.3,0,108.4c0,2-0.3,4.1,0.4,6.2c2,0.8,3.9,0.5,5.8,0.5c23,0,46.1,0,69.1,0c2.4,0,4.8,0,7.2,0
		c1.2,0,2.5,0.3,3.6,0.4c0.6,4,0.7,14.4,0.1,19.2c-0.8,0.2-1.7,0.5-2.6,0.6c-1.3,0.1-2.6,0-3.8,0c-31.7,0-63.3,0-95,0
		c-1.9,0-3.8-0.1-5.9-0.1c-0.2-1.1-0.5-2-0.6-2.9c-0.1-1.4,0-2.9,0-4.3c0-58,0-116.1,0-174.1
		C9254.9,1481.9,9255,1479.7,9255.1,1476.8z"/>
	<path fill="#FFFFFF" d="M9597.8,1766.5c4.5-0.9,16.8-0.9,21.3-0.1c0.1,0.8,0.3,1.7,0.4,2.6c0.1,1.6,0,3.2,0,4.8
		c0,51.2,0,102.4,0,153.5c0,2.1,0.1,4.1,0.1,6.3c1.1,0.4,2,0.8,2.9,0.9c1.6,0.1,3.2,0.1,4.8,0.1c24.3,0,48.6,0,72.9,0
		c1.9,0,3.8-0.3,6,0.7c0.8,4.7,0.2,9.7,0.4,14.6c0,1.4,0.3,2.9-1,4.4c-1.1,0.1-2.6,0.2-4,0.2c-45,0.4-99.5,0.1-103.4-0.5
		c-0.1-0.8-0.3-1.7-0.3-2.6c-0.1-1.1,0-2.2,0-3.4c0-58.5,0-117.1,0-175.6C9597.8,1770.6,9597.8,1768.7,9597.8,1766.5z"/>
	<path fill="#FFFFFF" d="M8772.2,1766.2c5.4-0.6,16.6-0.5,20.5,0.2c0.2,0.8,0.4,1.7,0.5,2.6c0.1,1,0.1,1.9,0.1,2.9
		c0,58.8,0,117.7,0,176.5c0,1.9,0.3,3.8-0.6,5.6c-3.6,0.8-16,0.9-20.7,0.2c-0.2-0.7-0.5-1.4-0.5-2.2c-0.1-1.1,0-2.2,0-3.4
		c0-58.8,0-117.7,0-176.5C8771.4,1770.2,8771,1768.3,8772.2,1766.2z"/>
	<path fill="#FFFFFF" d="M9067.5,1665.1c-4.8,0.7-16.6,0.6-20.6-0.1c-0.2-0.8-0.5-1.7-0.5-2.6c-0.1-1.3-0.1-2.6-0.1-3.8
		c0-58.2,0-116.4,0-174.5c0-2.2-0.4-4.5,0.6-6.7c2.1-1.2,4.4-0.7,6.6-0.7c2.4-0.1,4.8-0.1,7.2,0c2.2,0,4.5-0.3,6.8,0.5
		c0.2,0.8,0.6,1.5,0.6,2.3c0.1,1.4,0.1,2.9,0.1,4.3c0,58.3,0,116.7,0,175C9068.1,1660.7,9068.5,1662.8,9067.5,1665.1z"/>
</g>
<g>
	<line fill="#FFFFFF" x1="3194.5" y1="-896.8" x2="9787.3" y2="-896.8"/>
	<rect x="3187.5" y="-903.8" fill="#FFFFFF" width="6606.9" height="14.1"/>
</g>
</svg>
