<?xml version="1.0" encoding="utf-8"?>
<!-- Generator: Adobe Illustrator 17.0.0, SVG Export Plug-In . SVG Version: 6.00 Build 0)  -->
<!DOCTYPE svg PUBLIC "-//W3C//DTD SVG 1.1//EN" "http://www.w3.org/Graphics/SVG/1.1/DTD/svg11.dtd">
<svg version="1.1" id="Layer_1" zoomAndPan="disable"
	 xmlns="http://www.w3.org/2000/svg" xmlns:xlink="http://www.w3.org/1999/xlink" x="0px" y="0px" width="16px" height="16px"
	 viewBox="0 0 16 16" enable-background="new 0 0 16 16" xml:space="preserve">
<g id="zeD0m4_1_">
	<g>
		<path fill="#FFFFFF" d="M13.843,9.709c-0.087,0.036-0.18,0.062-0.262,0.109c-3.45,1.987-6.9,3.975-10.348,5.966
			C3.129,15.844,3.037,15.927,2.939,16c-0.028-0.042-0.08-0.084-0.08-0.126c-0.004-4.138-0.004-8.276,0-12.414
			c0-0.042,0.052-0.084,0.08-0.126c0.086,0.065,0.166,0.141,0.259,0.194c3.473,2.004,6.946,4.007,10.421,6.008
			c0.069,0.04,0.15,0.06,0.225,0.089C13.843,9.653,13.843,9.681,13.843,9.709z M13.144,9.667C9.813,7.748,6.542,5.864,3.23,3.955
			c0,3.837,0,7.596,0,11.424C6.544,13.47,9.806,11.59,13.144,9.667z"/>
	</g>
</g>
</svg>
