<?xml version="1.0" encoding="utf-8"?>
<!-- Generator: Adobe Illustrator 17.0.0, SVG Export Plug-In . SVG Version: 6.00 Build 0)  -->
<!DOCTYPE svg PUBLIC "-//W3C//DTD SVG 1.1//EN" "http://www.w3.org/Graphics/SVG/1.1/DTD/svg11.dtd">
<svg version="1.1" id="Layer_1" zoomAndPan="disable"
	 xmlns="http://www.w3.org/2000/svg" xmlns:xlink="http://www.w3.org/1999/xlink" x="0px" y="0px" width="16px" height="16px"
	 viewBox="0 0 16 16" enable-background="new 0 0 16 16" xml:space="preserve">
<g id="imAecW_1_">
	<g>
		<path fill="#FFFFFF" d="M0.085,15.64c0.562-1.273,1.13-2.542,1.683-3.818c0.924-2.132,1.839-4.269,2.758-6.404
			c0.168,0,0.335,0,0.503,0c0.524,1.063,0.933,2.176,1.393,3.267c0.935,2.222,1.86,4.449,2.777,6.679
			c0.055,0.133,0.286,0.338,0.01,0.453c-0.243,0.101-0.331-0.136-0.407-0.316c-0.315-0.744-0.636-1.487-0.934-2.238
			c-0.103-0.26-0.247-0.361-0.528-0.359c-1.729,0.01-3.458,0.01-5.187,0c-0.275-0.002-0.43,0.084-0.538,0.346
			c-0.314,0.76-0.662,1.506-0.982,2.263c-0.11,0.262-0.265,0.381-0.547,0.295C0.085,15.752,0.085,15.696,0.085,15.64z M4.788,5.753
			c-0.947,2.221-1.842,4.326-2.741,6.429c-0.148,0.346,0.074,0.33,0.301,0.33c1.605-0.002,3.211-0.01,4.816,0.006
			c0.361,0.004,0.396-0.092,0.265-0.4c-0.554-1.311-1.091-2.629-1.636-3.944C5.474,7.403,5.153,6.633,4.788,5.753z"/>
		<path fill="#FFFFFF" d="M12.234,15.975c-0.736-0.228-1.371-0.579-1.601-1.385c-0.3-1.053,0.198-2.016,1.27-2.464
			c0.533-0.223,1.093-0.338,1.669-0.359c0.39-0.015,0.782-0.009,1.173-0.009c0.679-0.001,0.681-0.001,0.645-0.665
			c-0.077-1.422-1.061-1.875-2.256-1.843c-0.613,0.016-1.172,0.233-1.665,0.609c-0.106,0.081-0.223,0.212-0.354,0.04
			c-0.139-0.183,0.017-0.285,0.137-0.372c0.995-0.726,2.084-0.929,3.245-0.496c0.796,0.297,1.19,0.934,1.28,1.764
			c0.118,1.1,0.033,2.204,0.062,3.305c0.012,0.458-0.034,0.921,0.082,1.374c0,0.112,0,0.223,0,0.335
			c-0.316,0.09-0.428-0.059-0.443-0.357c-0.016-0.304-0.057-0.607-0.094-0.979c-0.584,0.944-0.822,1.129-1.893,1.504
			C13.072,15.975,12.653,15.975,12.234,15.975z M15.391,12.996c0.009-0.842,0.009-0.852-0.676-0.838
			c-0.5,0.01-1.003,0.025-1.499,0.085c-0.61,0.074-1.209,0.207-1.701,0.621c-0.752,0.634-0.727,1.926,0.082,2.43
			c0.82,0.511,1.694,0.535,2.539,0.064C15.117,14.811,15.339,13.855,15.391,12.996z"/>
	</g>
</g>
</svg>
