<?xml version="1.0" encoding="utf-8"?>
<!-- Generator: Adobe Illustrator 17.0.0, SVG Export Plug-In . SVG Version: 6.00 Build 0)  -->
<!DOCTYPE svg PUBLIC "-//W3C//DTD SVG 1.1//EN" "http://www.w3.org/Graphics/SVG/1.1/DTD/svg11.dtd">
<svg version="1.1" id="Layer_1" xmlns="http://www.w3.org/2000/svg" xmlns:xlink="http://www.w3.org/1999/xlink" x="0px" y="0px"
	 width="283.46px" height="226.77px" viewBox="0 0 283.46 226.77" enable-background="new 0 0 283.46 226.77" xml:space="preserve">
<g id="HVilkA_1_">
	<g>
		<path fill="#FFFFFF" d="M102.442,129.336c0.172-0.07,0.345-0.14,0.517-0.21c0.376,0.507,0.777,0.998,1.126,1.524
			c5.208,7.864,10.452,15.706,15.575,23.625c0.968,1.496,2.01,2.042,3.765,2.006c5.25-0.11,10.506-0.13,15.754,0.006
			c2.007,0.052,2.464-0.623,2.455-2.529c-0.072-16.248-0.041-32.497-0.05-48.746c0-0.874-0.08-1.747-0.121-2.604
			c-6.946,0-13.625,0-20.506,0c0,9.086,0,17.983,0,27.571c-0.886-1.254-1.399-1.941-1.871-2.654
			c-5.118-7.725-10.259-15.435-15.316-23.2c-0.897-1.377-1.844-1.993-3.554-1.953c-5.331,0.123-10.667,0.041-16.001,0.055
			c-0.702,0.002-1.404,0.096-2.117,0.148c0,18.023,0,35.799,0,53.672c6.826,0,13.493,0,20.345,0
			C102.442,147.013,102.442,138.175,102.442,129.336z M201.516,39.548c-39.901,0-79.583,0-119.36,0c0,3.482,0,6.786,0,10.221
			c0.813,0.042,1.454,0.105,2.095,0.105c31.44,0.004,62.879-0.006,94.319,0.024c1.497,0.001,2.258-0.243,2.687-1.963
			c1.201-4.816,5.775-7.597,10.757-6.873c4.686,0.681,8.063,4.825,7.949,9.753c-0.128,5.515-4.357,9.296-10.554,9.301
			c-28.649,0.021-57.297,0.013-85.946,0.008c-0.642,0-1.284-0.086-1.945-0.133c-0.227-0.791-0.409-1.503-0.634-2.201
			c-1.439-4.482-6.036-7.393-10.519-6.671c-5.009,0.807-8.45,4.763-8.42,9.68c0.035,5.8,4.427,9.753,10.947,9.758
			c35.38,0.025,70.759,0.033,106.139,0.039c0.787,0,1.574-0.087,2.486-0.141C201.516,60.109,201.516,49.959,201.516,39.548z
			 M201.48,102.428c-18.848,0-37.249,0-55.604,0c0,5.101,0,9.986,0,15.085c7.182,0,14.195,0,21.68,0
			c-7.997,12.929-15.767,25.49-23.729,38.362c19.515,0,38.553,0,57.629,0c0-5.078,0-9.95,0-15.164c-7.901,0-15.61,0-23.73,0
			C185.765,127.755,193.532,115.237,201.48,102.428z M82.12,91.638c1.188,0,2.234,0,3.28,0c34.973,0.001,69.946,0.003,104.92-0.006
			c0.981,0,1.972-0.043,2.94-0.187c4.813-0.713,8.16-4.514,8.205-9.264c0.045-4.718-3.186-8.789-7.595-9.573
			c-4.902-0.871-9.571,1.578-10.924,6.218c-0.624,2.141-1.696,2.282-3.47,2.28c-31.443-0.034-62.886-0.023-94.329-0.021
			c-0.962,0-1.924,0-3.026,0C82.12,84.694,82.12,88.014,82.12,91.638z M201.402,193.728c-0.076-0.698-0.087-1.273-0.207-1.824
			c-1.323-6.087-2.644-12.174-4.007-18.252c-0.48-2.142-0.421-5.139-1.788-6.152c-1.517-1.124-4.389-0.359-6.661-0.542
			c-1.586-0.128-2.53,0.413-3.344,1.834c-1.887,3.295-3.986,6.469-6.2,10.012c-2.245-3.694-4.172-7.021-6.287-10.224
			c-0.48-0.727-1.579-1.36-2.453-1.449c-2.031-0.206-4.113-0.186-6.143,0.029c-0.685,0.073-1.684,0.912-1.848,1.572
			c-1.223,4.93-2.284,9.901-3.373,14.864c-0.732,3.337-1.428,6.683-2.175,10.19c4.091,0,7.917,0,11.828,0
			c0.922-3.924,1.821-7.75,2.852-12.142c2.682,4.361,5.015,8.156,7.533,12.249c2.641-4.246,5.077-8.163,7.74-12.444
			c1.014,4.415,1.909,8.311,2.82,12.277C193.651,193.728,197.479,193.728,201.402,193.728z M82.088,166.949
			c0,9.13,0,17.951,0,26.926c3.807,0,7.451,0,11.372,0c0-3.515,0-6.916,0-10.648c3.164,0,6.06,0,8.966,0c0-2.178,0-4.018,0-6.172
			c-3.089,0-5.986,0-8.814,0c0-1.516,0-2.712,0-4.091c2.521,0,4.892,0.078,7.251-0.054c0.593-0.033,1.581-0.683,1.642-1.147
			c0.207-1.573,0.079-3.19,0.079-4.815C95.54,166.949,88.92,166.949,82.088,166.949z M150.456,193.91
			c0-1.871-0.082-3.428,0.023-4.973c0.106-1.568-0.59-1.979-2.03-1.922c-2.188,0.087-4.382,0.023-6.854,0.023
			c0-6.884,0-13.478,0-20.122c-4.002,0-7.711,0-11.438,0c0,9.087,0,17.98,0,26.994C136.936,193.91,143.542,193.91,150.456,193.91z
			 M121.74,167.195c-3.898,0-7.597,0-11.272,0c0,9.108,0,17.971,0,26.815c3.86,0,7.501,0,11.272,0
			C121.74,185.015,121.74,176.204,121.74,167.195z"/>
		<path fill="#FFFFFF" d="M102.442,129.336c0,8.838,0,17.677,0,26.71c-6.852,0-13.52,0-20.345,0c0-17.872,0-35.648,0-53.672
			c0.713-0.052,1.415-0.147,2.117-0.148c5.334-0.014,10.67,0.068,16.001-0.055c1.71-0.039,2.657,0.576,3.554,1.953
			c5.057,7.765,10.198,15.475,15.316,23.2c0.473,0.713,0.985,1.4,1.871,2.654c0-9.588,0-18.485,0-27.571c6.88,0,13.56,0,20.506,0
			c0.042,0.857,0.121,1.73,0.121,2.604c0.009,16.249-0.021,32.498,0.05,48.746c0.008,1.906-0.448,2.581-2.455,2.529
			c-5.249-0.136-10.505-0.116-15.754-0.006c-1.755,0.037-2.797-0.51-3.765-2.006c-5.124-7.919-10.367-15.76-15.575-23.625
			c-0.348-0.526-0.749-1.017-1.126-1.524C102.786,129.196,102.614,129.266,102.442,129.336z"/>
		<path fill="#FFFFFF" d="M201.516,39.548c0,10.411,0,20.561,0,30.906c-0.912,0.054-1.699,0.141-2.486,0.141
			c-35.38-0.006-70.759-0.014-106.139-0.039c-6.519-0.005-10.912-3.958-10.947-9.758c-0.029-4.916,3.412-8.872,8.42-9.68
			c4.483-0.723,9.08,2.188,10.519,6.671c0.224,0.698,0.407,1.41,0.634,2.201c0.661,0.047,1.303,0.133,1.945,0.133
			c28.649,0.005,57.297,0.013,85.946-0.008c6.198-0.005,10.427-3.786,10.554-9.301c0.114-4.928-3.263-9.072-7.949-9.753
			c-4.981-0.724-9.556,2.056-10.757,6.873c-0.429,1.72-1.19,1.965-2.687,1.963c-31.44-0.03-62.879-0.02-94.319-0.024
			c-0.641,0-1.281-0.063-2.095-0.105c0-3.435,0-6.739,0-10.221C121.933,39.548,161.615,39.548,201.516,39.548z"/>
		<path fill="#FFFFFF" d="M201.48,102.428c-7.948,12.81-15.715,25.327-23.754,38.283c8.119,0,15.829,0,23.73,0
			c0,5.214,0,10.086,0,15.164c-19.076,0-38.114,0-57.629,0c7.962-12.872,15.732-25.433,23.729-38.362c-7.485,0-14.498,0-21.68,0
			c0-5.099,0-9.984,0-15.085C164.232,102.428,182.633,102.428,201.48,102.428z"/>
		<path fill="#FFFFFF" d="M82.12,91.638c0-3.624,0-6.944,0-10.552c1.102,0,2.064,0,3.026,0c31.443-0.001,62.886-0.012,94.329,0.021
			c1.773,0.002,2.845-0.139,3.47-2.28c1.353-4.64,6.022-7.09,10.924-6.218c4.41,0.784,7.64,4.855,7.595,9.573
			c-0.045,4.75-3.392,8.551-8.205,9.264c-0.968,0.143-1.959,0.186-2.94,0.187c-34.973,0.009-69.946,0.006-104.92,0.006
			C84.354,91.638,83.309,91.638,82.12,91.638z"/>
		<path fill="#FFFFFF" d="M201.402,193.728c-3.923,0-7.751,0-11.712,0c-0.911-3.966-1.806-7.862-2.82-12.277
			c-2.663,4.282-5.099,8.199-7.74,12.444c-2.517-4.093-4.851-7.888-7.533-12.249c-1.032,4.392-1.93,8.218-2.852,12.142
			c-3.911,0-7.737,0-11.828,0c0.747-3.507,1.442-6.852,2.175-10.19c1.089-4.963,2.15-9.934,3.373-14.864
			c0.164-0.66,1.163-1.499,1.848-1.572c2.031-0.216,4.112-0.235,6.143-0.029c0.874,0.088,1.973,0.722,2.453,1.449
			c2.115,3.203,4.041,6.53,6.287,10.224c2.213-3.543,4.313-6.717,6.2-10.012c0.814-1.422,1.758-1.962,3.344-1.834
			c2.272,0.183,5.144-0.581,6.661,0.542c1.367,1.013,1.308,4.01,1.788,6.152c1.363,6.078,2.684,12.165,4.007,18.252
			C201.315,192.456,201.326,193.03,201.402,193.728z"/>
		<path fill="#FFFFFF" d="M82.088,166.949c6.832,0,13.452,0,20.497,0c0,1.625,0.128,3.242-0.079,4.815
			c-0.061,0.464-1.049,1.113-1.642,1.147c-2.359,0.132-4.729,0.054-7.251,0.054c0,1.379,0,2.574,0,4.091c2.827,0,5.725,0,8.814,0
			c0,2.154,0,3.993,0,6.172c-2.907,0-5.802,0-8.966,0c0,3.731,0,7.133,0,10.648c-3.921,0-7.565,0-11.372,0
			C82.088,184.9,82.088,176.078,82.088,166.949z"/>
		<path fill="#FFFFFF" d="M150.456,193.91c-6.914,0-13.52,0-20.3,0c0-9.013,0-17.907,0-26.994c3.728,0,7.436,0,11.438,0
			c0,6.644,0,13.238,0,20.122c2.472,0,4.666,0.064,6.854-0.023c1.44-0.057,2.136,0.354,2.03,1.922
			C150.375,190.482,150.456,192.039,150.456,193.91z"/>
		<path fill="#FFFFFF" d="M121.74,167.195c0,9.01,0,17.82,0,26.815c-3.771,0-7.412,0-11.272,0c0-8.844,0-17.707,0-26.815
			C114.143,167.195,117.842,167.195,121.74,167.195z"/>
	</g>
</g>
</svg>
