<?xml version="1.0" encoding="utf-8"?>
<!-- Generator: Adobe Illustrator 17.0.0, SVG Export Plug-In . SVG Version: 6.00 Build 0)  -->
<!DOCTYPE svg PUBLIC "-//W3C//DTD SVG 1.1//EN" "http://www.w3.org/Graphics/SVG/1.1/DTD/svg11.dtd">
<svg version="1.1" id="Layer_1" xmlns="http://www.w3.org/2000/svg" xmlns:xlink="http://www.w3.org/1999/xlink" x="0px" y="0px"
	 width="283.46px" height="226.77px" viewBox="0 0 283.46 226.77" enable-background="new 0 0 283.46 226.77" xml:space="preserve">
<g id="ZR4wuq_1_">
	<g>
		<path fill="#FFFFFF" d="M26.402,161.157c-0.831,3.324-1.665,6.647-2.492,9.971c-0.815,3.274-1.69,6.534-2.401,9.831
			c-0.279,1.295-0.759,1.8-2.122,1.73c-2.345-0.12-4.705-0.118-7.051,0c-1.431,0.072-1.938-0.478-2.267-1.837
			c-2.191-9.07-4.479-18.115-6.724-27.172c-0.331-1.335-0.535-2.691-2.304-2.909c-1.23-0.152-1.003-1.21-0.988-2.037
			c0.082-4.336-0.512-3.532,3.427-3.58c3.918-0.047,7.839,0.055,11.756-0.043c1.532-0.038,2.067,0.506,1.872,1.975
			c-0.056,0.423-0.055,0.868,0.004,1.291c0.207,1.497-0.198,2.508-1.869,2.689c-0.81,0.088-1.259,0.441-1.035,1.438
			c1.274,5.667,2.495,11.346,4.142,17.064c0.993-3.936,1.992-7.871,2.978-11.808c0.907-3.622,1.836-7.239,2.68-10.875
			c0.281-1.209,0.721-1.761,2.104-1.778c6.132-0.076,6.109-0.124,7.635,5.939c1.367,5.43,2.787,10.846,4.195,16.265
			c0.12,0.461,0.042,1.029,0.807,1.439c1.017-4.64,2.018-9.205,3.017-13.771c0.154-0.702,0.273-1.412,0.454-2.106
			c0.259-0.991,0.102-1.603-1.058-1.861c-0.741-0.165-1.932-0.014-2-1.202c-0.081-1.421-0.033-2.867,0.146-4.278
			c0.072-0.565,0.843-0.377,1.315-0.379c3.634-0.016,7.268,0.007,10.902-0.028c0.943-0.009,1.5,0.213,1.444,1.302
			c-0.051,1.004-0.048,2.013-0.004,3.017c0.035,0.778-0.261,1.299-1.017,1.363c-1.791,0.152-2.001,1.513-2.328,2.866
			c-2.154,8.934-4.378,17.851-6.455,26.803c-0.403,1.735-1.066,2.373-2.846,2.22c-2.051-0.176-4.137-0.149-6.193-0.005
			c-1.579,0.111-2.232-0.433-2.585-1.997c-1.328-5.881-2.798-11.73-4.217-17.591c-0.151-0.624-0.324-1.243-0.487-1.865
			C26.691,161.212,26.547,161.184,26.402,161.157z"/>
		<path fill="#FFFFFF" d="M175.649,181.171c-4.823-3.073-4.725-5.891,0.334-10.985c-2.463-1.733-4.068-3.99-4.101-7.134
			c-0.048-4.639,2.906-8.142,7.884-9.351c2.24-0.544,4.579-0.873,6.779-0.368c3.648,0.837,7.191,0.424,10.753-0.202
			c1.212-0.213,1.531,0.161,1.461,1.291c-0.062,1.001-0.037,2.011-0.007,3.015c0.023,0.776-0.215,1.264-1.074,1.194
			c-1.1-0.09-1.274,0.301-0.992,1.382c1.397,5.35-1.078,9.712-6.402,11.306c-2.685,0.804-5.446,1.09-8.238,0.649
			c-1.005-0.159-1.933-0.234-2.027,1.112c-0.086,1.238,0.84,1.638,1.808,1.66c3.131,0.071,6.264,0.038,9.396,0.056
			c4.523,0.026,7.381,1.698,8.397,4.899c1.293,4.075-0.12,8.339-3.597,10.878c-1.523,1.112-3.232,1.836-5.037,2.276
			c-4.778,1.163-9.583,1.204-14.395,0.168c-1.62-0.349-3.147-0.934-4.486-1.922c-2.796-2.064-2.883-5.665-0.235-7.929
			C172.921,182.265,174.23,181.869,175.649,181.171z M184.986,182.973c0-0.014,0-0.028,0-0.042c-1.275,0-2.555-0.066-3.824,0.02
			c-1.125,0.076-1.76,0.872-2.025,1.912c-0.256,1.004,0.117,1.814,0.965,2.412c1.996,1.408,8.201,1.051,9.989-0.584
			c0.675-0.617,1.024-1.37,0.83-2.294c-0.214-1.015-1.009-1.363-1.898-1.406C187.68,182.925,186.332,182.973,184.986,182.973z
			 M188.014,162.64c-0.066-0.478-0.136-1.044-0.224-1.608c-0.299-1.904-1.395-2.963-3.318-2.932
			c-1.867,0.03-2.783,1.226-3.093,2.959c-0.255,1.43-0.221,2.865,0.334,4.225c0.828,2.029,3.604,2.59,5.121,1.042
			C187.804,165.336,187.848,164.013,188.014,162.64z"/>
		<path fill="#FFFFFF" d="M281.527,167.932c0,2.444,0.049,4.889-0.021,7.331c-0.034,1.177,0.282,1.805,1.502,2.149
			c2.569,0.725,1.032,2.891,1.22,4.368c0.204,1.599-1.307,0.885-2.043,0.9c-3.703,0.076-7.41-0.019-11.114,0.061
			c-1.363,0.029-1.98-0.34-1.801-1.793c0.183-1.494-0.699-3.416,1.841-3.831c0.585-0.096,0.405-0.991,0.406-1.548
			c0.012-3.809,0.011-7.619,0.01-11.428c0-1.259-0.077-2.545-1.479-3.049c-1.69-0.607-3.38-0.351-4.978,0.397
			c-0.551,0.258-0.369,0.887-0.371,1.366c-0.015,4.312-0.002,8.625-0.02,12.937c-0.003,0.798,0.175,1.309,1.033,1.614
			c1.068,0.379,1.814,4.146,1.071,5.027c-0.444,0.527-1.069,0.27-1.61,0.272c-3.776,0.019-7.555-0.07-11.328,0.043
			c-1.65,0.05-2.257-0.391-2.157-2.134c0.096-1.677-0.251-3.386,2.22-3.474c0.854-0.031,0.871-0.771,0.87-1.449
			c-0.006-4.672-0.046-9.344,0.025-14.015c0.021-1.356-0.843-1.48-1.74-1.693c-2.703-0.641-1.119-2.797-1.438-4.252
			c-0.32-1.458,0.958-1.326,1.807-1.426c2.97-0.352,5.952-0.61,8.92-0.977c1.375-0.17,2.037,0.239,1.915,1.717
			c-0.132,1.604,0.536,1.474,1.57,0.735c2.847-2.036,6.034-2.835,9.503-2.511c3.66,0.342,5.772,2.34,6.002,6.047
			c0.178,2.861,0.035,5.743,0.035,8.616C281.427,167.931,281.477,167.932,281.527,167.932z"/>
		<path fill="#FFFFFF" d="M149.752,156.746c3.181-2.376,6.377-3.742,10.117-3.549c4.515,0.233,6.807,2.429,6.881,7.01
			c0.08,4.954,0.042,9.91,0.005,14.865c-0.009,1.181,0.106,1.993,1.514,2.329c2.639,0.63,1.144,2.839,1.286,4.306
			c0.145,1.506-1.327,0.905-2.101,0.919c-3.701,0.065-7.404-0.019-11.104,0.055c-1.301,0.026-1.843-0.384-1.69-1.71
			c0.171-1.49-0.71-3.41,1.81-3.856c0.593-0.105,0.394-0.996,0.396-1.55c0.012-3.806,0.012-7.612,0.001-11.418
			c-0.004-1.253-0.102-2.519-1.49-3.052c-1.695-0.65-3.37-0.344-4.973,0.372c-0.571,0.255-0.369,0.882-0.371,1.354
			c-0.017,4.309-0.015,8.617-0.009,12.926c0.001,0.555-0.158,1.307,0.552,1.47c3.061,0.704,1.286,3.121,1.664,4.75
			c0.154,0.663-0.552,0.689-1.058,0.689c-4.271-0.002-8.543-0.024-12.814,0.005c-0.919,0.006-1.315-0.326-1.251-1.25
			c0.123-1.764-0.794-4.027,2.224-4.328c1.02-0.102,0.764-1.057,0.767-1.73c0.017-4.38-0.028-8.762,0.037-13.141
			c0.019-1.277-0.288-1.958-1.65-2.211c-2.802-0.519-1.348-2.818-1.572-4.351c-0.235-1.608,1.221-1.281,2.088-1.395
			c2.399-0.313,4.817-0.472,7.218-0.765C149.456,153.095,149.452,153.066,149.752,156.746z"/>
		<path fill="#FFFFFF" d="M234.047,183.41c-9.184-0.069-14.663-5.718-14.6-15.055c0.063-9.354,5.929-15.228,15.127-15.148
			c9.422,0.082,14.661,5.544,14.578,15.198C249.074,177.508,243.064,183.478,234.047,183.41z M238.649,168.34
			c-0.006-2.229-0.034-4.463-0.863-6.575c-0.628-1.597-1.723-2.591-3.546-2.585c-1.797,0.005-3.048,0.852-3.527,2.551
			c-1.213,4.301-1.244,8.638,0.051,12.931c0.526,1.745,1.742,2.751,3.643,2.731c1.933-0.021,2.952-1.188,3.545-2.881
			C238.652,172.509,238.634,170.423,238.649,168.34z"/>
		<path fill="#FFFFFF" d="M28.943,80.755c-2.064-0.001-4.129,0.009-6.193-0.007c-0.681-0.005-1.603,0.165-1.492-0.959
			c0.092-0.939-0.693-2.141,0.886-2.71c2.951-1.065,2.929-1.124,1.922-4.233c-1.222-3.772-1.222-3.772-5.133-3.78
			c-0.641-0.001-1.281-0.001-1.922-0.001c-5.867-0.001-5.819,0.015-7.69,5.702c-0.433,1.316-0.166,1.728,1.106,2.026
			c0.858,0.201,2.099-0.125,2.444,1.227c0.503,1.976-0.061,2.725-2.1,2.73c-2.99,0.008-5.98,0.009-8.97,0.008
			c-0.846-0.001-1.842,0.166-1.741-1.201c0.072-0.982-0.507-2.392,1.128-2.552c2.068-0.203,2.721-1.543,3.324-3.286
			c3.278-9.486,6.686-18.925,9.963-28.411c0.518-1.499,1.143-2.152,2.827-2.114c4.646,0.107,4.638,0.023,6.189,4.536
			c3.052,8.881,6.136,17.751,9.155,26.644c0.448,1.318,0.972,2.372,2.508,2.468c1.967,0.124,1.635,1.58,1.61,2.838
			c-0.031,1.598-1.268,1.024-2.056,1.053C32.788,80.805,30.865,80.756,28.943,80.755z M17.428,52.004
			c-0.159-0.001-0.318-0.003-0.477-0.004c-1.36,4.042-2.723,8.083-4.079,12.126c-0.268,0.798-0.031,1.202,0.87,1.19
			c2.197-0.028,4.395-0.044,6.591-0.001c1.022,0.02,1.242-0.423,0.96-1.301C20.007,60.01,18.717,56.008,17.428,52.004z"/>
		<path fill="#FFFFFF" d="M70.225,169.728c-2.349,0.001-4.7,0.051-7.047-0.019c-1.216-0.036-1.442,0.443-1.249,1.548
			c0.523,3.003,2.77,4.993,6.165,5.262c2.647,0.209,5.287-0.007,7.806-0.847c1.55-0.517,1.775,0.008,1.776,1.416
			c0.002,3.78-0.059,4.013-3.582,5.176c-4.517,1.491-9.107,1.648-13.658,0.227c-4.07-1.271-6.846-3.982-8.135-8.145
			c-1.019-3.292-1.168-6.651-0.517-10.007c1.875-9.67,13.603-14.632,21.887-9.291c2.85,1.838,4.033,4.712,4.696,7.892
			c1.415,6.788,1.418,6.787-5.365,6.787C72.076,169.727,71.15,169.727,70.225,169.728z M65.434,164.971c0-0.019,0-0.039,0-0.058
			c0.496,0,0.993,0.012,1.489-0.002c2.521-0.07,2.783-0.419,2.158-2.91c-0.104-0.413-0.241-0.831-0.442-1.203
			c-0.876-1.62-2.226-2.122-3.946-1.573c-1.647,0.525-3.376,3.402-2.813,5.053c0.568,1.668,2.097,0.342,3.131,0.687
			C65.139,165.008,65.293,164.971,65.434,164.971z"/>
		<path fill="#FFFFFF" d="M47.423,54.998c2.976-2.161,5.788-3.167,8.988-3.047c4.31,0.161,7.565,2.306,8.985,6.382
			c1.787,5.133,1.731,10.327-0.363,15.359c-1.875,4.506-5.523,6.846-10.205,7.483c-4.214,0.573-8.361,0.093-12.431-1.235
			c-1.406-0.459-1.828-1.165-1.818-2.628c0.063-9.766,0-19.533,0.061-29.3c0.01-1.603-0.265-2.646-2.074-2.714
			c-1.464-0.055-1.741-0.908-1.751-2.292c-0.011-1.548,0.928-1.522,1.903-1.65c2.258-0.296,4.529-0.507,6.772-0.891
			c1.601-0.274,1.98,0.37,1.956,1.851C47.379,46.385,47.423,50.456,47.423,54.998z M47.421,66.955c0,2.508,0.007,5.016-0.004,7.524
			c-0.004,0.806,0.039,1.477,0.875,1.993c3.585,2.216,8.692,0.572,10.152-3.376c1.013-2.741,1.087-5.614,0.867-8.485
			c-0.489-6.395-4.405-8.935-10.469-6.916c-1.035,0.345-1.484,0.81-1.447,1.952C47.474,62.081,47.419,64.519,47.421,66.955z"/>
		<path fill="#FFFFFF" d="M11.473,113.084c-0.001,3.953,0.117,7.911-0.051,11.856c-0.082,1.918,0.569,2.664,2.373,2.909
			c0.951,0.129,2.372-0.209,2.405,1.676c0.027,1.588-0.241,2.289-2.052,2.225c-4.127-0.146-8.263-0.039-12.395-0.056
			c-0.729-0.003-1.743,0.275-1.681-1.002c0.05-1.028-0.595-2.566,1.207-2.674c2.537-0.152,2.757-1.634,2.729-3.759
			c-0.105-7.76-0.092-15.524-0.005-23.284c0.019-1.712-0.326-2.803-2.173-2.887c-1.852-0.085-1.85-1.324-1.8-2.711
			c0.063-1.747,1.34-1.153,2.191-1.16c4.702-0.038,9.404-0.006,14.106,0.001c1.861,0.003,3.695,0.236,5.501,0.677
			c5.335,1.301,7.933,4.575,7.917,9.963c-0.017,5.684-2.854,9.521-7.98,10.775c-2.24,0.548-4.495,0.59-6.79,0.348
			c-1.593-0.167-1.182-1.258-1.266-2.2c-0.104-1.166,0.435-1.401,1.511-1.435c5.891-0.187,8.861-5.505,6.166-10.906
			c-0.952-1.907-2.608-2.505-4.549-2.692c-5.374-0.519-5.372-0.527-5.365,4.853C11.477,106.76,11.473,109.922,11.473,113.084z"/>
		<path fill="#FFFFFF" d="M162.675,77.933c-2.853,2.423-5.847,3.467-9.26,3.396c-5.218-0.108-7.767-2.57-7.816-7.804
			c-0.044-4.741-0.078-9.484,0.002-14.224c0.026-1.546-0.354-2.516-1.993-2.588c-1.492-0.066-1.793-0.864-1.795-2.254
			c-0.001-1.562,0.954-1.498,1.952-1.588c2.269-0.204,4.545-0.356,6.805-0.64c1.34-0.168,1.76,0.294,1.749,1.628
			c-0.043,5.316-0.01,10.632,0.01,15.949c0.004,1.004,0.036,2.012,0.123,3.012c0.184,2.114,1.361,3.231,3.457,3.359
			c0.426,0.026,0.854,0.04,1.281,0.035c4.679-0.06,5.301-0.686,5.302-5.329c0.001-3.951-0.064-7.904,0.035-11.853
			c0.035-1.412-0.369-2.225-1.778-2.288c-1.688-0.076-1.825-1.091-1.796-2.478c0.035-1.666,1.242-1.282,2.122-1.389
			c1.978-0.241,3.981-0.299,5.949-0.599c1.755-0.268,2.362,0.221,2.33,2.111c-0.11,6.536-0.003,13.075-0.075,19.612
			c-0.017,1.538,0.308,2.485,1.993,2.557c1.436,0.061,1.84,0.876,1.796,2.278c-0.049,1.6-1.16,1.359-2.084,1.491
			c-1.621,0.233-3.249,0.41-4.871,0.635C162.976,81.397,162.977,81.404,162.675,77.933z"/>
		<path fill="#FFFFFF" d="M253.422,72.606c1.833-5.428,3.413-10.18,5.054-14.91c0.374-1.078-0.023-1.412-0.989-1.569
			c-1.013-0.164-1.852-0.408-1.82-1.847c0.029-1.281,0.306-1.796,1.661-1.751c2.702,0.089,5.41,0.017,8.115,0.033
			c0.602,0.004,1.467-0.183,1.381,0.823c-0.075,0.88,0.677,2.255-0.826,2.499c-1.832,0.297-2.286,1.598-2.826,3.046
			c-3.25,8.732-6.5,17.464-9.848,26.157c-2.189,5.685-6.424,7.78-11.882,6.081c-1.226-0.382-2.145-3.27-1.359-4.266
			c0.422-0.534,0.922-0.157,1.381-0.115c4.481,0.416,7.41-1.885,8.096-6.351c0.084-0.547-0.133-0.981-0.324-1.438
			c-2.952-7.078-5.916-14.152-8.852-21.237c-0.354-0.854-0.785-1.531-1.777-1.615c-1.746-0.149-1.707-1.395-1.565-2.647
			c0.175-1.54,1.401-0.9,2.183-0.917c3.131-0.069,6.265-0.05,9.397-0.021c0.767,0.007,1.852-0.382,1.848,1.064
			c-0.003,1.052,0.287,2.27-1.353,2.366c-1.809,0.106-1.752,0.997-1.182,2.414C249.747,62.914,251.447,67.467,253.422,72.606z"/>
		<path fill="#FFFFFF" d="M94.784,159.803c-0.003,4.952,0.046,9.905-0.032,14.856c-0.024,1.552,0.231,2.408,1.977,2.856
			c2.252,0.578,0.804,2.659,1.047,4.04c0.247,1.398-0.985,1.084-1.766,1.088c-4.198,0.022-8.396-0.033-12.593,0.04
			c-1.302,0.023-1.768-0.386-1.718-1.707c0.066-1.756-0.439-3.728,2.3-3.871c0.811-0.042,0.92-0.729,0.919-1.438
			c-0.01-8.326-0.025-16.651,0.009-24.976c0.005-1.26-0.7-1.611-1.693-1.762c-2.876-0.438-1.514-2.702-1.749-4.228
			c-0.281-1.822,1.251-1.361,2.165-1.474c3.034-0.376,6.084-0.623,9.118-0.996c1.477-0.182,2.06,0.299,2.041,1.853
			C94.749,149.324,94.787,154.564,94.784,159.803z"/>
		<path fill="#FFFFFF" d="M221.182,122.903c1.646-4.884,3.255-9.675,4.878-14.462c0.362-1.069-0.34-1.283-1.087-1.34
			c-1.677-0.128-1.861-1.187-1.735-2.555c0.161-1.745,1.482-0.987,2.293-1.023c2.345-0.106,4.698-0.062,7.047-0.032
			c0.704,0.009,1.735-0.336,1.67,0.987c-0.045,0.92,0.491,2.229-0.985,2.446c-1.58,0.232-1.993,1.337-2.457,2.586
			c-3.294,8.872-6.564,17.755-9.958,26.588c-2.151,5.596-6.012,7.454-11.506,6.133c-2.468-0.593-1.641-2.336-1.626-3.714
			c0.02-1.783,1.397-0.685,2.072-0.647c5.024,0.285,8.432-4.501,6.483-9.21c-2.686-6.491-5.392-12.974-8.043-19.479
			c-0.463-1.135-0.972-2.024-2.315-2.191c-1.611-0.2-1.168-1.486-1.198-2.505c-0.039-1.346,0.976-0.98,1.667-0.987
			c3.346-0.032,6.693-0.023,10.039-0.006c0.731,0.004,1.678-0.25,1.603,1.062c-0.058,1.014,0.375,2.302-1.288,2.396
			c-1.776,0.101-1.837,0.868-1.225,2.364c1.572,3.847,2.963,7.769,4.456,11.649C220.208,121.587,220.255,122.353,221.182,122.903z"
			/>
		<path fill="#FFFFFF" d="M113.269,159.802c0,4.957,0.056,9.914-0.033,14.869c-0.028,1.574,0.263,2.393,1.982,2.849
			c2.245,0.595,0.808,2.668,1.044,4.052c0.238,1.403-1.007,1.066-1.778,1.07c-4.201,0.024-8.403-0.028-12.604,0.032
			c-1.215,0.017-1.636-0.394-1.592-1.605c0.066-1.811-0.472-3.884,2.392-4.001c0.779-0.032,0.722-0.756,0.723-1.326
			c0.003-8.405-0.019-16.809,0.02-25.214c0.006-1.366-0.907-1.464-1.803-1.626c-2.754-0.498-1.316-2.671-1.611-4.121
			c-0.321-1.575,0.92-1.447,1.888-1.546c3.045-0.312,6.1-0.548,9.131-0.961c1.682-0.23,2.303,0.224,2.272,2.01
			C113.211,149.456,113.269,154.629,113.269,159.802z"/>
		<path fill="#FFFFFF" d="M30.726,117.801c-0.052-10.669,8.625-17.267,18.57-14.142c3.688,1.159,6.347,3.526,7.755,7.161
			c1.673,4.321,1.712,8.737,0.058,13.053c-2.407,6.282-8.371,9.427-15.404,8.31c-6.305-1.002-10.472-5.719-10.974-12.444
			C30.684,119.096,30.726,118.447,30.726,117.801z M37.84,117.412c0.025,2.595,0.169,5.166,1.414,7.529
			c1.182,2.244,3.028,3.366,5.545,3.294c2.465-0.071,4.254-1.323,5.087-3.601c1.739-4.756,1.737-9.565-0.307-14.238
			c-0.972-2.223-2.841-3.321-5.291-3.306c-2.459,0.015-4.175,1.199-5.247,3.393C37.971,112.673,37.88,115.039,37.84,117.412z"/>
		<path fill="#FFFFFF" d="M123.619,66.635c-0.046,10.517-8.235,16.906-18.265,14.246c-5.653-1.5-9.19-6.324-9.438-13.342
			c-0.193-5.467,1.452-10.296,6.278-13.346c4.715-2.981,9.765-3.039,14.666-0.524C122.05,56.331,123.591,61.133,123.619,66.635z
			 M116.463,66.896c-0.148-2.915-0.29-5.565-1.745-7.917c-1.247-2.016-3.053-2.888-5.381-2.797c-2.272,0.089-4.053,1.101-4.9,3.191
			c-1.967,4.849-1.987,9.78,0.139,14.59c1.017,2.301,2.997,3.388,5.503,3.325c2.538-0.063,4.246-1.409,5.264-3.705
			C116.326,71.368,116.349,68.993,116.463,66.896z"/>
		<path fill="#FFFFFF" d="M202.587,168.734c0-2.514,0.011-5.027-0.009-7.54c-0.004-0.53,0.202-1.366-0.601-1.377
			c-2.575-0.034-1.343-1.964-1.588-3.125c-0.284-1.343,0.282-2.222,1.657-2.453c1.462-0.246,1.602-1.392,1.811-2.543
			c0.845-4.659,0.852-4.674,5.58-4.649c3.648,0.019,2.933-0.276,3.013,3.131c0.002,0.072-0.001,0.144,0,0.215
			c0.056,3.965-0.429,3.415,3.223,3.307c2.016-0.059,2.74,0.43,2.632,2.569c-0.174,3.458-0.045,3.559-3.379,3.434
			c-1.851-0.069-2.647,0.32-2.53,2.43c0.194,3.508,0.047,7.035,0.053,10.554c0.006,3.54,1.106,4.631,4.504,4.089
			c1.447-0.231,1.641,0.141,1.631,1.473c-0.032,4.082-0.08,4.199-4.123,4.827c-1.915,0.297-3.817,0.326-5.736,0.001
			c-3.955-0.67-5.89-2.735-6.079-6.804c-0.117-2.508-0.022-5.026-0.022-7.539C202.611,168.734,202.599,168.734,202.587,168.734z"/>
		<path fill="#FFFFFF" d="M180.607,118.206c-2.492-0.001-4.986,0.068-7.474-0.027c-1.515-0.058-1.771,0.477-1.515,1.9
			c0.918,5.093,3.685,7.524,8.797,7.49c1.925-0.013,3.823-0.263,5.71-0.696c0.664-0.152,1.756-1.275,2.076,0.15
			c0.253,1.125,0.612,2.574-0.989,3.376c-3.214,1.61-6.607,2.241-10.148,1.953c-7.8-0.634-12.145-5.143-12.58-13.046
			c-0.09-1.64-0.076-3.316,0.147-4.94c1.234-8.971,10.503-14.058,18.7-10.309c3.614,1.653,5.082,4.83,5.839,8.485
			c1.174,5.663,1.167,5.664-4.507,5.664C183.312,118.208,181.96,118.208,180.607,118.206z M176.819,114.623c0-0.079,0-0.159,0-0.238
			c1.488,0,2.976,0.011,4.464-0.006c0.484-0.006,0.959,0.006,1.171-0.647c0.82-2.518-1.641-6.321-4.325-6.628
			c-3.507-0.402-5.757,1.659-6.518,5.81c-0.236,1.289-0.096,1.882,1.385,1.735C174.259,114.524,175.544,114.623,176.819,114.623z"/>
		<path fill="#FFFFFF" d="M217.861,75.272c0.363,3.698,0.378,3.737-2.604,4.896c-4.127,1.604-8.366,1.691-12.575,0.477
			c-3.64-1.05-6.177-3.475-7.5-7.086c-1.503-4.103-1.675-8.3-0.41-12.471c2.386-7.864,11.82-11.626,18.965-7.627
			c3.859,2.16,4.939,5.918,5.456,9.938c0.488,3.798,0.444,3.805-3.257,3.805c-4.342,0.001-8.685,0.033-13.026-0.02
			c-1.397-0.017-1.85,0.393-1.649,1.878c0.628,4.629,3.455,7.339,8.096,7.548C212.232,76.741,215.019,76.217,217.861,75.272z
			 M206.443,63.64c0-0.066,0-0.132,0-0.198c1.488,0,2.976,0.014,4.464-0.006c0.694-0.009,1.277-0.196,1.228-1.095
			c-0.11-2.035-0.321-4.08-2.127-5.368c-1.707-1.218-3.632-1.128-5.475-0.311c-1.942,0.861-2.65,2.675-3.141,4.592
			c-0.411,1.604-0.413,2.824,1.866,2.418C204.29,63.487,205.38,63.64,206.443,63.64z"/>
		<path fill="#FFFFFF" d="M70.847,75.989c-0.031-0.43-0.14-0.87-0.081-1.286c0.122-0.858-0.88-2.074,0.652-2.505
			c2.015-0.567,3.16,0.026,3.756,1.837c1.139,3.458,7.137,4.723,9.622,2.03c1.539-1.669,1.016-4.386-1.234-5.33
			c-2.289-0.96-4.734-1.531-7.07-2.387c-4.269-1.563-6.041-4.387-5.609-8.744c0.361-3.642,3.029-6.344,7.163-7.226
			c3.632-0.774,7.218-0.344,10.791,0.446c0.958,0.212,1.494,0.653,1.412,1.756c-0.084,1.142,0.103,2.314-0.061,3.439
			c-0.128,0.874,0.853,2.347-1.02,2.497c-1.582,0.127-3.157,0.281-3.342-2.049c-0.193-2.43-2.148-2.361-3.823-2.434
			c-1.938-0.085-4.018-0.076-4.951,2.096c-0.625,1.456-0.173,2.828,1.243,3.729c1.035,0.659,2.2,0.988,3.358,1.344
			c1.835,0.563,3.704,1.054,5.477,1.777c2.934,1.198,4.738,3.314,4.865,6.676c0.133,3.531-1.03,6.46-4.194,8.101
			c-5.226,2.711-10.634,1.887-16.009,0.352c-0.677-0.193-0.813-0.696-0.826-1.321C70.947,77.853,70.887,76.921,70.847,75.989z"/>
		<path fill="#FFFFFF" d="M61.904,126.669c-0.023-0.358-0.111-0.727-0.056-1.072c0.137-0.848-0.9-2.243,0.71-2.412
			c1.38-0.145,3.257-0.817,3.638,1.661c0.25,1.622,0.815,3.016,2.792,3.269c2.357,0.302,4.735,0.723,6.711-1.037
			c1.521-1.356,1.156-4.142-0.685-5.151c-1.172-0.643-2.504-0.995-3.775-1.447c-1.608-0.572-3.272-1.008-4.83-1.692
			c-2.682-1.177-4.281-3.22-4.501-6.264c-0.237-3.286,0.778-6.041,3.637-7.722c4.793-2.818,9.867-2.029,14.925-0.807
			c0.76,0.184,0.737,0.76,0.74,1.337c0.006,1.508,0.014,3.016-0.001,4.523c-0.007,0.757,0.188,1.768-1.065,1.591
			c-1.057-0.149-2.411,0.757-3.058-1.032c-1.179-3.256-2.972-4.109-6.489-3.278c-1.407,0.332-2.496,1.044-2.69,2.659
			c-0.189,1.573,0.535,2.632,1.874,3.294c2.123,1.049,4.453,1.481,6.685,2.203c4.72,1.528,6.588,3.914,6.483,8.342
			c-0.098,4.139-2.456,6.975-6.866,8.19c-4.341,1.196-8.606,0.558-12.842-0.617c-0.78-0.216-1.205-0.665-1.212-1.526
			c-0.008-1.004-0.089-2.008-0.138-3.012C61.896,126.669,61.9,126.669,61.904,126.669z"/>
		<path fill="#FFFFFF" d="M152.013,123.966c1.767-5.147,3.509-10.303,5.319-15.434c0.391-1.108-0.049-1.476-0.996-1.53
			c-1.804-0.104-1.667-1.369-1.577-2.601c0.107-1.464,1.252-0.866,1.962-0.888c2.346-0.071,4.696-0.038,7.044-0.019
			c0.662,0.005,1.609-0.248,1.532,0.897c-0.06,0.886,0.632,2.257-0.872,2.48c-1.752,0.259-2.216,1.471-2.727,2.859
			c-2.472,6.724-5.028,13.416-7.465,20.153c-0.486,1.344-1.082,1.892-2.58,1.86c-4.153-0.09-4.143-0.012-5.612-3.942
			c-2.334-6.243-4.703-12.473-7.012-18.725c-0.4-1.082-0.842-1.918-2.124-2.067c-1.56-0.181-1.268-1.425-1.282-2.481
			c-0.017-1.301,0.936-1.025,1.661-1.03c3.345-0.021,6.689-0.013,10.034-0.012c0.711,0,1.553-0.117,1.412,1.02
			c-0.108,0.874,0.59,2.204-1.04,2.336c-1.76,0.142-1.802,0.953-1.281,2.412c1.748,4.893,3.379,9.829,5.054,14.748
			C151.648,123.99,151.831,123.978,152.013,123.966z"/>
		<path fill="#FFFFFF" d="M131.709,165.199c0,3.228,0.051,6.456-0.024,9.682c-0.032,1.389,0.24,2.14,1.77,2.594
			c2.263,0.671,0.91,2.765,1.117,4.213c0.181,1.264-0.978,0.947-1.677,0.952c-4.195,0.027-8.39-0.023-12.584,0.036
			c-1.207,0.017-1.632-0.376-1.573-1.596c0.087-1.79-0.494-3.883,2.362-4.005c0.65-0.028,0.702-0.589,0.701-1.118
			c-0.001-4.805-0.025-9.611,0.019-14.416c0.01-1.093-0.599-1.335-1.437-1.444c-3.019-0.39-1.713-2.751-1.874-4.355
			c-0.192-1.908,1.481-1.371,2.435-1.503c2.674-0.37,5.37-0.573,8.056-0.853c2.619-0.273,2.702-0.211,2.707,2.345
			C131.713,158.887,131.708,162.043,131.709,165.199z"/>
		<path fill="#FFFFFF" d="M232.816,59.028c0,5.247,0.057,10.494-0.035,15.739c-0.028,1.558,0.335,2.478,1.983,2.553
			c1.366,0.063,1.77,0.806,1.705,2.13c-0.051,1.033-0.408,1.371-1.402,1.362c-3.847-0.037-7.695-0.018-11.542-0.016
			c-0.692,0-1.348-0.067-1.253-1.007c0.085-0.839-0.505-2.176,0.9-2.249c2.898-0.152,2.784-2.015,2.768-4.137
			c-0.065-8.48-0.067-16.962,0.008-25.442c0.015-1.647-0.345-2.619-2.113-2.694c-1.431-0.061-2.065-0.668-2.032-2.292
			c0.036-1.761,1.201-1.483,2.163-1.619c2.327-0.33,4.671-0.539,6.993-0.899c1.469-0.228,1.88,0.358,1.868,1.754
			c-0.046,5.606-0.019,11.212-0.019,16.818C232.81,59.028,232.813,59.028,232.816,59.028z"/>
		<path fill="#FFFFFF" d="M137.119,59.035c0,5.239,0.06,10.479-0.037,15.716c-0.029,1.556,0.338,2.506,1.967,2.565
			c1.555,0.057,1.776,0.953,1.739,2.292c-0.049,1.797-1.327,1.152-2.152,1.166c-3.485,0.061-6.971,0.024-10.457,0.025
			c-0.868,0-1.736,0.112-1.703-1.249c0.026-1.068-0.021-2.103,1.39-2.147c2.221-0.069,2.452-1.374,2.432-3.278
			c-0.091-8.683-0.085-17.367-0.001-26.05c0.017-1.718-0.309-2.736-2.186-2.841c-1.235-0.069-2.001-0.503-2.019-2.095
			c-0.02-1.859,1.178-1.651,2.241-1.796c2.254-0.309,4.525-0.506,6.769-0.873c1.496-0.244,2.058,0.193,2.04,1.771
			C137.08,47.839,137.119,53.437,137.119,59.035z"/>
		<path fill="#FFFFFF" d="M200.903,109.644c0,5.384,0.04,10.768-0.026,16.151c-0.017,1.406,0.18,2.379,1.816,2.458
			c1.381,0.067,1.959,0.777,1.86,2.237c-0.115,1.707-1.309,1.184-2.184,1.194c-3.415,0.042-6.831,0.009-10.247,0.021
			c-0.889,0.003-1.71,0.08-1.731-1.243c-0.018-1.123,0.094-2.064,1.442-2.118c1.966-0.078,2.307-1.164,2.29-2.95
			c-0.083-8.829-0.078-17.659,0.001-26.488c0.015-1.649-0.328-2.594-2.101-2.659c-1.453-0.053-2.015-0.75-1.983-2.333
			c0.036-1.754,1.172-1.474,2.157-1.601c2.257-0.293,4.536-0.455,6.772-0.859c1.637-0.295,1.967,0.36,1.953,1.821
			C200.873,98.732,200.903,104.188,200.903,109.644z"/>
		<path fill="#FFFFFF" d="M178.359,66.563c0-2.587-0.067-5.176,0.026-7.76c0.052-1.449-0.341-2.134-1.892-2.004
			c-0.656,0.055-1.721,0.431-1.727-0.903c-0.004-0.956-0.344-2.216,1.141-2.338c3.176-0.261,3.461-2.533,3.647-4.991
			c0.067-0.883-0.13-2.255,0.802-2.468c1.413-0.324,2.978-0.218,4.435,0.001c0.704,0.106,0.389,1.115,0.404,1.717
			c0.116,4.67,0.106,4.74,4.747,4.699c1.593-0.014,2.102,0.43,2.045,2.061c-0.051,1.488-0.127,2.33-2.011,2.306
			c-4.767-0.061-4.77,0.041-4.768,4.871c0.001,3.449-0.009,6.899,0.014,10.348c0.027,3.985,1.321,5.095,5.281,4.662
			c0.603-0.066,1.581-0.76,1.75,0.366c0.153,1.02,0.691,2.374-0.782,3.016c-3.425,1.493-6.909,1.718-10.334,0.095
			c-1.956-0.926-2.597-2.843-2.678-4.843c-0.119-2.94-0.031-5.889-0.031-8.834C178.405,66.563,178.382,66.563,178.359,66.563z"/>
		<path fill="#FFFFFF" d="M105.474,117.7c0-2.585-0.081-5.174,0.03-7.754c0.066-1.537-0.289-2.316-1.978-2.136
			c-0.678,0.072-1.713,0.371-1.714-0.941c-0.001-0.958-0.345-2.192,1.149-2.331c2.983-0.277,3.46-2.337,3.657-4.796
			c0.074-0.924-0.244-2.394,0.809-2.686c1.321-0.366,2.825-0.202,4.23-0.063c0.877,0.086,0.605,0.997,0.624,1.599
			c0.152,4.767,0.147,4.863,4.958,4.843c1.779-0.007,1.741,0.875,1.688,2.115c-0.051,1.191,0.299,2.351-1.71,2.34
			c-4.931-0.027-4.932,0.08-4.932,5.057c0,3.375-0.012,6.75,0.003,10.125c0.017,3.9,1.244,4.987,5.06,4.685
			c0.658-0.052,1.844-1.015,1.966,0.576c0.086,1.124,0.451,2.399-1.21,3.026c-2.56,0.967-5.151,1.132-7.771,0.656
			c-3.049-0.554-4.682-2.498-4.802-5.7c-0.107-2.868-0.023-5.744-0.023-8.616C105.497,117.7,105.486,117.7,105.474,117.7z"/>
		<path fill="#FFFFFF" d="M132.801,115.529c0,3.443,0.078,6.889-0.036,10.328c-0.05,1.514,0.397,2.286,1.911,2.423
			c1.106,0.1,1.806,0.532,1.728,1.9c-0.061,1.064-0.292,1.553-1.445,1.538c-3.768-0.048-7.537-0.019-11.306-0.013
			c-0.747,0.001-1.49,0.009-1.387-1.079c0.081-0.849-0.391-2.079,1.04-2.151c2.625-0.131,2.679-1.812,2.64-3.845
			c-0.092-4.733-0.088-9.469,0.006-14.202c0.03-1.538-0.504-2.292-1.972-2.406c-1.417-0.11-2.081-0.678-2.054-2.29
			c0.032-1.875,1.299-1.54,2.34-1.686c2.182-0.307,4.378-0.518,6.553-0.87c1.506-0.244,2.046,0.252,2.01,1.808
			C132.745,108.497,132.801,112.014,132.801,115.529z"/>
		<path fill="#FFFFFF" d="M97.029,115.566c0.002,3.299,0.093,6.601-0.036,9.895c-0.066,1.694,0.252,2.768,2.134,2.877
			c1.148,0.066,1.49,0.751,1.457,1.886c-0.032,1.084-0.341,1.518-1.477,1.5c-3.696-0.058-7.393-0.025-11.09-0.023
			c-0.75,0-1.467-0.003-1.403-1.086c0.052-0.886-0.323-2.084,1.053-2.169c2.326-0.144,2.551-1.5,2.501-3.463
			c-0.123-4.802-0.1-9.61-0.006-14.413c0.03-1.545-0.335-2.448-1.969-2.561c-1.4-0.097-2.065-0.677-2.017-2.302
			c0.051-1.707,1.113-1.522,2.134-1.65c2.326-0.291,4.656-0.554,6.977-0.881c1.307-0.184,1.782,0.295,1.759,1.634
			C96.986,108.394,97.027,111.98,97.029,115.566z"/>
		<path fill="#FFFFFF" d="M126.453,151.53c-3.16-0.035-5.386-2.052-5.392-4.888c-0.006-2.864,2.409-4.95,5.63-4.864
			c3.161,0.085,5.375,2.173,5.293,4.992C131.902,149.58,129.595,151.564,126.453,151.53z"/>
		<path fill="#FFFFFF" d="M97.35,95.765c0.054,2.092-1.766,3.838-4.016,3.852c-2.157,0.014-3.903-1.601-3.956-3.66
			c-0.053-2.057,1.618-3.763,3.768-3.849C95.38,92.018,97.296,93.685,97.35,95.765z"/>
		<path fill="#FFFFFF" d="M129.166,92.103c2.254,0.04,4.009,1.788,3.931,3.918c-0.073,2.007-1.864,3.602-4.036,3.593
			c-2.253-0.009-3.992-1.753-3.899-3.908C125.251,93.65,127.013,92.065,129.166,92.103z"/>
	</g>
</g>
</svg>
