<?xml version="1.0" encoding="utf-8"?>
<!-- Generator: Adobe Illustrator 17.0.0, SVG Export Plug-In . SVG Version: 6.00 Build 0)  -->
<!DOCTYPE svg PUBLIC "-//W3C//DTD SVG 1.1//EN" "http://www.w3.org/Graphics/SVG/1.1/DTD/svg11.dtd">
<svg version="1.1" id="Layer_1" xmlns="http://www.w3.org/2000/svg" xmlns:xlink="http://www.w3.org/1999/xlink" x="0px" y="0px"
	 width="283.46px" height="226.77px" viewBox="0 0 283.46 226.77" enable-background="new 0 0 283.46 226.77" xml:space="preserve">
<g id="fe8aL4_1_">
	<g>
		<path fill="#FFFFFF" d="M66.079,114.1c0-21.672-0.003-43.344,0.002-65.016c0.001-5.271,3.155-9.419,8.075-10.661
			c0.877-0.221,1.767-0.308,2.673-0.308c43.277,0.004,86.554,0,129.831,0.007c6.106,0.001,10.72,4.658,10.72,10.779
			c0.002,43.477,0.003,86.954,0,130.431c0,6.11-4.612,10.766-10.737,10.768c-43.277,0.012-86.554,0.012-129.831,0
			c-6.187-0.002-10.728-4.681-10.729-10.985C66.076,157.443,66.079,135.771,66.079,114.1z M133.323,187.722
			c0.009-0.042,0.017-0.084,0.026-0.125c-0.25-0.062-0.497-0.146-0.75-0.183c-6.118-0.884-11.436-3.541-16.078-7.516
			c-7.035-6.024-11.37-13.597-11.502-22.967c-0.222-15.733-0.09-31.471-0.053-47.207c0.006-2.744,1.676-4.59,4.069-5.546
			c2.346-0.936,4.756-0.763,6.694,1.138c1.451,1.423,2.274,3.147,2.261,5.262c-0.037,6.034-0.015,12.069-0.008,18.103
			c0,0.315-0.095,0.65,0.128,1.043c2.294-1.523,4.681-2.822,7.261-3.73c2.578-0.908,5.274-1.334,8.247-1.829
			c-3.57-1.402-4.837-3.823-4.818-7.309c0.082-14.635,0.031-29.271,0.041-43.907c0.001-1.299,0.023-2.606,0.162-3.895
			c1.425-13.193,11.448-24.612,24.353-27.771c0.995-0.244,2.003-0.435,3.005-0.651c-0.007-0.043-0.014-0.086-0.021-0.129
			c-0.232,0-0.464,0-0.697,0c-26.271,0.002-52.542,0.031-78.813-0.021c-4.38-0.009-8.488,3.744-8.398,8.361
			c0.09,4.632,0.019,9.268,0.019,13.902c0,38.673,0,77.346,0.002,116.019c0,1.065-0.032,2.132,0.334,3.164
			c1.294,3.648,4.319,5.793,8.228,5.794c16.769,0.003,33.539,0.002,50.308,0.002C129.323,187.722,131.323,187.722,133.323,187.722z
			 M140.364,187.727c0.2,0,0.399,0,0.599,0c21.971-0.002,43.942-0.004,65.914-0.01c0.904,0,1.783-0.148,2.642-0.46
			c3.285-1.193,5.536-4.495,5.525-8.017c-0.06-19.237-0.028-38.475-0.028-57.712c0-24.071,0-48.143-0.002-72.214
			c0-1.032,0.013-2.059-0.35-3.06c-1.314-3.624-4.283-5.742-8.154-5.744c-12.969-0.007-25.939-0.003-38.908-0.003
			c-0.828,0-1.657,0-2.485,0c0.633,0.238,1.282,0.342,1.925,0.476c21.719,4.508,32.589,29.028,20.96,47.887
			c-7.025,11.392-17.647,16.201-30.952,14.866c-4.995-0.501-9.602-2.4-14.099-4.55c-0.31-0.148-0.593-0.431-1.041-0.336
			c0,0.371,0,0.736,0,1.101c0,5.935,0.005,11.869-0.002,17.804c-0.003,2.807-1.249,4.838-3.82,6.027
			c-0.072,0.033-0.115,0.129-0.189,0.217c16.799,0.731,30.268,14.063,30.935,29.955C169.525,170.449,157.36,185.577,140.364,187.727
			z M160.839,53.436c-10.509-0.003-18.935,8.365-18.93,18.798c0.005,10.699,8.267,19.036,18.879,19.051
			c10.469,0.015,18.821-8.418,18.841-19.021C179.648,61.851,171.253,53.439,160.839,53.436z M136.931,174.791
			c10.342,0.001,18.961-8.571,18.969-18.868c0.008-10.284-8.638-18.961-18.902-18.969c-9.93-0.008-18.991,9.007-19.022,18.924
			C117.945,166.105,126.649,174.79,136.931,174.791z"/>
	</g>
</g>
</svg>
