<?xml version="1.0" encoding="utf-8"?>
<!-- Generator: Adobe Illustrator 18.1.1, SVG Export Plug-In . SVG Version: 6.00 Build 0)  -->
<svg version="1.1" id="Layer_1" xmlns="http://www.w3.org/2000/svg" xmlns:xlink="http://www.w3.org/1999/xlink" x="0px" y="0px"
	 viewBox="0 0 841.9 425.2" enable-background="new 0 0 841.9 425.2" xml:space="preserve">
<g>
	<path fill="#FFFFFF" d="M543.7,229.9c-16.8,8.5-34,15.6-52,20.9c1.9,0.2,3.7,0.4,5.6,0.5c1.5,0.1,3,0.1,4.5,0.3
		c0.5,0.1,1,0.6,1.4,1.3c-5.5,0-10.9,0.8-17.2-0.8c-4.3,1.1-9.6,2.4-14.9,3.7c0,0.1,0,0.3,0,0.4c0.4,0.2,0.8,0.3,1.2,0.5
		c0,0.1,0,0.2-0.1,0.2c-1.1-0.3-2.2-0.8-3.3-0.8c-2,0.1-4.1,0.6-6.1,0.9c-6.4,0.8-12.8,1.7-19.2,1.1c-1.7-0.2-3.4-0.1-5.1-0.1
		c-1.4,0-2.3-0.7-2.3-2c0-1.3,1.2-1.4,2.3-1.4c2.6,0,5.3,0,7.9,0c1.3,0,2.1-0.2,1.8-1.8c1.4,0.5,2.7,1.3,4,1.2
		c2.2,0,4.5-0.4,6.6-0.9c3.5-0.7,7.2-1.3,10.6-2.5c9.7-3.3,19.5-6.6,29-10.5c11.7-4.9,23.1-10.4,33.9-17c2.8-1.7,5.9-3.1,8.9-4.5
		c1-0.5,1.4-1,1.3-2.1c-0.4-3.8-0.8-7.6-1.2-11.8c-3.2,1.6-6.3,3-9.2,4.7c-3.7,2.1-7.2,4.5-10.7,6.8c-0.2,0.1-0.4,0.3-0.6,0.4
		c-0.9,0.5-1.7,0.9-2.5-0.3c-0.7-1.1-0.5-1.8,0.4-2.5c3.9-3,7.8-6.2,11.9-9.1c3.2-2.2,6.7-3.9,10.2-5.9c-0.6-6.3-1.3-12.9-2-19.5
		c-0.4-4.1-0.8-8.1-1.2-12.2c-0.3-3.1-0.3-3.2-3.4-3.5c-4.5-0.6-9-0.9-13.5-1.4c-0.4,0-1.1-0.6-1.1-1c-0.6-6.3-1.2-12.7-1.7-19.3
		c17.3,1.9,34.5,3.7,52,5.6c0.7,6.6,1.3,13.2,2,20.1c-5.6-0.6-11.1-1.2-16.8-1.8c0.7,8.5,1.5,16.9,2.2,25.5
		c15.8-8.3,32.3-12.3,50.1-11.6c-0.6-3.3-1.2-6.6-1.8-9.8c-0.6-3.2-1.3-6.4-2-9.6c-0.5-2.3,1.2-3.7,2.1-5.4c1.5-2.8,3.2-5.5,4.9-8.3
		c0.5-0.9,1.1-1.4,2.4-1.5c5.5-0.2,11-0.5,16.5-1.1c3.3-0.4,5.3,1.4,7.3,3.3c2.4,2.4,4.7,4.9,7.3,7.1c2,1.7,2.8,3.6,3.2,6.1
		c0.9,5.3,2.1,10.6,3.1,15.8c0.1,0.3,0.2,0.5,0.4,0.8c8.6-3.4,21.6-13.8,28.4-22.3c-3.1-5.3-6.1-10.6-9.3-16
		c3.4-2.3,6.7-4.6,10.1-6.8c0.4-0.3,1.3-0.2,1.7,0.2c2.6,2.3,5.1,4.7,7.7,7.2c0.8-1.7,1.6-3.4,2.4-5.1c-1.3-2.4-2.7-4.9-4.1-7.5
		c2.7-1.8,5.2-3.6,7.9-5.1c1.7-1,2.4-2.3,2.8-4.1c0.9-4,2-7.9,2.8-11.9c0.7-3.9,1.3-7.8,1.7-11.7c0.4-3.5,0.6-6.9,0.6-10.4
		c0-3.7-0.2-7.4-0.4-11.1c-0.1-2.8-0.3-5.6-0.4-8.4c0-0.4,0.5-1.2,0.8-1.2c0.5-0.1,1.3,0.2,1.5,0.6c0.4,0.8,0.6,1.7,0.7,2.6
		c1.4,9.4,1.9,18.8,1.6,28.3c-0.1,2,0.5,4,0.7,5.9c0.1,0.5,0,0.9-0.1,1.9c-0.4-0.7-0.5-1-0.8-1.6c-0.2,0.5-0.2,0.7-0.2,0.8
		c-0.7,5-1.3,10.1-2.2,15c-0.5,2.8-1.4,5.5-2,8.3c-0.1,0.6-0.2,1.4,0.1,1.9c3.7,6.2,7.4,12.4,11.4,19.2c3.7-4,7.4-7.5,10.4-11.4
		c4.8-6.3,9.2-12.8,13.7-19.3c1.2-1.8,2.1-3.8,3-5.8c0.5-0.9,0.9-2.1,2.2-1.6c1.3,0.5,1.3,1.7,0.7,2.8c-2.8,5.3-5.4,10.7-8.4,15.8
		c-5,8.6-10.7,16.6-17,24.2c-0.7,0.9-0.8,1.5-0.2,2.6c5.5,9.4,10.9,18.8,16.4,28.2c0.3,0.6,0.8,1.1,0.9,1.8c0.1,0.5,0,1.3-0.3,1.6
		c-3.4,2.5-6.8,4.9-10.2,7.2c-6.8-6.6-13.4-13-20-19.4c-0.1,0.1-0.3,0.2-0.4,0.3c4.5,7.9,9,15.7,13.5,23.7
		c-3.6,2.6-7.2,5.1-10.8,7.7c-6.3-10.9-12.6-21.6-18.9-32.5c-2.7,3-5.9,4.3-9.3,5.2c-1.4,0.4-2.2,0-2.8-1.2
		c-0.8-1.4,0.4-1.9,1.2-2.4c2.8-1.8,5.7-3.6,8.6-5.4c-1-1.7-2-3.4-3.1-5.5c-0.7,0.9-1.2,1.8-1.9,2.5c-2.4,2.4-4.8,4.7-7.3,6.9
		c-6.2,5.7-13.4,10-21,13.5c-0.4,0.2-0.9,1-0.9,1.4c1.4,6.7,2.8,13.4,4.2,20.2c0.2,0.8,1.4,1.5,0.5,2.5c0.4,0.3,0.7,0.7,1.1,0.8
		c12.6,2.8,24.8,7.1,36.9,11.7c0.3,0.1,0.7,0.3,1,0.5c1.1,1,2.2,0.9,3.2-0.2c0.3-0.4,0.9-0.6,1.3-0.9c0.1,0.1,0.3,0.3,0.4,0.4
		c-0.8,0.4-1.7,0.9-2.5,1.3c15.4,6.9,29.7,14.7,43.4,23.5c0.6-0.8,1.2-1.6,1.8-2.3c0.1,0.1,0.2,0.1,0.4,0.2
		c-0.4,0.9-0.8,1.7-1.3,2.7c2.5,1.7,4.7,3.8,7.4,5.1c3.2,1.5,5.3,4.1,7.7,6.3c7.5,6.6,14.8,13.5,22.1,20.3c0.4,0.3,0.9,0.7,0.9,1.1
		c0.1,0.7-0.2,1.4-0.3,2.1c-0.6-0.1-1.5,0-1.9-0.4c-3.4-3.1-6.7-6.4-10.2-9.4c-2.7-2.4-5.8-4.4-8.6-6.7c-2.5-2-4.7-4.2-7.2-6.1
		c-1.9-1.5-3.9-2.8-5.8-4.2c-0.2,0.1-0.3,0.2-0.5,0.3c0.5,1.7,1.2,3.4,1.6,5.1c0.6,2,0.3,2.1-1.8,1.8c-1.3-0.2-2.7,0-4.1,0
		c-0.4-0.5-1-1.2-1.7-2c1.7-1.6,3.5-3.4,5.6-5.5c-2-1.4-3.8-2.7-5.6-4c-1.1,1.7-2.1,3.3-3.1,4.8c-0.2-0.1-0.4-0.2-0.6-0.4
		c0.9-1.6,1.9-3.2,2.9-5c-0.5-0.3-0.9-0.5-1-0.6c-1.1,0.5-1.9,0.9-2.7,1.4c-0.2-0.1-0.3-0.2-0.5-0.2c0.9-3.1-1.3-3.9-3.2-5
		c-10-5.9-20.7-10.3-31.4-14.8c-0.4-0.2-0.9-0.2-1.5-0.4c0.2,0.5,0.3,0.8,0.5,1.2c-0.2-0.1-0.4-0.1-0.5-0.2
		c-1.8-1.1-3.4-2.4-5.3-3.2c-0.6-0.3-1.9,0.3-2.6,0.9c-2.2,1.6-4.3,3.4-6.4,5.1c-0.4,0.3-0.8,0.5-1.5,0.3c2.8-2.3,5.6-4.6,8.5-6.9
		c-3.4-2.1-28.3-9.2-32.7-9.1c1.2,3.8-1.6,6.2-3.1,9.1c-1,1.9-2.1,3.7-3,5.6c-0.6,1.3-1.5,1.9-2.9,2c-6.3,0.4-12.5,0.8-18.8,1.2
		c-0.7,0-1.5-0.2-2-0.6c-3.1-2.9-5.9-6.2-9.4-8.6c-3.8-2.7-3.8-6.7-4.7-10.5c-0.3-1.1-0.5-2.3-0.7-3.4c-14-1.2-46.2,4.1-54.2,9
		c0.5,5.3,1,10.7,1.6,16.3c-3.1-0.3-6.2-0.5-9.3-0.8c-2.2-0.2-4.4-0.4-6.5-0.4c-1.5,0-2-0.6-2-1.9
		C544.1,234.3,543.9,232.2,543.7,229.9z M609.4,188.3c-8.2-0.4-16.2,0.1-24.2,1.7c-8.9,1.8-17.6,4.3-25.8,8.4c-1,0.5-1.4,1-1.2,2
		c0.4,3.6,0.8,7.1,1.2,10.8c17.3-5.7,34.9-8.5,53.1-8.3C611.4,197.9,610.4,193.1,609.4,188.3z M636.6,189.5c-3.6-0.2-7-0.5-10.6-0.7
		c1.1,4.9,2.1,9.9,3.3,15.2c3.4,0.4,6.9,0.8,10.6,1.3C638.7,200,637.6,194.7,636.6,189.5z M634.5,180c-1.1-5.1-2-9.9-3.1-14.6
		c-0.1-0.4-0.9-0.9-1.3-0.9c-2.1,0-4.2,0.2-6.3,0.3c-2.5,0.1-2.5,0.1-1.9,2.7c0.1,0.3,0.1,0.6,0.1,0.9c0.7,3.6,1.5,7.2,2.2,10.7
		C627.7,179.4,631,179.7,634.5,180z M642.1,216.1c0-0.2,0-0.4,0.1-0.5c-3.4-1-7,0.1-10.5-1c0.3,0.9,0.8,2,1.2,2
		C636,216.5,639,216.2,642.1,216.1z M700.6,150.8c0.2-0.2,0.4-0.5,0.7-0.7c-1.5-2.5-2.9-5-4.4-7.4c-0.2,0-0.3,0-0.5,0.1
		c-0.2,0.9-0.8,2.1-0.4,2.7C697.3,147.3,699,149,700.6,150.8z"/>
	<path fill="#FFFFFF" d="M197.2,203.5c-3.4-0.4-6.4-0.7-9.4-1.1c-2.3-0.3-4.7-0.7-7-0.8c-0.4,0-1.3,0.7-1.3,1.1
		c-0.6,3.7-0.9,7.4-1.4,11.1c-0.2,1.4-0.3,2.3-2.5,1.9c-3.8-0.8-7.8-0.9-11.7-1.3c-2.5-0.2-4.9-0.4-7.3-0.8
		c-0.5-0.1-1.2-0.9-1.3-1.4c-1.8-9.2-3.5-18.4-5.2-27.6c-0.3-1.3-0.7-2.6-1-3.5c0,3.3,0,6.9,0,10.6c0,0.7-0.4,1.3-0.6,2
		c-0.2,0-0.4-0.1-0.7-0.1c-0.1-2-0.2-3.9-0.3-5.9c-0.1,0-0.2,0-0.3,0c-0.3,1.9-0.5,3.9-0.9,6.1c1.2,0.2,2.2,0.5,3.2,0.5
		c1.3-0.1,1.7,0.4,1.6,1.7c-2.1-0.2-2.1,1.2-2.1,2.8c0,3.8-0.2,7.6-0.3,11.4c-0.2,0-0.4,0-0.6,0c-0.1-3.9-0.2-7.7-0.3-11.6
		c0-0.5,0.1-1,0-1.5c-0.2-0.5-0.6-0.9-0.9-1.3c-0.4,0.4-1.1,0.7-1.2,1.2c-0.5,2.8-0.8,5.5-1.2,8.3c-0.2,1.7-0.6,3.3-0.9,5.3
		c3.5,0.4,6.9,0.8,10.3,1.2c0.1,0.4,0.2,0.9,0.3,1.5c-0.2,0-0.5,0.2-0.7,0.1c-6.9-0.8-13.8-1.7-20.7-2.5c-3.5-0.4-6.9-0.7-10.4-1.1
		c-1-0.1-1.7-0.5-1.9-1.7c-1.6-8.7-3.4-17.3-5.1-25.9c-1.5-7.9-2.9-15.9-4.4-23.8c-2-10.6-4.1-21.3-6.1-31.9
		c-1.4-7.3-2.6-14.6-3.9-22.2c1.4,0.1,2.7,0.2,4,0.4c5.1,0.7,10.1,1.3,15.2,2.1c2.6,0.4,5.2,1.2,7.9,1.7c4.3,0.8,8.7,2.1,12.9,1.8
		c3.4-0.2,6.6,0.3,9.9,0.7c2.8,0.3,5.5,1.3,8.3,1.8c3.5,0.6,7,1,10.6,1.5c1,0.1,1.7,0.3,1.1,1.7c-5.6-0.7-11.2-1.4-16.9-2.1
		c0.3,2.9,0.5,5.8,0.8,8.6c0,0.3,0.3,0.8,0.6,0.9c2.5,0.9,4.9,2.3,7.7,2.2c0.5,0,1,0.2,1.5,0.2c0,0.2,0,0.4-0.1,0.6
		c-3-0.4-5.9-0.7-8.9-1.1c-0.2,2.5,0.1,2.9,2.4,3.3c3.1,0.5,6.3,1.1,9.4,1.8c0.4,0.1,0.7,0.9,1.3,1.8c-4.5-0.6-8.2-1-12.2-1.5
		c0,2.9-0.1,5.3,2.7,7.2c2.2,1.5,4,3.5,6,5.4c0.5,0.4,0.6,1.2,0.9,1.9c-0.2,0.1-0.3,0.2-0.5,0.3c-2.6-2.2-5.2-4.4-8.2-7
		c0.5,2.4,0.8,4.5,1.3,6.6c0.1,0.3,0.7,0.6,1,0.7c2,0.3,4,0.5,6.3,0.8c2.1-10.8,4.2-21.6,6.3-32.6c2.6,0.4,5.4,0.7,8.1,1.1
		c3.4,0.5,6.7,1,10.1,1.4c2.5,0.3,2.6,0.3,2.3,2.8c-0.4,2.8-0.8,5.5-1.3,8.5c1.1,0.3,2.2,0.5,3.4,0.8c0,0.5,0.1,1.1,0.2,1.9
		c-0.7,0-1.3,0.1-1.9,0c-2.5-0.3-2.5-0.4-2.9,2c-0.9,5.9-1.8,11.8-2.7,17.6c-0.6,3.8-1.2,7.7-1.9,11.5c-0.2,1.2,0.3,1.9,1.1,2
		c1,0.1,1,0.7,1.2,1.3c0.3,0.9,0.4,1.4-0.8,1.6c-0.7,0.1-1.3,0.6-1.9,1c0.3,0.5,0.4,1.2,0.8,1.4c0.4,0.3,1.2,0.5,1.6,0.3
		c2.2-0.9,2.3-0.7,3.9,1.4c0.6,0.8,2,1.7,3.6,1.3c0.4-0.1,0.9,0.2,1.3,0.3c0,0.2-0.1,0.4-0.1,0.6c-0.4-0.1-0.8-0.1-1.4-0.2
		c0.5,0.7,0.9,1.3,1.5,2.2c-2,0-3.6,0-5.1,0c-0.2,0.7-0.4,1.4-0.8,2.5c0.1,0.2,0.5,0.8,0.9,1.4c0.1-0.1,0.3-0.2,0.4-0.2
		c-0.2-0.4-0.4-0.9-0.7-1.5c2.1-0.7,1.9,2,3.6,2c-0.8,0.7-1.2,1.4-1.8,1.6c-1.4,0.5-2.9,0.7-4.3,0.9c-0.3,0-0.7-0.4-1-0.6
		c0.6-0.7,1.1-1.3,1.6-2c-0.1-0.1-0.3-0.2-0.4-0.3c-0.3,0.3-0.7,0.5-1,0.8c-0.4-0.8-0.7-1.4-1-2.1c-0.1-1.1,1.3-2.2,0.5-3.9
		c0.4,0,0.8,0,1.4,0c0,0.9,0,1.8,0,3c0.7-0.5,1.4-0.8,1.4-1.1c0.1-0.5-0.3-1-0.7-1.5c-0.6-0.8-1.3-1.5-1.9-2.5
		c-0.9-0.4-2.4,0.9-3-1.1c-0.8,5.1-1.8,10.1-2.2,15.2c-0.5,5-3,9.8-2.2,14.9c5.5,0.9,10.9,1.7,16.3,2.5
		C196.7,202.4,196.8,202.8,197.2,203.5z M122.9,109.3c0.5,2.7,1,4.9,1.3,7.2c0.3,1.7,1.2,2.6,3,2.8c2.1,0.2,4.1,0.7,6.1,0.9
		c1.1,0.1,1.3,0.6,0.8,1.7c-3-0.4-5.9-0.7-9.2-1.1c1.1,2.8,3.5,1.6,4.9,2.4c0.1,0.4,0.1,0.8,0.1,1.1c-1.2-0.1-2.4-0.2-3.6-0.3
		c0,0.2,0,0.3,0,0.5c4.2,0.6,8.4,1.2,12.9,1.8c0.6-4.9,1.1-9.7,1.7-14.6C135.1,110.9,129.2,110.1,122.9,109.3z M128.6,136.9
		c3-1.7,5.9-3.2,8.8-4.8c0.2,0.2,0.3,0.4,0.5,0.6c-0.7,0.7-1.3,1.7-2.1,2.2c-1.9,1.2-3.9,2.2-5.8,3.4c-0.5,0.3-1,1.4-0.9,1.8
		c0.2,0.6,1,1.3,1.7,1.4c1.4,0.3,2.8,0.2,4.2,0.5c0.5,0.1,0.9,0.7,1.4,1c-0.5,0.2-1,0.7-1.5,0.7c-1.6,0-3.1-0.3-4.6-0.4
		c0.3,2.3,0.4,4.4,0.7,6.5c0.4,2.1,1.1,4.1,1.4,6.2c0.3,1.9,2.2,3.4,1.2,5.6c-0.1,0.1,0.2,0.4,0.5,0.8c1.7-11.7,3.3-23.2,4.9-34.5
		c-4.4-0.6-8.4-1.1-12.5-1.7C127.2,129.9,127.9,133.2,128.6,136.9z M159,147.1c0.5,3.4,0.8,6.6,1.5,9.6c0.4,2,0,4.2,1.8,5.8
		c0.2,0.2,0.1,0.8,0,1.2c-0.1,0.9-0.3,1.7-0.5,2.6c0.2,0,0.4,0.1,0.5,0.1c1.1-6.2,2.2-12.4,3.3-18.6
		C163.4,147.6,161.4,147.4,159,147.1z"/>
	<path fill="#FFFFFF" d="M418.8,151.4c1.7,0.9,1.8,2.8,1.3,4c-0.8,1.9,0.1,2,1.8,2.1c-1.8,0.7-1.4,1.8-1.1,2.8
		c1.2,3.7,2.3,7.4,3.6,11c0.9,2.4,2,4.7,2.9,6.9c-0.6-12-1.2-24.1-1.8-36.5c3.7,0.5,7.3,1,10.8,1.5c2.2,0.3,4.3,0.6,6.4,1
		c0.5,0.1,1.2,0.8,1.3,1.3c0.4,5.7,0.8,11.4,1.1,17.1c0.4,7.5,0.8,14.9,1.2,22.4c0.3,5,0.5,10,0.8,14.9c0.3,5.5,0.7,10.9,1,16.4
		c0.3,5.6,0.5,11.2,0.8,16.8c0.1,2.4,0.3,4.7,0.4,7.3c-4.1-0.4-8-0.9-12-1.3c-1.9-0.2-3.8-0.4-5.6-0.5c-1.6-0.1-1.7-1.6-2.1-2.6
		c-1.5-3.8-2.9-7.7-4.4-11.6c-0.9-2.6-1.8-5.2-2.7-7.8c-1.4-4-2.9-7.9-4.3-11.9c-0.4-1.3-0.7-2.6-1.1-3.9c-0.1,0-0.3,0.1-0.4,0.1
		c0.6,12,1.2,24,1.8,36.1c-6.4-0.8-12.6-1.5-19-2.2c-0.2-1.4-0.4-2.7-0.5-4.1c-0.2-3.8-0.2-7.6-0.4-11.3c-0.3-6.6-0.7-13.2-1.1-19.8
		c-0.4-6.9-0.7-13.9-1.1-20.8c-0.2-4.4-0.5-8.8-0.7-13.1c-0.4-8.3-0.7-16.7-1.1-25c0-1-0.3-1.9-0.4-3.1c3.6,0.4,7,0.8,10.4,1.3
		c2.4,0.3,4.7,0.7,7.1,1c2,0.2,2.7,1.3,3.2,3.2c1.1,4.1,2.4,8.1,4.3,11.9c0.1,0,0.3-0.1,0.4-0.1C419.3,153.7,419,152.5,418.8,151.4
		L418.8,151.4z"/>
	<path fill="#FFFFFF" d="M223.9,113c-1.1,1.2-0.8,3.5,0.7,3.8c2.4,0.5,4.9,0.8,7.3,1.1c5.3,0.7,10.6,1.5,15.8,2.2
		c0.9,0.1,1.3,0.5,1.3,1.6c0,3.9,0.2,7.9,0.3,11.8c0,0.9,0,1.7,1.2,2.1c0.5,0.1,0.8,1,1.4,1.8c-1.1,0-1.7,0-2.5,0c0,1.4,0,2.8,0,4.4
		c-8.9-1.2-17.6-2.4-26.5-3.6c0,1.9,0,3.5,0,5.1c0.1,3.4,0.2,6.8,0.3,10.2c0,2.6,1.3,3.4,3.7,2c1.7-1,3.4-2,5.2-3.1
		c0.3,0.5,0.6,0.8,0.9,1.3c-1.3,0.8-2.5,1.6-4.2,2.7c5.2,0.7,9.9,1.3,14.7,1.9c0.2-1.2,0.7-2.4,0.5-3.6c-0.2-1.7,1-3.6-0.5-5.3
		c-0.1-0.2,0.5-1,0.8-1.6c0.1,0.1,0.3,0.1,0.4,0.2c0.2,3.4,0.3,6.9,0.5,10.4c0.7,0.1,1.5,0.2,2.6,0.3c0-1.9,0-3.7,0-5.5
		c0.2,0,0.5,0,0.7,0c2.2,9.1,1.6,18.5,2,27.8c-8.9-1.2-17.7-2.3-27.1-3.6c0.5,3.6,0.9,6.8,1.2,10c0.1,0.7-0.2,1.5-0.3,2.2
		c-0.1,1.1-0.1,2,1.4,2.1c1,0.1,1.9,0.6,3.2,1.1c-0.4-1-0.6-1.5-0.9-2.3c0.9,0.4,1.5,0.8,2.2,1.1c-0.6,1.4-0.1,3.9,1.1,4.2
		c1.3,0.3,2.8,0.1,4.8,0.1c2.1,1.9,5.4,1,8.4,1.8c0.3-4.9,0.6-9.5,0.8-14.3c0.1,0.2,0.4,0.3,0.4,0.5c0.2,3.9,0.3,7.8,0.4,11.7
		c0,0.7,0.2,2,0.6,2.1c0.9,0.2,1.9-0.1,3.2-0.3c2.5,3.3,0.5,7.8,1.7,11.7c0.6,0.1,1.2,0.2,1.7,0.3c0,0.1,0,0.2,0,0.3
		c-0.6,0-1.2,0.1-1.8,0.1c0,3.5,0,7,0,10.6c-15.9-1.8-31.9-3.7-48.1-5.6c-0.7-33.8-1.5-67.4-2.2-101.4c4.6,0.6,9,1.3,13.5,1.9
		c-0.2-0.8-0.4-1.5-0.6-2.1c-1.5,0.4-1-0.8-1.2-1.5c0.4,0.2,0.7,0.4,1.2,0.7c0.4-0.8,0.8-1.6,1.3-2.4c0.4,0.4,0.9,0.8,1.3,1.2
		c0.4-1.2,0.8-2.3,1.4-3.8c0.6,1.7,1,2.9,1.6,4.4c0.9-0.9,1.6-1.5,2.3-2.3c0.1,0.5,0.3,1.1,0.5,1.9c0.2-0.4,0.3-0.6,0.4-0.9
		c0.2,0,0.3,0,0.5,0C223.8,111.4,223.8,112.2,223.9,113L223.9,113z M227.5,195.7c0.1-0.2,0.2-0.5,0.3-0.7c-1-0.3-2.1-0.6-3.1-0.9
		c-0.1,0.3-0.2,0.6-0.2,0.9C225.5,195.2,226.5,195.5,227.5,195.7z"/>
	<path fill="#FFFFFF" d="M485.9,216.9c0-2,0-3.7,0-5.4c0-1.5-0.2-2.9-0.3-4.4c-2-0.4-3.9-0.7-6.1-1.1c0-6.7,0-13.4,0-20.4
		c1.6,0.2,3.6,0.5,5.5,0.8c5.3,0.8,10.7,1.7,16,2.5c1.6,0.2,2.2,0.7,2.2,2.5c0.1,3.1,0.6,6.1,0.9,9.2c0.1,0.9-0.1,1.8-0.1,2.6
		c0,3.3,0,6.6,0,10.4c3.6-2.2,6.7-4.2,9.8-6.2c0.1,0.2,0.2,0.3,0.3,0.5c-1.1,0.7-2.1,1.5-3.2,2.2c-1.8,1.2-3.5,2.3-5.4,3.4
		c-1.1,0.6-1.3,1.4-1.2,2.5c0.2,3.1,0.4,6.2,0.4,9.3c0,0.9-0.4,2.1-1,2.7c-2.9,3.1-6,6.2-9,9.2c-0.9,0.9-1.6,1.4-3.1,1.2
		c-6.2-1.1-12.4-2-18.7-2.9c-1-0.1-1.9-0.2-2.8-0.4c-0.8-0.3-1.8-0.6-2.3-1.2c-3.1-3.7-6.1-7.6-9.1-11.4c-0.3-0.3-0.7-0.5-0.9-0.9
		c-0.7-1.2-1.7-2.5-1.8-3.8c-0.6-15.1-1-30.3-1.5-45.4c-0.2-6.8-0.4-13.7-0.5-20.5c0-0.7,0.4-1.6,0.9-2.2c1.2-1.5,2.5-2.9,3.9-4.2
		c2.1-1.9,4.1-3.9,6.4-5.5c0.7-0.5,2.2,0,3.3,0.2c4.5,0.8,9,1.6,13.5,2.3c0.7,0.1,1.5-0.5,2.3-0.8c0.2,1.9,2.1,1.9,3.3,1.8
		c3-0.1,3.9,2.2,5.4,3.9c1.8,2,3.3,4.3,4.9,6.4c1.3,1.8,2.8,3.5,4.1,5.2c0.3,0.4,0.3,1,0.3,1.6c0.1,2.9,0.2,5.7,0.2,8.6
		c0,1,0.3,1.2,1.2,1.3c1.9,0.2,3.8,0.5,5.7,0.7c0,0.1,0,0.3-0.1,0.4c-2.2-0.3-4.3-0.6-6.7-0.9c0,2.5-0.1,4.9,0,7.3
		c0.1,1.3,0,1.6-1.4,1.3c-5.3-1-10.7-1.8-16-2.7c-0.4-0.1-1-0.8-1-1.3c-0.2-3.6-0.3-7.2-0.4-10.8c0-1.1-0.2-1.7-1.6-1.8
		c-2.9-0.4-5.8-1.1-8.7-1.7c-0.8-0.2-1.2,0.2-1.2,1.1c0.3,7.5,0.5,15.1,0.7,22.6c0.2,5.2,0.3,10.5,0.4,15.7c0.1,4.3,0.2,8.7,0.4,13
		c0,1.1,0.3,1.7,1.7,1.8C479.1,215.8,482.4,216.4,485.9,216.9z"/>
	<path fill="#FFFFFF" d="M257.7,116c7.1,0.9,13.6,1.8,20.7,2.7c0,4.1,0,8.3,0,12.4c0,2.3,0.2,4.5,0.3,6.8c0,1.2,0.5,1.9,1.8,2
		c3.6,0.4,7.1,0.8,10.6,1.3c4.8,0.7,9.5,1.4,14.3,2.1c0.5,0.1,0.9,0.7,1.4,1c-0.1,0.2-0.2,0.3-0.3,0.5c-9.2-1.2-18.4-2.4-27.8-3.7
		c0.6,18.6,1.2,36.9,1.9,55.3c4.2,0.5,8.3,1,12.3,1.5c4.2,0.5,8.4,1.1,12.6,1.7c1.3,0.2,2,0.7,2,2.2c0,3.8,0.1,7.7,0.4,11.5
		c0.1,1,0.8,1.9,1.2,3c0,0-0.6,0.1-1.3,0.2c0.1,1.2,0.1,2.5,0.3,3.7c0.1,1-0.2,1.3-1.2,1.2c-6.1-0.7-12.3-1.4-18.4-2.2
		c-3.1-0.4-6.2-0.9-9.3-1.3c-3.1-0.4-6.2-0.6-9.3-0.9c-2.9-0.3-5.8-0.7-8.8-1.1C259.8,182.7,258.7,149.4,257.7,116z"/>
	<path fill="#FFFFFF" d="M312.8,119.7c6.6,0.9,12.9,1.8,19.3,2.7c0.1,0.8,0.3,1.6,0.4,2.5c0.4,7.7,0.8,15.5,1.1,23.2
		c0.2,6.6,0.2,13.2,0.5,19.8c0.4,10.2,1,20.3,1.5,30.5c0,0.2,0.1,0.5,0.2,0.7c4.1,0.5,8.2,1.1,12.2,1.6c4,0.5,8.1,0.8,12.1,1.2
		c0.8,0.1,1.6,0.4,1.6,1.6c0.2,6.5,0.5,13,0.8,19.5c0,0.2-0.1,0.5-0.1,0.8c-3.3-0.4-6.5-0.8-9.8-1.1c-4.3-0.5-8.5-0.9-12.8-1.4
		c-5.4-0.6-10.7-1.3-16.1-1.9c-1.9-0.2-3.8-0.5-5.7-0.6c-1.1-0.1-1.5-0.5-1.5-1.6c-0.3-9.9-0.7-19.8-1.1-29.7
		c-0.5-13.3-1-26.6-1.5-39.9c-0.3-8.2-0.7-16.5-1-24.7C312.7,121.9,312.8,120.9,312.8,119.7z"/>
	<path fill="#FFFFFF" d="M382.5,154.3c1.3,0.3,2.4,0.5,3.4,0.7c0,0.1,0,0.1,0,0.2c-0.5,0-1,0-1.6,0c-0.6-0.1-1.1-0.2-1.9-0.4
		c0,2.2-0.1,4.3,0,6.4c0.3,6.7,0.7,13.5,1,20.2c0.4,7.7,0.7,15.4,1.1,23.2c0.3,6.8,0.7,13.5,1,20.3c0,0.8,0,1.7,0,2.2
		c-2.4-0.4-5-0.9-7.7-1.2c-3.5-0.5-6.9-0.7-10.4-1.3c-0.5-0.1-1.2-1.3-1.3-2c-0.3-3.3-0.3-6.6-0.4-9.9c-0.3-6.9-0.5-13.8-0.7-20.7
		c-0.2-6.4-0.5-12.8-0.7-19.2c-0.5-10.3-1-20.6-1.5-30.9c-0.3-5-0.6-10.1-0.9-15.4c6.3,0.9,12.5,1.8,18.9,2.7
		C381.5,137.6,382,145.9,382.5,154.3z"/>
	<path fill="#FFFFFF" d="M151.2,263.4c-0.5,0.6-1,1.2-1.8,2.1c-0.3-0.9-0.5-1.6-0.7-2.3c-0.4,0.5-0.7,0.9-1.2,1.5
		c-0.5-1-1.3-1.4-0.3-2.7c1.1-1.4-0.2-3.9-2.1-4.5c0.4-0.3,0.7-0.7,0.9-0.8c-0.5-1.2-1.2-2.2-1.3-3.2c-0.1-6.4-0.1-12.8-0.1-19.5
		c7.7,1.1,15.7,2.2,23.9,3.4c0,4.1,0,8.1,0,12.1c0,1.5,0.3,3,0.3,4.5c-0.1,2.5-0.2,5-0.6,7.4c-0.2,0.8-1.4,1.5-2.5,2.6
		c1.3-0.6,2.2-1,3-1.4c0.1,0.1,0.3,0.1,0.4,0.2c-0.4,0.9-0.6,2-1.2,2.5c-0.7,0.6-1.6,0.2-2.5-0.4c-0.9-0.5-2.4,0-3.9,0.1
		c-0.3-0.7-0.8-1.8-2-0.8c-0.7-1-1.4-1.9-1.9-2.7c-1.1,1.2-2.3,2.3-3.4,3.5c-1.1,1.2-2.3,1.8-4.4,0.9c1.1-0.5,1.8-0.8,2.6-1.2
		C152.2,264.2,151.7,263.9,151.2,263.4z"/>
	<path fill="#FFFFFF" d="M752.3,232c-1.9,3-3.9,6.3-5.9,9.5c-0.2-0.1-0.4-0.3-0.6-0.4c1.9-3.2,3.8-6.3,5.6-9.5
		c-3.7-1.5-7.4-2.9-10.9-4.5c-8.2-3.9-15.9-8.7-23-14.4c-0.9-0.7-2.5-1.6-1.5-2.9c1.1-1.3,2,0.4,3,1c2.4,1.4,4.8,2.8,7.2,4.3
		c3.5,2,6.8,4.4,10.5,6.1c5.5,2.5,11.2,4.6,16.9,7c1.1-1.6,1.9-3,2.8-4.3c0.2,0.1,0.4,0.2,0.6,0.3c-0.7,1.2-1.3,2.4-2.2,4.1
		c2.8,0.4,5.5,0.9,8.2,1.2c3.3,0.4,6.7,0.9,10,1.2c7.8,0.6,14.7-1.1,19.4-8.1c2.2-3.3,2.3-6.9,2-10.5c-0.3-3.7-1.4-7.2-3.6-10.2
		c-2.9-3.9-6.5-7.2-11.3-8.5c-2.5-0.6-5,0.1-7,1.7c-3.8,3-4.5,7.2-2.7,12.2c0.3,0.9,0.9,1.6,1.1,2.5c0.1,0.5-0.2,1-0.3,1.5
		c-0.5-0.2-1.2-0.3-1.3-0.6c-0.9-2-1.8-3.9-2.4-6c-0.8-2.8-0.2-5.5,0.8-8.2c2.1-5.7,8.3-7.9,14-6c2,0.7,4,1.6,6,2.4
		c-0.2,0.1-0.5,0.2-0.6,0.2c1.7,2.1,3.6,4.1,5.3,6.3c4.8,6.1,5.7,13.1,4.6,20.4c-1,6-8.4,12.8-14.9,14.3c-5.7,1.3-11.5,1-17.2,0
		C760.5,233.5,756.5,232.7,752.3,232z"/>
	<path fill="#FFFFFF" d="M743.7,321.3c0.4-0.7,0.6-1.1,0.8-1.4c-0.1-0.1-0.1-0.2-0.2-0.3c-0.5,0.5-1.1,0.9-1.8,1.5
		c0-0.6,0.1-1,0.1-1.7c-0.7,0.5-1.2,0.8-1.5,1c-0.7-0.5-1.5-0.9-2-1.4c-1-1-1.6-2.2-1.7-3.8c-0.5-6-1.2-12-1.9-18.2
		c7.1,0.6,13.8,1.2,20.9,1.8c0.3,3,0.6,6.1,0.9,9.2c0.2,2,0.2,4,0.3,6c0.1,1.9-2,4-3.9,4.1c0-0.5,0.1-1.1,0.2-1.8
		c-1.8,1.3-2.8,5.1-6,2.1C746.6,319.2,745.4,320.1,743.7,321.3z"/>
	<path fill="#FFFFFF" d="M694.3,243.7c0.4,1.6,0.8,2.9,1.2,4.3c-3.6-0.2-7.2-0.4-10.7-0.7c-0.4,0-0.9-0.7-1-1.2
		c-0.2-0.9,0-1.9,0-3.1c0.8,0,1.6,0.1,2.3,0c0.7-0.1,1.3-0.5,2-0.7c0.3-0.1,0.6-0.3,0.8-0.3c3.5,0.3,6.9,0.5,10.4,0.9
		c0.6,0.1,1.2,0.7,1.8,1.1c0.3,0.2,0.6,0.5,0.9,0.5c3.1,0.3,6.2,0.6,9.3,0.7c3.1,0.1,3.1,0.1,3.3,3.1c0,0.4,0,0.7,0,1.4
		c-5.1-0.4-10.1-0.8-15.3-1.3c-0.1-1-0.4-1.9-0.3-2.9c0.2-1.7-0.7-1.9-2-1.9C696,243.7,695.3,243.7,694.3,243.7z"/>
	<path fill="#FFFFFF" d="M104.6,396.8c-1.1,0.1-3,0.9-2.9-1.7c1.7-1.3,1.9-3.2,2-5.1c-0.6-0.6-1.7-1.2-1.9-1.9
		c-0.2-0.8,0.6-1.8,0.9-2.8c0.4,0.9,0.9,1.8,1.4,2.7c1-0.9,1.8-1.5,2.7-2.3c0.1,0.8,0,1.4,0.2,1.8c0.9,1.7,1.2,3.2,0.2,5
		c-0.3,0.6,0.7,1.8,0.8,2.8c0.1,0.9,0.2,2-0.3,2.7c-0.4,0.6-1.6,0.8-2.4,0.7C105.2,398.8,105,397.6,104.6,396.8z"/>
	<path fill="#FFFFFF" d="M504.1,263.3c0.3,1.1,0.6,1.9,0.9,2.8c-2.6,1.3-5.3,0.6-8,0.5c-2.3-0.1-4.6-0.7-7-0.9
		c-1.8-0.2-0.9-1.5-1.4-2.4C493.9,263.3,498.9,263.3,504.1,263.3z"/>
	<path fill="#FFFFFF" d="M94.6,363.6c-0.9-0.4-1.5-0.7-2.1-1c-0.1,1.5,1,2,2.8,1.5c0.4,1.1,0.7,2.2,1.2,3.7c-2.9-1-6.2,0.7-7.7-3
		c0.4,0.1,0.7,0.2,1.1,0.2c-0.2-1.1-0.5-2.1-0.6-2.7c1.1-0.2,2-0.2,2.8-0.6C93.6,361,94.6,361.5,94.6,363.6z"/>
	<path fill="#FFFFFF" d="M695.8,257.3c-0.1-0.6-0.1-1.2-0.2-1.8c0.6,0.1,1.1,0.1,1.7,0.2c0.1-0.7,0.1-1.4,0.2-2.2
		c1.5,0.1,3.1,0,4.6,0.3c0.4,0.1,0.9,0.9,1,1.4c0.1,0.4-0.5,0.9-0.9,1.3c-0.1,0.1-0.3,0.1-0.5,0.1
		C699.7,256.7,697.8,257,695.8,257.3z"/>
	<path fill="#FFFFFF" d="M672.7,242.1c-1.4,1.1-2.7,2.2-4.1,3.2c-0.3,0.2-0.9-0.2-1.4-0.2c-0.6-0.1-1.1-0.1-1.7-0.2
		c0,0.2-0.1,0.3-0.1,0.5c-0.3-0.4-0.5-0.8-0.8-1.2C664.5,241.9,668.5,240.8,672.7,242.1z"/>
	<path fill="#FFFFFF" d="M191,186.5c0-0.6-0.3-1.2-0.1-1.7c0.5-1.2,0.4-1.7-1.2-1.5c0.2-0.7,0.3-1.4,0.5-2.3c2.5,2,4.8,3.7,7,5.4
		c-0.7,0.6-1.7,1-2.1,1.8c-0.2,0.6,0.4,1.5,0.8,2.7c-1.4-1.4-2.5-2.3-1.7-4c0.2-0.5-0.1-1.5-0.5-2.1c-0.2-0.3-1.2-0.7-1.3-0.5
		c-0.5,0.5-0.7,1.2-1.1,1.9C191.3,186.3,191.1,186.4,191,186.5z"/>
	<path fill="#FFFFFF" d="M89.7,141.2c-1.7-0.3-3.2-0.6-4.8-0.9c0.3,0.5,0.6,0.9,1.1,1.7c-0.9-0.5-1.6-0.6-1.8-1
		c-2.2-3.8-2.5-4.9-1.6-6.9c0.5,1.1,0.8,2.3,1.4,3.4c0.2,0.4,0.7,1,1.1,1.1C87.7,139.1,87.7,139.1,89.7,141.2z"/>
	<path fill="#FFFFFF" d="M105.1,362.7c0.4-3.1-2.9-2-3.7-3.8c0-0.1-1.1,0-1.1,0.2c-0.1,0.4,0,0.9,0.1,1.9c-1.3-1-2.6-1.5-3.1-2.6
		c-0.7-1.3,0.5-2.2,1.7-3c0.4,0.8,0.8,1.6,1.1,2.3c0-0.2,0.1-0.4,0.1-0.5c0.5,0,1.2-0.1,1.5,0.1c1.3,1.1,2.4,2.3,3.5,3.5
		c0.3,0.4,0.4,1,0.5,1.5C105.6,362.4,105.4,362.6,105.1,362.7z"/>
	<path fill="#FFFFFF" d="M529.4,253.4c0.4-0.3,0.7-0.7,1.1-1c0.1-0.1,0.4,0,0.5,0c3.7,0.1,7.5,0.2,11.2,0.3c0.3,0,0.5,0.4,0.8,0.6
		c-0.2,0.2-0.4,0.6-0.7,0.6c-0.6,0.1-1.3,0.2-2,0.1c-2.6-0.3-5.1-0.7-7.7-0.8c-1-0.1-2,0.4-3,0.7
		C529.6,253.8,529.5,253.6,529.4,253.4z"/>
	<path fill="#FFFFFF" d="M590.6,229.8c-7.2,4.4-14.3,8.8-21.5,13.2c-0.1-0.2-0.2-0.4-0.4-0.6c7.2-4.4,14.4-8.8,21.6-13.2
		C590.4,229.4,590.5,229.6,590.6,229.8z"/>
	<path fill="#FFFFFF" d="M248.7,142.1c-0.1,1-0.1,1.6-0.2,2.2c-0.6,0-1.1,0-1.1,0c-2,1.5-3.6,2.7-5.4,4c-0.5-0.6-0.8-1-1-1.3
		C243.1,144.9,245.9,143.8,248.7,142.1z"/>
	<path fill="#FFFFFF" d="M798.2,259.7c-0.8-7.9-1.6-15.9-2.4-23.8C797.5,243.3,798.7,255.6,798.2,259.7z"/>
	<path fill="#FFFFFF" d="M129.2,397.3c0.1,0-0.2,0-0.4-0.1c0.3-1.2,0.5-2.3,0.7-3.5c1.6-0.5,2.3,0.2,2.1,2.1
		c-0.2,1.9-0.2,3.9-0.4,5.8C130.6,400.3,130,398.9,129.2,397.3z"/>
	<path fill="#FFFFFF" d="M660.1,245c-1.3-0.1-2.5-0.2-4.1-0.4c0.6-1,1.1-1.8,1.6-2.6c0.5-0.9,1.2-1.9,2.2-1.2
		c0.6,0.5,0.7,1.7,0.8,2.7C660.7,244,660.3,244.5,660.1,245z"/>
	<path fill="#FFFFFF" d="M678.8,242c0.2,1.7,0.3,3,0.5,4.7c-1.9-0.2-3.5-0.3-5.7-0.5C675.5,244.6,677,243.4,678.8,242z"/>
	<path fill="#FFFFFF" d="M93.8,396.8c2.6-0.4,4.5-0.7,6.2,1.3c-1.3,0.6-2.5,1.8-3.5,1.6C95.7,399.7,95,398.1,93.8,396.8z"/>
	<path fill="#FFFFFF" d="M186,191.6c0-0.4,0-1,0.1-1.8c2.1,0.9,4.2,1.8,6.3,2.7c-1.3,2-1.9,2-3.5,0.7
		C188.1,192.5,187,192.2,186,191.6z"/>
	<path fill="#FFFFFF" d="M721.7,246c1.3,0.1,2.6,0.2,3.8,0.3c0.6,2.8,0.6,3.1-3.7,2.8C721.8,248.1,721.8,247,721.7,246z"/>
	<path fill="#FFFFFF" d="M505.3,290.3c8.6-0.2,7.7-0.4,7.8,1.4c-2.3,0-4.5,0-6.8-0.1C506,291.6,505.7,290.9,505.3,290.3z"/>
	<path fill="#FFFFFF" d="M104.5,379.8c-2.8-0.7-2.1-3.3-2.8-5.7c1.1,0.4,1.9,0.7,2.8,0.9c0,0.2-0.1,0.4-0.1,0.6
		c-0.3,0.1-0.7,0.1-0.9,0.3c-0.2,0.2-0.3,0.6-0.4,0.9C105.6,377.1,104,378.9,104.5,379.8z"/>
	<path fill="#FFFFFF" d="M99.6,163.8c0.2,1.1,0.4,2,0.7,3c-1.2,0.7-2.2-0.4-3.2-1.3c-0.3-0.3-0.5-1-0.4-1.3c0.1-0.3,0.7-0.7,1.2-0.7
		C98.5,163.5,99.3,163.8,99.6,163.8z"/>
	<path fill="#FFFFFF" d="M658.4,253.3c-0.6,0.4-1,1-1.5,1.1c-0.4,0.1-1-0.4-1.5-0.7c-0.1,0,0-0.2,0-0.3c-0.1-1.2-0.1-2.5-0.2-4.3
		C656.4,250.7,657.3,251.9,658.4,253.3z"/>
	<path fill="#FFFFFF" d="M89.2,307.6c1-0.1,1.9-0.2,2.4-0.3c-0.1,0.9-0.1,1.9-0.2,3.1c-0.3-0.3-0.5-0.6-1.2-1.4
		c0.1,1.3,0.2,2.1,0.3,2.8C88.4,310.9,88.2,310.2,89.2,307.6z"/>
	<path fill="#FFFFFF" d="M785.1,269.5c2.5-0.4,5.1,0.8,7.6,0c0.9,0.5,1.9,1,2.9,1.5c0,0.2-0.1,0.4-0.1,0.6
		C791.9,270.8,788.5,270.1,785.1,269.5z"/>
	<path fill="#FFFFFF" d="M92.1,140.1c1.1,0.9,1.8,1.5,2.7,2.3c-0.9,0.5-1.4,0.7-1.9,1c0,0.7,0,1.4,0,2.1c-0.3,0-0.5,0-0.8,0
		C92.1,143.9,92.1,142.3,92.1,140.1z"/>
	<path fill="#FFFFFF" d="M659.1,254.7c3-2.3,5.9-4.7,8.9-7c0.1,0.2,0.3,0.4,0.4,0.5c-2.9,2.3-5.9,4.7-8.8,7
		C659.4,255,659.2,254.8,659.1,254.7z"/>
	<path fill="#FFFFFF" d="M110.2,387.5c0.9,0.7,2.4,1.2,1.5,2.9c-0.2,0.4-0.5,0.9-0.7,1.3c-0.6-0.3-1.3-0.6-1.7-1
		c-0.2-0.2,0.2-0.9,0.3-1.4C109.8,388.8,110,388.2,110.2,387.5z"/>
	<path fill="#FFFFFF" d="M190.4,268.4c1.8,0.5,2.1,2.9,0.8,4.7c-1-0.7-1.9-1.5-2.9-2.2c0.1-0.2,0.2-0.4,0.3-0.6
		c0.8,0.3,1.7,0.7,2.7,1C191,270.4,190.7,269.5,190.4,268.4z"/>
	<path fill="#FFFFFF" d="M356,150.2c0,0.4,0,0.7,0.1,1.2c-2.5-0.3-5-0.7-7.5-1C350.9,148.2,353.4,151,356,150.2z"/>
	<path fill="#FFFFFF" d="M418.8,151.4c0-2.4,0-4.9,0-7.7C420.3,145.5,420.1,150.2,418.8,151.4C418.8,151.4,418.8,151.4,418.8,151.4z
		"/>
	<path fill="#FFFFFF" d="M317.5,251.9c0.2,0.6,0.4,1.2,0.7,1.9c-0.4,0.3-0.8,0.7-1.3,1.2c0.5,0.3,1,0.5,1.8,0.9
		c-0.6,0.1-1,0.2-1.4,0.2c-0.4-0.1-1-0.3-1-0.4c-0.1-1.2-0.2-2.4-0.1-3.5c0-0.2,0.6-0.4,0.8-0.6
		C317.1,251.6,317.3,251.8,317.5,251.9z"/>
	<path fill="#FFFFFF" d="M198.8,277.5c-0.2,0.6-0.3,1.1-0.5,1.6c-1.2-1.8-1.3-1.8-2.6-0.4c-0.9-0.6-1.7-1.1-2.4-1.7
		c0.1-0.2,0.2-0.5,0.3-0.7C195.3,276.7,197,277.1,198.8,277.5z"/>
	<path fill="#FFFFFF" d="M724.9,293.5c0.2,0.8,0.4,1.5,0.6,2.2c-1.1-0.4-2-0.8-2.9-1.2c-0.3-0.1-0.7-0.3-0.7-0.5
		c0-0.5,0.1-1.1,0.2-1.6c0.4,0.2,0.8,0.3,1.2,0.5c0.4,0.3,0.8,0.6,1.3,0.8C724.6,293.7,724.8,293.6,724.9,293.5z"/>
	<path fill="#FFFFFF" d="M132.6,403.3c-0.7-2.5-0.3-4.3,2.6-4.7C134.4,400.1,133.5,401.7,132.6,403.3z"/>
	<path fill="#FFFFFF" d="M223.9,295.2c-1,0.7-1.8,1.4-3.2,2.3c0.4-1.6,0.8-2.9,1.2-4.5C222.8,294,223.3,294.6,223.9,295.2z"/>
	<path fill="#FFFFFF" d="M300.5,460.4c0-1.9,0-3.7,0-5.7c0.3,0,0.9,0.1,1.5,0.2c0.1,0.1,0.2,0.1,0.3,0.2c-0.4,0-0.9,0-1.3,0
		c0.2,0.2,0.3,0.5,0.5,0.7c0.3,0,0.6-0.1,0.7-0.1c-0.4,1.6-0.7,3.1-1.1,4.7C300.8,460.4,300.6,460.4,300.5,460.4z"/>
	<path fill="#FFFFFF" d="M671.4,245c2.3-1.8,4.5-3.6,6.8-5.4c0.1,0.2,0.3,0.3,0.4,0.5c-2.2,1.8-4.5,3.7-6.7,5.5
		C671.6,245.3,671.5,245.2,671.4,245z"/>
	<path fill="#FFFFFF" d="M200,280.2c0.3-1.4,0.5-2.5,0.7-3.5c0.3,0,0.6,0,0.9-0.1c0.3,0.9,0.8,1.7,0.8,2.6
		C202.4,279.4,201.1,279.7,200,280.2z"/>
	<path fill="#FFFFFF" d="M101.8,165.4c1.9,0.5,2.2,1,1.6,2.5c0.4,0.3,0.8,0.5,1.1,0.8c0.1,0.1,0.1,0.2,0.4,1
		c-0.9-0.4-1.6-0.5-1.9-0.9c-0.3-0.4-0.2-1.2-0.4-1.7C102.4,166.6,102.1,166.1,101.8,165.4z"/>
	<path fill="#FFFFFF" d="M317.5,251.9c-0.2-0.1-0.4-0.3-0.6-0.4c-0.8-0.3-1.6-0.7-2.4-1c2.4-0.5,3.9,0.5,5,2.5
		C318.9,252.7,318.2,252.3,317.5,251.9z"/>
	<path fill="#FFFFFF" d="M110,353.2c-0.2-0.1-0.4-0.2-0.7-0.3c0.1,0.9,0.3,1.7,0.4,2.5c-0.2,0-0.4,0.1-0.6,0.1
		c-0.4-1.3-0.8-2.7-1.1-4c0.3-0.1,0.5-0.3,0.8-0.4c0.5,0.7,1,1.4,1.4,2.1C110.1,353.1,110.1,353.1,110,353.2z"/>
	<path fill="#FFFFFF" d="M280.2,221.6c1.1,0.8,2.1,1.2,2.3,1.8c0.2,0.6-0.4,1.5-1,2.4C281.1,224.5,280.7,223.3,280.2,221.6z"/>
	<path fill="#FFFFFF" d="M80.3,155.8c0.1-0.3,0.2-0.7,0.3-0.7c1.8-0.5,3.6-0.9,5.4-1.3c0.1,0.2,0.1,0.3,0.2,0.5
		c-1.9,0.7-3.7,1.3-5.6,2C80.5,156.1,80.4,155.9,80.3,155.8z"/>
	<path fill="#FFFFFF" d="M80.8,142.1c-1.2-1.1-2.3-2-3.1-2.7c0.9,0,1.9,0,2.8,0.1c0.3,0,0.7,0.6,0.7,1
		C81.3,140.9,81,141.4,80.8,142.1z"/>
	<path fill="#FFFFFF" d="M92.7,373c0.5,0.9,0.9,1.6,1.5,2.6c-1.5-0.2-2.4-0.4-3.6-0.6C91.3,374.3,91.8,373.8,92.7,373z"/>
	<path fill="#FFFFFF" d="M715.4,284c-0.7-0.6-1.3-1.1-2-1.8c1,0,1-2.4,2.6-0.8C715.9,282.2,715.7,283,715.4,284z"/>
	<path fill="#FFFFFF" d="M652.7,289.7c-0.5-0.3-1-0.6-1.3-1c-0.1-0.2,0.2-0.9,0.3-1c0.8-0.2,1.7-0.2,2.7-0.2
		C653.8,288.3,653.3,288.9,652.7,289.7z"/>
	<path fill="#FFFFFF" d="M462,251.9c-1.5,0.4-2.9,0.7-4.2-0.6c0-0.2,0.1-0.4,0.1-0.6c1.4,0.3,2.7,0.5,4.1,0.8
		C462,251.6,462,251.8,462,251.9z"/>
	<path fill="#FFFFFF" d="M710.4,285.5c1,0,1.7,0,2.6,0c-0.4,0.9-0.8,1.6-1.3,2.8C711.2,287.2,710.8,286.5,710.4,285.5z"/>
	<path fill="#FFFFFF" d="M99.3,373.7c-0.2-1.1-0.3-2-0.5-2.8c0.1,0,0.3-0.1,0.4-0.1c0.7,0.6,1.5,1.3,2.4,2.1
		C100.8,373.1,100.2,373.3,99.3,373.7z"/>
	<path fill="#FFFFFF" d="M223.9,113c0.2-1.1,0.4-2.2,0.6-3.6c1,1.8,1,3.4,0.4,5.3C224.5,114,224.2,113.5,223.9,113
		C223.9,113,223.9,113,223.9,113z"/>
	<path fill="#FFFFFF" d="M113.7,373.5c-0.6,0.2-1.2,0.4-1.9,0.5c-0.1-0.6-0.3-1.1-0.4-1.7c0.7,0,1.4,0.1,2.1,0.1
		C113.6,372.8,113.6,373.1,113.7,373.5z"/>
	<path fill="#FFFFFF" d="M115.9,243.8c1.5-0.4,2.5,0.6,2.6,3.1C117.5,245.8,116.7,244.8,115.9,243.8z"/>
	<path fill="#FFFFFF" d="M650.3,239.6c0.1,1.4,0.3,2.8,0.4,4.3c-0.3,0-0.5,0.1-0.8,0.1c-0.2-1.4-0.3-2.8-0.5-4.2
		C649.7,239.7,650,239.7,650.3,239.6z"/>
	<path fill="#FFFFFF" d="M94.8,417.3c-0.2-0.8-0.5-1.6-0.7-2.4c0.8-0.4,1.5,1.8,2-1.1c0.1,0.4,0.3,0.8,0.4,1.2
		c-0.3,0.9-0.7,1.7-1,2.6C95.3,417.5,95,417.4,94.8,417.3z"/>
	<path fill="#FFFFFF" d="M762.2,215.8c-0.9,1.3-1.7,2.6-2.6,4c-0.2-0.1-0.4-0.3-0.6-0.4c0.9-1.3,1.7-2.7,2.6-4
		C761.8,215.5,762,215.7,762.2,215.8z"/>
	<path fill="#FFFFFF" d="M711.2,214c-1.3,1.1-2.7,2.2-4,3.3c-0.1-0.1-0.3-0.3-0.4-0.4c1.3-1.1,2.6-2.2,4-3.3
		C710.9,213.7,711.1,213.8,711.2,214z"/>
	<path fill="#FFFFFF" d="M782.4,286.3c0.2,0.8,0.3,1.7,0.5,2.5c-0.4,0-1.1,0.1-1.1,0c-0.1-0.8-0.2-1.7-0.3-2.5
		C781.9,286.4,782.1,286.4,782.4,286.3z"/>
	<path fill="#FFFFFF" d="M277.4,243.6c-1.3-0.1-2.2-0.2-3.4-0.4C275.6,241.8,276.3,241.9,277.4,243.6z"/>
	<path fill="#FFFFFF" d="M112,388.4c0.2-0.8,0.2-1.2,0.4-1.8c-0.6,0.2-1,0.3-1.4,0.4c-0.1-0.2-0.1-0.5-0.2-0.7c0.9,0,1.8,0,2.8,0
		c0,0.2,0.1,0.5,0.1,0.7C113.2,387.5,112.7,387.8,112,388.4z"/>
	<path fill="#FFFFFF" d="M747.2,279.9c1.4,0.8,2.7,1.5,4.1,2.3c-0.1,0.1-0.1,0.2-0.2,0.4c-1.4-0.7-2.8-1.4-4.2-2.1
		C747,280.3,747.1,280.1,747.2,279.9z"/>
	<path fill="#FFFFFF" d="M230.5,224.2c0.8-1.5,0.8-1.5,3.3-0.7c-0.8,0.5-1.5,1-2.5,1.7c0.3-0.7,0.5-1.1,0.8-1.7
		C231.6,223.7,231.1,223.9,230.5,224.2z"/>
	<path fill="#FFFFFF" d="M93.4,420.3c-0.4-0.6-0.8-1.3-1.5-2.3c1,0.3,1.7,0.5,2.3,0.8c0.2,0.1-0.2,1-0.3,1.5
		C93.7,420.3,93.6,420.3,93.4,420.3z"/>
</g>
</svg>
