<?xml version="1.0" encoding="utf-8"?>
<!-- Generator: Adobe Illustrator 17.0.0, SVG Export Plug-In . SVG Version: 6.00 Build 0)  -->
<!DOCTYPE svg PUBLIC "-//W3C//DTD SVG 1.1//EN" "http://www.w3.org/Graphics/SVG/1.1/DTD/svg11.dtd">
<svg version="1.1" id="Layer_1" zoomAndPan="disable"
	 xmlns="http://www.w3.org/2000/svg" xmlns:xlink="http://www.w3.org/1999/xlink" x="0px" y="0px" width="16px" height="16px"
	 viewBox="0 0 16 16" enable-background="new 0 0 16 16" xml:space="preserve">
<g id="cgvfII_1_">
	<g>
		<path stroke="#000000" stroke-width="0.3" stroke-miterlimit="10" d="M15.776,5.286c0,0.576,0,1.151,0,1.727
			c-0.391,1.893-1.209,3.596-2.352,5.137c-0.912,1.229-1.883,2.415-2.828,3.62c-0.123,0-0.247,0-0.37,0
			c-2.191-2.644-4.48-5.231-5.181-8.757c0-0.576,0-1.151,0-1.727C5.091,5.131,5.143,4.978,5.18,4.82
			c0.366-1.528,1.102-2.836,2.437-3.699c0.603-0.39,1.324-0.6,1.991-0.891c0.534,0,1.069,0,1.603,0
			c0.069,0.037,0.135,0.091,0.209,0.108c1.768,0.403,2.981,1.488,3.731,3.097C15.427,4.022,15.571,4.668,15.776,5.286z
			 M10.397,15.214c1.63-2.001,3.234-3.878,4.221-6.173c0.779-1.814,0.954-3.656,0.038-5.476c-0.869-1.727-2.245-2.8-4.226-2.809
			C8.476,0.748,7.103,1.788,6.213,3.48C5.525,4.787,5.378,6.176,5.732,7.606C6.474,10.61,8.506,12.818,10.397,15.214z"/>
		<path stroke="#000000" stroke-width="0.3" stroke-miterlimit="10" d="M10.362,8.369C8.723,8.376,7.381,7.031,7.389,5.392
			c0.009-1.613,1.333-2.935,2.947-2.941c1.616-0.006,2.954,1.306,2.973,2.914C13.327,7.009,12,8.363,10.362,8.369z M10.33,7.86
			c1.316,0.012,2.437-1.079,2.47-2.4c0.033-1.334-1.091-2.487-2.432-2.5c-1.315-0.013-2.438,1.08-2.471,2.4
			C7.865,6.695,8.987,7.847,10.33,7.86z"/>
	</g>
</g>
</svg>
